<svg width="264" height="280" viewBox="0 0 264 280" fill="none" xmlns="http://www.w3.org/2000/svg">
<g clip-path="url(#clip0_349_966)">
<path d="M132 280C198.274 280 252 226.274 252 160C252 93.7258 198.274 40 132 40C65.7258 40 12 93.7258 12 160C12 226.274 65.7258 280 132 280Z" fill="#E6E6E6"/>
<mask id="mask0_349_966" style="mask-type:luminance" maskUnits="userSpaceOnUse" x="12" y="40" width="240" height="240">
<path d="M132 280C198.274 280 252 226.274 252 160C252 93.7258 198.274 40 132 40C65.7258 40 12 93.7258 12 160C12 226.274 65.7258 280 132 280Z" fill="white"/>
</mask>
<g mask="url(#mask0_349_966)">
<path d="M252 40H12V280H252V40Z" fill="#65C9FF"/>
</g>
<mask id="mask1_349_966" style="mask-type:luminance" maskUnits="userSpaceOnUse" x="0" y="0" width="264" height="280">
<path d="M12 160C12 226.274 65.7258 280 132 280C198.274 280 252 226.274 252 160H264V0H0V160H12Z" fill="white"/>
</mask>
<g mask="url(#mask1_349_966)">
<path d="M156 180.611V199H160C199.765 199 232 231.235 232 271V280H32V271C32 231.235 64.2355 199 104 199H108V180.611C90.7626 172.422 78.3722 155.687 76.3051 135.881C70.4803 135.058 66 130.052 66 124V110C66 104.054 70.3246 99.1181 76 98.1659V92C76 61.0721 101.072 36 132 36C162.928 36 188 61.0721 188 92V98.1659C193.675 99.1181 198 104.054 198 110V124C198 130.052 193.52 135.058 187.695 135.881C185.628 155.687 173.237 172.422 156 180.611Z" fill="#D0C6AC"/>
<mask id="mask2_349_966" style="mask-type:luminance" maskUnits="userSpaceOnUse" x="32" y="36" width="200" height="244">
<path d="M156 180.611V199H160C199.765 199 232 231.235 232 271V280H32V271C32 231.235 64.2355 199 104 199H108V180.611C90.7626 172.422 78.3722 155.687 76.3051 135.881C70.4803 135.058 66 130.052 66 124V110C66 104.054 70.3246 99.1181 76 98.1659V92C76 61.0721 101.072 36 132 36C162.928 36 188 61.0721 188 92V98.1659C193.675 99.1181 198 104.054 198 110V124C198 130.052 193.52 135.058 187.695 135.881C185.628 155.687 173.237 172.422 156 180.611Z" fill="white"/>
</mask>
<g mask="url(#mask2_349_966)">
<path d="M296 36H32V316H296V36Z" fill="#FD9841"/>
</g>
<mask id="mask3_349_966" style="mask-type:luminance" maskUnits="userSpaceOnUse" x="32" y="36" width="200" height="244">
<path d="M156 180.611V199H160C199.765 199 232 231.235 232 271V280H32V271C32 231.235 64.2355 199 104 199H108V180.611C90.7626 172.422 78.3722 155.687 76.3051 135.881C70.4803 135.058 66 130.052 66 124V110C66 104.054 70.3246 99.1181 76 98.1659V92C76 61.0721 101.072 36 132 36C162.928 36 188 61.0721 188 92V98.1659C193.675 99.1181 198 104.054 198 110V124C198 130.052 193.52 135.058 187.695 135.881C185.628 155.687 173.237 172.422 156 180.611Z" fill="white"/>
</mask>
<g mask="url(#mask3_349_966)">
<path fill-rule="evenodd" clip-rule="evenodd" d="M188 115V138C188 168.928 162.928 194 132 194C101.072 194 76 168.928 76 138V115V130C76 160.928 101.072 186 132 186C162.928 186 188 160.928 188 130V115Z" fill="black" fill-opacity="0.1"/>
</g>
<path fill-rule="evenodd" clip-rule="evenodd" d="M94 199.688V244H170V199.688C179.363 200.989 188.15 204.091 196 208.632L196 280H187H77H68V208.632C75.85 204.091 84.637 200.989 94 199.688Z" fill="#B7C1DB"/>
<mask id="mask4_349_966" style="mask-type:luminance" maskUnits="userSpaceOnUse" x="68" y="199" width="128" height="81">
<path fill-rule="evenodd" clip-rule="evenodd" d="M94 199.688V244H170V199.688C179.363 200.989 188.15 204.091 196 208.632L196 280H187H77H68V208.632C75.85 204.091 84.637 200.989 94 199.688Z" fill="white"/>
</mask>
<g mask="url(#mask4_349_966)">
<path d="M264 170H0V280H264V170Z" fill="#B1E2FF"/>
</g>
<path d="M81 258C83.7614 258 86 255.761 86 253C86 250.239 83.7614 248 81 248C78.2386 248 76 250.239 76 253C76 255.761 78.2386 258 81 258Z" fill="#F4F4F4"/>
<path d="M183 258C185.761 258 188 255.761 188 253C188 250.239 185.761 248 183 248C180.239 248 178 250.239 178 253C178 255.761 180.239 258 183 258Z" fill="#F4F4F4"/>
<path d="M118 150C118 155.372 124.158 159 132 159C139.842 159 146 155.372 146 150C146 148.895 145.05 148 144 148C142.707 148 142.13 148.905 142 150C140.758 152.938 137.683 154.716 132 155C126.317 154.716 123.242 152.938 122 150C121.87 148.905 121.293 148 120 148C118.95 148 118 148.895 118 150Z" fill="black" fill-opacity="0.6"/>
<path fill-rule="evenodd" clip-rule="evenodd" d="M120 130C120 134.418 125.373 138 132 138C138.627 138 144 134.418 144 130" fill="black" fill-opacity="0.16"/>
<path d="M111.958 100C109.407 100 106.884 101.98 105.5 103.821C104.111 101.98 101.593 100 99.0417 100C93.5523 100 90 103.334 90 107.641C90 113.371 94.4119 116.771 99.0417 120.377C100.695 121.613 103.822 124.778 104.208 125.471C104.594 126.164 106.314 126.189 106.792 125.471C107.269 124.753 110.302 121.613 111.958 120.377C116.585 116.771 121 113.371 121 107.641C121 103.334 117.448 100 111.958 100Z" fill="#FF5353" fill-opacity="0.8"/>
<path d="M164.958 100C162.407 100 159.884 101.98 158.5 103.821C157.111 101.98 154.593 100 152.042 100C146.552 100 143 103.334 143 107.641C143 113.371 147.412 116.771 152.042 120.377C153.695 121.613 156.822 124.778 157.208 125.471C157.594 126.164 159.314 126.189 159.792 125.471C160.269 124.753 163.302 121.613 164.958 120.377C169.585 116.771 174 113.371 174 107.641C174 103.334 170.448 100 164.958 100Z" fill="#FF5353" fill-opacity="0.8"/>
<path d="M91.6116 97.1846C95.8516 91.4162 98.4893 91.7009 104.924 96.5565C105.106 96.6938 105.221 96.7813 105.594 97.0638C110.422 100.726 112.708 102 116 102C117.105 102 118 101.105 118 100C118 98.8955 117.105 98.0001 116 98.0001C113.934 98.0001 112.099 96.9779 108.011 93.8771C107.636 93.5923 107.519 93.5037 107.333 93.3636C103.574 90.5267 101.374 89.2874 98.6381 88.9921C94.9539 88.5945 91.5801 90.4737 88.3886 94.8155C87.7344 95.7055 87.9256 96.9574 88.8156 97.6115C89.7056 98.2657 90.9574 98.0746 91.6116 97.1846Z" fill="black" fill-opacity="0.6"/>
<path d="M172.388 97.1846C168.148 91.4162 165.511 91.7009 159.076 96.5565C158.894 96.6938 158.779 96.7813 158.406 97.0638C153.578 100.726 151.292 102 148 102C146.895 102 146 101.105 146 100C146 98.8955 146.895 98.0001 148 98.0001C150.066 98.0001 151.901 96.9779 155.989 93.8771C156.364 93.5923 156.481 93.5037 156.667 93.3636C160.426 90.5267 162.626 89.2874 165.362 88.9921C169.046 88.5945 172.42 90.4737 175.611 94.8155C176.266 95.7055 176.074 96.9574 175.184 97.6115C174.294 98.2657 173.043 98.0746 172.388 97.1846Z" fill="black" fill-opacity="0.6"/>
<mask id="mask5_349_966" style="mask-type:luminance" maskUnits="userSpaceOnUse" x="0" y="0" width="264" height="280">
<path d="M264 0H0V280H264V0Z" fill="white"/>
</mask>
<g mask="url(#mask5_349_966)">
<path fill-rule="evenodd" clip-rule="evenodd" d="M58 102.34C58 118.921 58 145.474 58 182C58 186.418 61.5817 190 66 190H108V180.611C90.4692 172.283 77.9518 155.115 76.2086 134.867C70.4309 134.002 66 129.019 66 123V110C66 106.509 67.4904 103.367 69.8695 101.174C81.4088 98.5553 93.9707 93.6376 106.342 86.4953C118.473 79.4911 128.844 71.2579 136.821 62.7522C133.394 70.6604 129.245 77.588 124.372 83.535C137.047 78.0121 145.678 69.1324 150.264 56.8961C150.641 57.818 151.035 58.7389 151.444 59.6582C161.7 82.6926 179.318 99.0186 197.206 104.403C197.719 106.513 198 108.484 198 110V123C198 129.019 193.569 134.002 187.791 134.867C186.048 155.115 173.531 172.283 156 180.611V190H174C191.673 190 206 175.673 206 158C206 133.944 206 115.903 206 103.875C206 103.808 205.991 103.721 205.972 103.615C205.828 91.3537 205.624 84.2238 205.36 82.2256C200.577 45.9764 169.556 18 132 18C95.9151 18 65.8627 43.8283 59 78C53.4772 78 49 83.5964 49 90.5C49 95.0508 50.695 99.1432 53.8535 101.273C54.7582 101.883 56.3238 102.198 58 102.34V102.34Z" fill="#944F23"/>
<mask id="mask6_349_966" style="mask-type:luminance" maskUnits="userSpaceOnUse" x="49" y="18" width="157" height="172">
<path fill-rule="evenodd" clip-rule="evenodd" d="M58 102.34C58 118.921 58 145.474 58 182C58 186.418 61.5817 190 66 190H108V180.611C90.4692 172.283 77.9518 155.115 76.2086 134.867C70.4309 134.002 66 129.019 66 123V110C66 106.509 67.4904 103.367 69.8695 101.174C81.4088 98.5553 93.9707 93.6376 106.342 86.4953C118.473 79.4911 128.844 71.2579 136.821 62.7522C133.394 70.6604 129.245 77.588 124.372 83.535C137.047 78.0121 145.678 69.1324 150.264 56.8961C150.641 57.818 151.035 58.7389 151.444 59.6582C161.7 82.6926 179.318 99.0186 197.206 104.403C197.719 106.513 198 108.484 198 110V123C198 129.019 193.569 134.002 187.791 134.867C186.048 155.115 173.531 172.283 156 180.611V190H174C191.673 190 206 175.673 206 158C206 133.944 206 115.903 206 103.875C206 103.808 205.991 103.721 205.972 103.615C205.828 91.3537 205.624 84.2238 205.36 82.2256C200.577 45.9764 169.556 18 132 18C95.9151 18 65.8627 43.8283 59 78C53.4772 78 49 83.5964 49 90.5C49 95.0508 50.695 99.1432 53.8535 101.273C54.7582 101.883 56.3238 102.198 58 102.34V102.34Z" fill="white"/>
</mask>
<g mask="url(#mask6_349_966)">
<path d="M263 0H-1V280H263V0Z" fill="#B58143"/>
</g>
<g opacity="0.439991">
<path fill-rule="evenodd" clip-rule="evenodd" d="M60.899 102.775C74.7109 101.015 90.6793 95.5379 106.342 86.4953C118.473 79.4911 128.844 71.2579 136.821 62.7522C133.394 70.6604 129.245 77.588 124.372 83.535C137.047 78.0121 145.678 69.1324 150.264 56.8961C150.641 57.818 151.035 58.7389 151.444 59.6582C163.382 86.4714 185.296 104.194 206 106.151V92C206 51.1309 172.869 18 132 18C95.9151 18 65.8627 43.8283 59.3213 78.0063C59.2146 78.0021 59.1075 78 59 78C53.4772 78 49 83.5964 49 90.5C49 96.9817 52.9467 102.311 58 102.938V103.093C58.3163 103.064 58.6339 103.033 58.9527 103C58.9685 103 58.9842 103 59 103C59.6493 103 60.2841 102.923 60.899 102.775Z" fill="white" fill-opacity="0.16"/>
</g>
<g filter="url(#filter0_d_349_966)">
<path d="M132 98.1111C120.962 98.1111 119.37 89.0266 96.6704 87.7407C73.9853 86.7168 66.8151 93.4495 66.7763 98.1111C66.8131 102.404 65.6475 113.561 80.3645 126.63C95.1366 142.142 110.27 136.882 115.694 131.815C121.135 129.473 127.34 108.46 132 108.481C136.659 108.503 142.865 129.473 148.306 131.815C153.729 136.882 168.863 142.142 183.635 126.63C198.352 113.561 197.187 102.404 197.223 98.1111C197.185 93.4495 190.014 86.7168 167.329 87.7407C144.629 89.0266 143.037 98.1111 132 98.1111Z" fill="#F4F4F4"/>
<path d="M121.129 108.482C121.51 100.823 108.215 92.6425 93.9527 92.926C79.6971 93.2246 77.8415 102.379 77.6468 105.889C77.298 114.022 86.0142 132.304 102.106 131.815C118.197 131.306 120.909 113.534 121.129 108.482Z" fill="#2F383B"/>
<path d="M142.87 108.482C142.489 100.823 155.784 92.6425 170.047 92.926C184.302 93.2246 186.158 102.379 186.353 105.889C186.702 114.022 177.985 132.304 161.894 131.815C145.802 131.306 143.091 113.534 142.87 108.482Z" fill="#2F383B"/>
</g>
</g>
</g>
</g>
<defs>
<filter id="filter0_d_349_966" x="66.7671" y="87.6364" width="130.465" height="51.3032" filterUnits="userSpaceOnUse" color-interpolation-filters="sRGB">
<feFlood flood-opacity="0" result="BackgroundImageFix"/>
<feColorMatrix in="SourceAlpha" type="matrix" values="0 0 0 0 0 0 0 0 0 0 0 0 0 0 0 0 0 0 127 0" result="hardAlpha"/>
<feOffset dy="2"/>
<feColorMatrix type="matrix" values="0 0 0 0 0 0 0 0 0 0 0 0 0 0 0 0 0 0 0.16 0"/>
<feBlend mode="normal" in2="BackgroundImageFix" result="effect1_dropShadow_349_966"/>
<feBlend mode="normal" in="SourceGraphic" in2="effect1_dropShadow_349_966" result="shape"/>
</filter>
<clipPath id="clip0_349_966">
<rect width="264" height="280" fill="white"/>
</clipPath>
</defs>
</svg>
