<svg width="264" height="280" viewBox="0 0 264 280" fill="none" xmlns="http://www.w3.org/2000/svg">
<g clip-path="url(#clip0_349_1147)">
<path d="M132 280C198.274 280 252 226.274 252 160C252 93.7258 198.274 40 132 40C65.7258 40 12 93.7258 12 160C12 226.274 65.7258 280 132 280Z" fill="#E6E6E6"/>
<mask id="mask0_349_1147" style="mask-type:luminance" maskUnits="userSpaceOnUse" x="12" y="40" width="240" height="240">
<path d="M132 280C198.274 280 252 226.274 252 160C252 93.7258 198.274 40 132 40C65.7258 40 12 93.7258 12 160C12 226.274 65.7258 280 132 280Z" fill="white"/>
</mask>
<g mask="url(#mask0_349_1147)">
<path d="M252 40H12V280H252V40Z" fill="#65C9FF"/>
</g>
<mask id="mask1_349_1147" style="mask-type:luminance" maskUnits="userSpaceOnUse" x="0" y="0" width="264" height="280">
<path d="M12 160C12 226.274 65.7258 280 132 280C198.274 280 252 226.274 252 160H264V0H0V160H12Z" fill="white"/>
</mask>
<g mask="url(#mask1_349_1147)">
<path d="M156 180.611V199H160C199.765 199 232 231.235 232 271V280H32V271C32 231.235 64.2355 199 104 199H108V180.611C90.7626 172.422 78.3722 155.687 76.3051 135.881C70.4803 135.058 66 130.052 66 124V110C66 104.054 70.3246 99.1181 76 98.1659V92C76 61.0721 101.072 36 132 36C162.928 36 188 61.0721 188 92V98.1659C193.675 99.1181 198 104.054 198 110V124C198 130.052 193.52 135.058 187.695 135.881C185.628 155.687 173.237 172.422 156 180.611Z" fill="#D0C6AC"/>
<mask id="mask2_349_1147" style="mask-type:luminance" maskUnits="userSpaceOnUse" x="32" y="36" width="200" height="244">
<path d="M156 180.611V199H160C199.765 199 232 231.235 232 271V280H32V271C32 231.235 64.2355 199 104 199H108V180.611C90.7626 172.422 78.3722 155.687 76.3051 135.881C70.4803 135.058 66 130.052 66 124V110C66 104.054 70.3246 99.1181 76 98.1659V92C76 61.0721 101.072 36 132 36C162.928 36 188 61.0721 188 92V98.1659C193.675 99.1181 198 104.054 198 110V124C198 130.052 193.52 135.058 187.695 135.881C185.628 155.687 173.237 172.422 156 180.611Z" fill="white"/>
</mask>
<g mask="url(#mask2_349_1147)">
<path d="M296 36H32V316H296V36Z" fill="#FFDBB4"/>
</g>
<mask id="mask3_349_1147" style="mask-type:luminance" maskUnits="userSpaceOnUse" x="32" y="36" width="200" height="244">
<path d="M156 180.611V199H160C199.765 199 232 231.235 232 271V280H32V271C32 231.235 64.2355 199 104 199H108V180.611C90.7626 172.422 78.3722 155.687 76.3051 135.881C70.4803 135.058 66 130.052 66 124V110C66 104.054 70.3246 99.1181 76 98.1659V92C76 61.0721 101.072 36 132 36C162.928 36 188 61.0721 188 92V98.1659C193.675 99.1181 198 104.054 198 110V124C198 130.052 193.52 135.058 187.695 135.881C185.628 155.687 173.237 172.422 156 180.611Z" fill="white"/>
</mask>
<g mask="url(#mask3_349_1147)">
<path fill-rule="evenodd" clip-rule="evenodd" d="M188 115V138C188 168.928 162.928 194 132 194C101.072 194 76 168.928 76 138V115V130C76 160.928 101.072 186 132 186C162.928 186 188 160.928 188 130V115Z" fill="black" fill-opacity="0.1"/>
</g>
<path fill-rule="evenodd" clip-rule="evenodd" d="M171.32 199.937C205.706 205.367 232 235.139 232 271.052V280H32V271.052C32 235.138 58.2944 205.366 92.6818 199.936C93.5836 205.005 96.1164 209.824 100.236 213.539L129.321 239.768C130.843 241.14 133.157 241.14 134.679 239.768L163.764 213.539C164.189 213.155 164.601 212.756 164.998 212.343C168.414 208.787 170.517 204.452 171.32 199.937V199.937Z" fill="#E6E6E6"/>
<mask id="mask4_349_1147" style="mask-type:luminance" maskUnits="userSpaceOnUse" x="32" y="199" width="200" height="81">
<path fill-rule="evenodd" clip-rule="evenodd" d="M171.32 199.937C205.706 205.367 232 235.139 232 271.052V280H32V271.052C32 235.138 58.2944 205.366 92.6818 199.936C93.5836 205.005 96.1164 209.824 100.236 213.539L129.321 239.768C130.843 241.14 133.157 241.14 134.679 239.768L163.764 213.539C164.189 213.155 164.601 212.756 164.998 212.343C168.414 208.787 170.517 204.452 171.32 199.937V199.937Z" fill="white"/>
</mask>
<g mask="url(#mask4_349_1147)">
<path d="M264 170H0V280H264V170Z" fill="#3C4F5C"/>
</g>
<path fill-rule="evenodd" clip-rule="evenodd" d="M118 149C118 156.732 124.268 163 132 163C139.732 163 146 156.732 146 149" fill="black" fill-opacity="0.7"/>
<path fill-rule="evenodd" clip-rule="evenodd" d="M120 130C120 134.418 125.373 138 132 138C138.627 138 144 134.418 144 130" fill="black" fill-opacity="0.16"/>
<path d="M106 118C109.314 118 112 115.314 112 112C112 108.686 109.314 106 106 106C102.686 106 100 108.686 100 112C100 115.314 102.686 118 106 118Z" fill="black" fill-opacity="0.6"/>
<path fill-rule="evenodd" clip-rule="evenodd" d="M146.61 114.955C148.187 111.037 152.149 108.105 156.971 107.768C161.775 107.432 166.094 109.766 168.209 113.404C168.837 114.485 168.119 115.456 167.282 114.832C164.69 112.901 161.126 111.831 157.274 112.101C153.543 112.362 150.253 113.83 147.962 115.988C147.124 116.777 146.148 116.101 146.61 114.955Z" fill="black" fill-opacity="0.6"/>
<path fill-rule="evenodd" clip-rule="evenodd" d="M102.547 88.1484C96.7404 88.4166 87.3523 92.6362 87.5942 98.4922C87.6022 98.6838 87.8837 98.768 88.0213 98.6205C90.7762 95.6612 110.337 92.6709 117.226 94.2555C117.857 94.4008 118.336 93.7787 117.936 93.3294C114.514 89.4811 107.75 87.903 102.547 88.1484Z" fill="black" fill-opacity="0.6"/>
<path fill-rule="evenodd" clip-rule="evenodd" d="M162.453 88.1484C168.26 88.4166 177.648 92.6362 177.406 98.4922C177.398 98.6838 177.116 98.768 176.979 98.6205C174.224 95.6612 154.663 92.6709 147.774 94.2555C147.143 94.4008 146.664 93.7787 147.064 93.3294C150.486 89.4811 157.25 87.903 162.453 88.1484Z" fill="black" fill-opacity="0.6"/>
<mask id="mask5_349_1147" style="mask-type:luminance" maskUnits="userSpaceOnUse" x="0" y="0" width="264" height="280">
<path d="M264 0H0V280H264V0Z" fill="white"/>
</mask>
<g mask="url(#mask5_349_1147)">
<path fill-rule="evenodd" clip-rule="evenodd" d="M65.0423 77.075C70.6797 45.2058 98.5131 21 132 21C169.556 21 200 51.4446 200 89V119.751C200.875 129.554 201.694 136.422 202.456 140.354C203.833 147.458 208.15 145.115 208.15 155.22C208.15 165.325 203.822 168.72 203.803 177.705C203.785 186.691 219.201 193.836 219.201 205.243C219.201 216.649 212.126 270.476 141.578 270.476C126.507 270.476 113.671 266.189 103.068 257.614C103.75 264.104 104.395 271.566 105 280H58.0002C58.9326 256.229 50.7158 242.936 50.7158 216.446C50.7158 189.955 64.3527 151.428 64.0002 142C64.0201 141.418 64.0408 140.728 64.0622 139.932C64.021 138.96 64.0002 137.982 64.0002 137V89C64.0002 85.0241 64.3414 81.1279 64.9962 77.339C64.9975 77.2262 64.9988 77.1132 65.0002 77C65.0142 77.025 65.0283 77.05 65.0423 77.075ZM131.5 53C101.401 53 77.0002 77.4005 77.0002 107.5V130.5C77.0002 160.6 101.401 185 131.5 185H132.5C162.6 185 187 160.6 187 130.5V107.5C187 77.4005 162.6 53 132.5 53H131.5Z" fill="#3B6BAD"/>
<mask id="mask6_349_1147" style="mask-type:luminance" maskUnits="userSpaceOnUse" x="50" y="21" width="170" height="259">
<path fill-rule="evenodd" clip-rule="evenodd" d="M65.0423 77.075C70.6797 45.2058 98.5131 21 132 21C169.556 21 200 51.4446 200 89V119.751C200.875 129.554 201.694 136.422 202.456 140.354C203.833 147.458 208.15 145.115 208.15 155.22C208.15 165.325 203.822 168.72 203.803 177.705C203.785 186.691 219.201 193.836 219.201 205.243C219.201 216.649 212.126 270.476 141.578 270.476C126.507 270.476 113.671 266.189 103.068 257.614C103.75 264.104 104.395 271.566 105 280H58.0002C58.9326 256.229 50.7158 242.936 50.7158 216.446C50.7158 189.955 64.3527 151.428 64.0002 142C64.0201 141.418 64.0408 140.728 64.0622 139.932C64.021 138.96 64.0002 137.982 64.0002 137V89C64.0002 85.0241 64.3414 81.1279 64.9962 77.339C64.9975 77.2262 64.9988 77.1132 65.0002 77C65.0142 77.025 65.0283 77.05 65.0423 77.075ZM131.5 53C101.401 53 77.0002 77.4005 77.0002 107.5V130.5C77.0002 160.6 101.401 185 131.5 185H132.5C162.6 185 187 160.6 187 130.5V107.5C187 77.4005 162.6 53 132.5 53H131.5Z" fill="white"/>
</mask>
<g mask="url(#mask6_349_1147)">
<path d="M263 0H-1V280H263V0Z" fill="#929598"/>
</g>
<mask id="mask7_349_1147" style="mask-type:luminance" maskUnits="userSpaceOnUse" x="50" y="21" width="170" height="259">
<path fill-rule="evenodd" clip-rule="evenodd" d="M65.0423 77.075C70.6797 45.2058 98.5131 21 132 21C169.556 21 200 51.4446 200 89V119.751C200.875 129.554 201.694 136.422 202.456 140.354C203.833 147.458 208.15 145.115 208.15 155.22C208.15 165.325 203.822 168.72 203.803 177.705C203.785 186.691 219.201 193.836 219.201 205.243C219.201 216.649 212.126 270.476 141.578 270.476C126.507 270.476 113.671 266.189 103.068 257.614C103.75 264.104 104.395 271.566 105 280H58.0002C58.9326 256.229 50.7158 242.936 50.7158 216.446C50.7158 189.955 64.3527 151.428 64.0002 142C64.0201 141.418 64.0408 140.728 64.0622 139.932C64.021 138.96 64.0002 137.982 64.0002 137V89C64.0002 85.0241 64.3414 81.1279 64.9962 77.339C64.9975 77.2262 64.9988 77.1132 65.0002 77C65.0142 77.025 65.0283 77.05 65.0423 77.075ZM131.5 53C101.401 53 77.0002 77.4005 77.0002 107.5V130.5C77.0002 160.6 101.401 185 131.5 185H132.5C162.6 185 187 160.6 187 130.5V107.5C187 77.4005 162.6 53 132.5 53H131.5Z" fill="white"/>
</mask>
<g mask="url(#mask7_349_1147)">
<path fill-rule="evenodd" clip-rule="evenodd" d="M71.0744 104.96C70.369 101.247 70 97.4162 70 93.5C70 59.5345 97.7583 32 132 32C166.242 32 194 59.5345 194 93.5C194 97.4162 193.631 101.247 192.926 104.96C191.341 72.6828 164.67 47 132 47C99.3301 47 72.6587 72.6828 71.0744 104.96Z" fill="white" fill-opacity="0.5"/>
</g>
<mask id="mask8_349_1147" style="mask-type:luminance" maskUnits="userSpaceOnUse" x="50" y="21" width="170" height="259">
<path fill-rule="evenodd" clip-rule="evenodd" d="M65.0423 77.075C70.6797 45.2058 98.5131 21 132 21C169.556 21 200 51.4446 200 89V119.751C200.875 129.554 201.694 136.422 202.456 140.354C203.833 147.458 208.15 145.115 208.15 155.22C208.15 165.325 203.822 168.72 203.803 177.705C203.785 186.691 219.201 193.836 219.201 205.243C219.201 216.649 212.126 270.476 141.578 270.476C126.507 270.476 113.671 266.189 103.068 257.614C103.75 264.104 104.395 271.566 105 280H58.0002C58.9326 256.229 50.7158 242.936 50.7158 216.446C50.7158 189.955 64.3527 151.428 64.0002 142C64.0201 141.418 64.0408 140.728 64.0622 139.932C64.021 138.96 64.0002 137.982 64.0002 137V89C64.0002 85.0241 64.3414 81.1279 64.9962 77.339C64.9975 77.2262 64.9988 77.1132 65.0002 77C65.0142 77.025 65.0283 77.05 65.0423 77.075ZM131.5 53C101.401 53 77.0002 77.4005 77.0002 107.5V130.5C77.0002 160.6 101.401 185 131.5 185H132.5C162.6 185 187 160.6 187 130.5V107.5C187 77.4005 162.6 53 132.5 53H131.5Z" fill="white"/>
</mask>
<g mask="url(#mask8_349_1147)">
<path opacity="0.9" fill-rule="evenodd" clip-rule="evenodd" d="M186.929 104.695C187.631 108.188 188 111.801 188 115.5V138.5C188 168.6 163.6 193 133.5 193H130.5C100.4 193 76 168.6 76 138.5V115.5C76 111.801 76.3685 108.188 77.0709 104.695C77.0238 105.624 77 106.559 77 107.5V130.5C77 160.6 101.4 185 131.5 185H132.5C162.6 185 187 160.6 187 130.5V107.5C187 106.559 186.976 105.624 186.929 104.695ZM113.167 206.995C119.651 211.981 134.663 213.708 151.405 210.756C168.146 207.805 181.662 201.047 186.05 194.144C186.118 194.397 186.175 194.652 186.221 194.911C187.931 204.606 172.985 215.345 152.84 218.898C132.695 222.45 114.978 217.47 113.268 207.775C113.223 207.516 113.189 207.256 113.167 206.995ZM125.035 235.921C133.227 241.575 149.422 241.844 166.104 235.772C182.786 229.7 195.019 219.085 197.66 209.488C197.803 209.808 197.935 210.135 198.056 210.467C202.583 222.904 189.979 238.909 169.905 246.216C149.831 253.522 129.888 249.363 125.361 236.926C125.24 236.594 125.131 236.259 125.035 235.921Z" fill="black" fill-opacity="0.16"/>
</g>
<g filter="url(#filter0_d_349_1147)">
<path d="M101 133H98.2421C84.3147 133 76 125.336 76 112.5C76 102.127 77.817 92 99.5299 92H102.47C124.183 92 126 102.127 126 112.5C126 124.569 115.721 133 101 133ZM99.3854 98C80 98 80 104.841 80 113.502C80 120.572 83.1163 129 97.9709 129H101C113.365 129 122 122.627 122 113.502C122 104.841 122 98 102.615 98H99.3854Z" fill="#252C2F"/>
<path d="M163 133H160.242C146.315 133 138 125.336 138 112.5C138 102.127 139.817 92 161.53 92H164.47C186.183 92 188 102.127 188 112.5C188 124.569 177.721 133 163 133ZM161.385 98C142 98 142 104.841 142 113.502C142 120.572 145.119 129 159.971 129H163C175.365 129 184 122.627 184 113.502C184 104.841 184 98 164.615 98H161.385Z" fill="#252C2F"/>
<path d="M69.9545 97.7716C70.6459 97.0963 78.2095 92 99.5 92C117.351 92 121.13 93.8527 126.85 96.6519L127.269 96.8585C127.667 96.999 129.7 97.6898 132.079 97.7658C134.246 97.6728 136.1 97.0854 136.642 96.8972C143.17 93.7221 149.561 92 164.5 92C185.79 92 193.354 97.0963 194.045 97.7716C195.679 97.7716 197 99.0615 197 100.657V103.543C197 105.139 195.679 106.429 194.045 106.429C194.045 106.429 187.144 106.429 187.144 109.315C187.144 112.2 185.182 105.139 185.182 103.543V100.732C181.579 99.3534 175.128 96.7862 164.5 96.7862C152.658 96.7862 146.761 98.886 141.702 100.971L141.759 101.108L141.756 103.094L139.539 108.444L136.8 107.361C136.556 107.264 136.028 107.09 135.296 106.91C133.256 106.407 131.159 106.254 129.304 106.634C128.624 106.774 127.992 106.984 127.413 107.267L124.77 108.558L122.127 103.396L122.244 101.102L122.325 100.907C117.962 98.8739 113.939 96.7862 99.5 96.7862C88.8721 96.7862 82.4221 99.3524 78.8182 100.731V103.543C78.8182 105.139 75.8636 112.2 75.8636 109.315C75.8636 106.429 69.9545 106.429 69.9545 106.429C68.3236 106.429 67 105.139 67 103.543V100.657C67 99.0615 68.3236 97.7716 69.9545 97.7716Z" fill="#252C2F"/>
</g>
</g>
</g>
</g>
<defs>
<filter id="filter0_d_349_1147" x="67" y="92" width="130" height="43" filterUnits="userSpaceOnUse" color-interpolation-filters="sRGB">
<feFlood flood-opacity="0" result="BackgroundImageFix"/>
<feColorMatrix in="SourceAlpha" type="matrix" values="0 0 0 0 0 0 0 0 0 0 0 0 0 0 0 0 0 0 127 0" result="hardAlpha"/>
<feOffset dy="2"/>
<feColorMatrix type="matrix" values="0 0 0 0 0 0 0 0 0 0 0 0 0 0 0 0 0 0 0.2 0"/>
<feBlend mode="normal" in2="BackgroundImageFix" result="effect1_dropShadow_349_1147"/>
<feBlend mode="normal" in="SourceGraphic" in2="effect1_dropShadow_349_1147" result="shape"/>
</filter>
<clipPath id="clip0_349_1147">
<rect width="264" height="280" fill="white"/>
</clipPath>
</defs>
</svg>
