<svg width="264" height="280" viewBox="0 0 264 280" fill="none" xmlns="http://www.w3.org/2000/svg">
<g clip-path="url(#clip0_349_1045)">
<path d="M132 280C198.274 280 252 226.274 252 160C252 93.7258 198.274 40 132 40C65.7258 40 12 93.7258 12 160C12 226.274 65.7258 280 132 280Z" fill="#E6E6E6"/>
<mask id="mask0_349_1045" style="mask-type:luminance" maskUnits="userSpaceOnUse" x="12" y="40" width="240" height="240">
<path d="M132 280C198.274 280 252 226.274 252 160C252 93.7258 198.274 40 132 40C65.7258 40 12 93.7258 12 160C12 226.274 65.7258 280 132 280Z" fill="white"/>
</mask>
<g mask="url(#mask0_349_1045)">
<path d="M252 40H12V280H252V40Z" fill="#65C9FF"/>
</g>
<mask id="mask1_349_1045" style="mask-type:luminance" maskUnits="userSpaceOnUse" x="0" y="0" width="264" height="280">
<path d="M12 160C12 226.274 65.7258 280 132 280C198.274 280 252 226.274 252 160H264V0H0V160H12Z" fill="white"/>
</mask>
<g mask="url(#mask1_349_1045)">
<path d="M156 180.611V199H160C199.765 199 232 231.235 232 271V280H32V271C32 231.235 64.2355 199 104 199H108V180.611C90.7626 172.422 78.3722 155.687 76.3051 135.881C70.4803 135.058 66 130.052 66 124V110C66 104.054 70.3246 99.1181 76 98.1659V92C76 61.0721 101.072 36 132 36C162.928 36 188 61.0721 188 92V98.1659C193.675 99.1181 198 104.054 198 110V124C198 130.052 193.52 135.058 187.695 135.881C185.628 155.687 173.237 172.422 156 180.611Z" fill="#D0C6AC"/>
<mask id="mask2_349_1045" style="mask-type:luminance" maskUnits="userSpaceOnUse" x="32" y="36" width="200" height="244">
<path d="M156 180.611V199H160C199.765 199 232 231.235 232 271V280H32V271C32 231.235 64.2355 199 104 199H108V180.611C90.7626 172.422 78.3722 155.687 76.3051 135.881C70.4803 135.058 66 130.052 66 124V110C66 104.054 70.3246 99.1181 76 98.1659V92C76 61.0721 101.072 36 132 36C162.928 36 188 61.0721 188 92V98.1659C193.675 99.1181 198 104.054 198 110V124C198 130.052 193.52 135.058 187.695 135.881C185.628 155.687 173.237 172.422 156 180.611Z" fill="white"/>
</mask>
<g mask="url(#mask2_349_1045)">
<path d="M296 36H32V316H296V36Z" fill="#EDB98A"/>
</g>
<mask id="mask3_349_1045" style="mask-type:luminance" maskUnits="userSpaceOnUse" x="32" y="36" width="200" height="244">
<path d="M156 180.611V199H160C199.765 199 232 231.235 232 271V280H32V271C32 231.235 64.2355 199 104 199H108V180.611C90.7626 172.422 78.3722 155.687 76.3051 135.881C70.4803 135.058 66 130.052 66 124V110C66 104.054 70.3246 99.1181 76 98.1659V92C76 61.0721 101.072 36 132 36C162.928 36 188 61.0721 188 92V98.1659C193.675 99.1181 198 104.054 198 110V124C198 130.052 193.52 135.058 187.695 135.881C185.628 155.687 173.237 172.422 156 180.611Z" fill="white"/>
</mask>
<g mask="url(#mask3_349_1045)">
<path fill-rule="evenodd" clip-rule="evenodd" d="M188 115V138C188 168.928 162.928 194 132 194C101.072 194 76 168.928 76 138V115V130C76 160.928 101.072 186 132 186C162.928 186 188 160.928 188 130V115Z" fill="black" fill-opacity="0.1"/>
</g>
<path fill-rule="evenodd" clip-rule="evenodd" d="M165.624 199.268C202.76 202.137 232 233.18 232 271.052V280H32V271.052C32 232.835 61.7752 201.572 99.3929 199.197C99.1342 200.274 99 201.377 99 202.5C99 214.374 113.998 224 132.5 224C151.002 224 166 214.374 166 202.5C166 201.402 165.872 200.322 165.624 199.268L165.624 199.268Z" fill="#E6E6E6"/>
<mask id="mask4_349_1045" style="mask-type:luminance" maskUnits="userSpaceOnUse" x="32" y="199" width="200" height="81">
<path fill-rule="evenodd" clip-rule="evenodd" d="M165.624 199.268C202.76 202.137 232 233.18 232 271.052V280H32V271.052C32 232.835 61.7752 201.572 99.3929 199.197C99.1342 200.274 99 201.377 99 202.5C99 214.374 113.998 224 132.5 224C151.002 224 166 214.374 166 202.5C166 201.402 165.872 200.322 165.624 199.268L165.624 199.268Z" fill="white"/>
</mask>
<g mask="url(#mask4_349_1045)">
<path d="M264 170H0V280H264V170Z" fill="#3C4F5C"/>
</g>
<mask id="mask5_349_1045" style="mask-type:luminance" maskUnits="userSpaceOnUse" x="32" y="199" width="200" height="81">
<path fill-rule="evenodd" clip-rule="evenodd" d="M165.624 199.268C202.76 202.137 232 233.18 232 271.052V280H32V271.052C32 232.835 61.7752 201.572 99.3929 199.197C99.1342 200.274 99 201.377 99 202.5C99 214.374 113.998 224 132.5 224C151.002 224 166 214.374 166 202.5C166 201.402 165.872 200.322 165.624 199.268L165.624 199.268Z" fill="white"/>
</mask>
<g mask="url(#mask5_349_1045)">
<path fill-rule="evenodd" clip-rule="evenodd" d="M159.303 235.568C159.147 236.499 157.38 240.657 156.074 238.519C155.565 237.686 156.475 235.057 156.759 234.309C157.317 232.837 157.733 232.672 159.022 231.978C159.131 233.167 159.433 234.377 159.303 235.568ZM156.319 238.887C156.477 239.019 156.349 238.899 156.319 238.887ZM156.311 238.88C156.311 238.88 156.305 238.876 156.311 238.88ZM149.03 234.205C149.083 234.247 149.04 234.213 149.03 234.205ZM136.555 239.161C136.348 240.38 136.08 241.6 135.651 242.761C135.482 241.03 135.754 239.305 136.651 237.81C136.641 238.262 136.609 238.712 136.555 239.161ZM136.545 236.659C136.541 236.643 136.386 236.419 136.545 236.659ZM119.908 246.803C120.061 245.27 120.676 243.786 121.814 242.759C121.537 244.384 120.742 245.43 119.908 246.803ZM169.837 233.297C169.837 233.934 167.779 235.632 167.263 236.1C166.385 236.899 165.449 237.54 164.187 237.354C160.725 236.844 162.097 233.148 161.546 230.873C161.112 229.085 160.667 229.759 159.464 229.647C158.346 229.542 157.946 228.991 156.782 229.833C154.686 231.352 153.016 233.329 152.123 235.814C151.799 234.118 150.878 231.31 148.671 231.72C147.039 232.023 145.687 234.646 145.008 235.963C144.956 234.766 144.34 232.887 142.833 233.745C141.797 234.334 141.842 237.126 141.615 238.155C141.15 240.267 140.236 245.772 136.971 245.057C138 243.138 140.251 237.086 138.321 235.119C135.609 232.357 133.546 239.275 133.435 240.959C133.356 242.165 134.241 244.903 133.764 245.651C133.179 246.569 131.336 246.964 130.461 246.292C129.056 245.214 129.61 243.462 129.931 242.093C130.353 240.299 130.551 238.496 130.665 236.656C130.75 235.276 131.951 229.108 129.637 229.024C127.542 228.949 127.328 234.162 127.179 235.587C126.994 237.338 126.883 239.112 126.944 240.875C127.006 242.657 127.338 243.845 126.647 245.518C125.907 247.311 122.383 252.689 120.274 249.118C122.514 248.136 125.185 243.6 123.983 241.051C122.317 237.517 118.568 242.902 118.025 244.707C117.147 247.622 117.533 251.429 120.888 252.378C124.381 253.367 127.078 250.092 128.309 247.198C129.311 248.786 131.154 249.184 132.858 248.703C133.535 248.512 134.186 248.182 134.75 247.756C135.82 246.946 135.193 247.247 136.329 247.214C139.626 247.12 141.425 246.061 142.66 242.669C142.646 243.603 143.004 245.029 144.259 244.518C145.233 244.121 145.227 242.508 145.407 241.648C145.977 238.935 146.873 236.107 149.006 234.226C150.847 236.228 149.486 239.654 150.697 241.786C152.564 245.074 153.504 239.254 153.796 238.132C153.853 243.014 159.657 241.216 160.914 237.975C164.213 241.49 171.148 238.324 169.837 233.297Z" fill="white"/>
<path fill-rule="evenodd" clip-rule="evenodd" d="M163.434 243.349C159.804 243.349 155.829 244.375 152.307 245.166C148.76 245.964 145.231 246.952 141.805 248.137C137.933 249.475 133.993 250.69 130.215 252.258C126.938 253.618 122.707 254.611 120.703 257.674C120.699 257.682 122.805 257.586 122.975 257.557C124.024 257.383 124.927 257.014 125.892 256.601C127.639 255.855 129.374 255.082 131.116 254.325C135.02 252.627 139.095 251.23 143.104 249.771C147.1 248.318 151.199 247.086 155.359 246.146C158.75 245.379 162.541 245.232 165.662 243.873C165.544 243.917 165.621 243.887 165.892 243.782C165.813 243.82 163.671 243.349 163.434 243.349Z" fill="white"/>
<path fill-rule="evenodd" clip-rule="evenodd" d="M116.117 248.825C113.848 247.827 110.64 248.267 108.282 248.586C106.139 248.876 102.786 249.521 101.449 249.694C100.343 249.835 97.0432 250.735 96.4394 249.497C95.79 248.166 99.1588 244.094 99.8951 243.134C103.21 238.814 107.195 234.014 111.975 231.211C111.535 233.162 111.15 235.129 110.748 237.087C110.582 237.895 109.799 242.251 111.234 242.595C111.823 242.735 113.006 239.812 113.104 239.551C113.927 237.362 114.116 234.841 114.495 232.549C114.712 231.238 115.695 228.499 113.801 228.047C112.172 227.658 109.965 229.774 108.878 230.666C105.596 233.358 102.751 236.613 100.091 239.886C98.7803 241.499 97.4761 243.12 96.3769 244.883C95.473 246.333 93.2874 249.374 94.2321 251.165C95.9297 254.386 104.072 251.563 106.664 251.133C108.709 250.794 110.816 250.473 112.891 250.757C115.053 251.052 114.948 252.027 114.23 253.953C112.752 257.913 109.454 261.314 106.506 264.273C105.207 265.576 100.125 271.692 98.8455 268.364C97.976 266.103 98.7453 263.329 99.7456 261.25C100.214 260.277 100.835 259.389 101.323 258.426C101.456 258.163 102.125 256.001 102.27 255.953C98.4004 257.304 96.1533 262.538 95.9375 266.24C95.8359 267.981 96.0738 270.564 97.7374 271.608C99.4017 272.653 100.964 271.381 102.287 270.423C105.929 267.784 109.178 264.425 112.152 261.088C113.778 259.264 120.605 250.801 116.117 248.825Z" fill="white"/>
</g>
<path fill-rule="evenodd" clip-rule="evenodd" d="M113.118 149.128C114.176 158.62 122.226 166 132 166C141.804 166 149.874 158.574 150.892 149.04C150.974 148.273 150.117 147 149.043 147C134.149 147 122.738 147 115.087 147C114.007 147 113.012 148.178 113.118 149.128Z" fill="black" fill-opacity="0.7"/>
<mask id="mask6_349_1045" style="mask-type:luminance" maskUnits="userSpaceOnUse" x="113" y="147" width="38" height="19">
<path fill-rule="evenodd" clip-rule="evenodd" d="M113.118 149.128C114.176 158.62 122.226 166 132 166C141.804 166 149.874 158.574 150.892 149.04C150.974 148.273 150.117 147 149.043 147C134.149 147 122.738 147 115.087 147C114.007 147 113.012 148.178 113.118 149.128Z" fill="white"/>
</mask>
<g mask="url(#mask6_349_1045)">
<path d="M143 136H122C119.239 136 117 138.239 117 141V147C117 149.761 119.239 152 122 152H143C145.762 152 148 149.761 148 147V141C148 138.239 145.762 136 143 136Z" fill="white"/>
</g>
<mask id="mask7_349_1045" style="mask-type:luminance" maskUnits="userSpaceOnUse" x="113" y="147" width="38" height="19">
<path fill-rule="evenodd" clip-rule="evenodd" d="M113.118 149.128C114.176 158.62 122.226 166 132 166C141.804 166 149.874 158.574 150.892 149.04C150.974 148.273 150.117 147 149.043 147C134.149 147 122.738 147 115.087 147C114.007 147 113.012 148.178 113.118 149.128Z" fill="white"/>
</mask>
<g mask="url(#mask7_349_1045)">
<path d="M127 180C133.076 180 138 175.075 138 169C138 162.925 133.076 158 127 158C120.925 158 116 162.925 116 169C116 175.075 120.925 180 127 180Z" fill="#FF4F6D"/>
<path d="M137 180C143.076 180 148 175.075 148 169C148 162.925 143.076 158 137 158C130.925 158 126 162.925 126 169C126 175.075 130.925 180 137 180Z" fill="#FF4F6D"/>
</g>
<path fill-rule="evenodd" clip-rule="evenodd" d="M120 130C120 134.418 125.373 138 132 138C138.627 138 144 134.418 144 130" fill="black" fill-opacity="0.16"/>
<path d="M158 124C164.627 124 170 118.627 170 112C170 105.373 164.627 100 158 100C151.373 100 146 105.373 146 112C146 118.627 151.373 124 158 124Z" fill="white"/>
<path d="M158 118C161.314 118 164 115.314 164 112C164 108.686 161.314 106 158 106C154.686 106 152 108.686 152 112C152 115.314 154.686 118 158 118Z" fill="black" fill-opacity="0.7"/>
<path fill-rule="evenodd" clip-rule="evenodd" d="M92.1602 115.447C94.0067 111.649 98.1644 109 102.998 109C107.814 109 111.959 111.63 113.815 115.407C114.367 116.529 113.582 117.447 112.791 116.767C110.34 114.66 106.859 113.344 102.998 113.344C99.2572 113.344 95.8738 114.579 93.4375 116.572C92.5468 117.3 91.6201 116.558 92.1602 115.447Z" fill="black" fill-opacity="0.6"/>
<path d="M91.6116 97.1846C95.8516 91.4162 98.4893 91.7009 104.924 96.5565C105.106 96.6938 105.221 96.7813 105.594 97.0638C110.422 100.726 112.708 102 116 102C117.105 102 118 101.105 118 100C118 98.8955 117.105 98.0001 116 98.0001C113.934 98.0001 112.099 96.9779 108.011 93.8771C107.636 93.5923 107.519 93.5037 107.333 93.3636C103.574 90.5267 101.374 89.2874 98.6381 88.9921C94.9539 88.5945 91.5801 90.4737 88.3886 94.8155C87.7344 95.7055 87.9256 96.9574 88.8156 97.6115C89.7056 98.2657 90.9574 98.0746 91.6116 97.1846Z" fill="black" fill-opacity="0.6"/>
<path d="M172.388 97.1846C168.148 91.4162 165.511 91.7009 159.076 96.5565C158.894 96.6938 158.779 96.7813 158.406 97.0638C153.578 100.726 151.292 102 148 102C146.895 102 146 101.105 146 100C146 98.8955 146.895 98.0001 148 98.0001C150.066 98.0001 151.901 96.9779 155.989 93.8771C156.364 93.5923 156.481 93.5037 156.667 93.3636C160.426 90.5267 162.626 89.2874 165.362 88.9921C169.046 88.5945 172.42 90.4737 175.611 94.8155C176.266 95.7055 176.074 96.9574 175.184 97.6115C174.294 98.2657 173.043 98.0746 172.388 97.1846Z" fill="black" fill-opacity="0.6"/>
<path fill-rule="evenodd" clip-rule="evenodd" d="M63 68H85.6714V173.664C85.6714 179.925 80.5963 185 74.3357 185C68.0752 185 63 179.925 63 173.664V68ZM178.329 68H201V173.664C201 179.925 195.925 185 189.664 185C183.404 185 178.329 179.925 178.329 173.664V68Z" fill="#F4F4F4"/>
<path fill-rule="evenodd" clip-rule="evenodd" d="M182 74H82V175C82 180.523 77.5228 185 72 185C66.4772 185 62 180.523 62 175V74V64C62 39.6995 81.6995 20 106 20H158C182.301 20 202 39.6995 202 64V74V175C202 180.523 197.523 185 192 185C186.477 185 182 180.523 182 175V74Z" fill="#D8D8D8"/>
<mask id="mask8_349_1045" style="mask-type:luminance" maskUnits="userSpaceOnUse" x="62" y="20" width="140" height="165">
<path fill-rule="evenodd" clip-rule="evenodd" d="M182 74H82V175C82 180.523 77.5228 185 72 185C66.4772 185 62 180.523 62 175V74V64C62 39.6995 81.6995 20 106 20H158C182.301 20 202 39.6995 202 64V74V175C202 180.523 197.523 185 192 185C186.477 185 182 180.523 182 175V74Z" fill="white"/>
</mask>
<g mask="url(#mask8_349_1045)">
<path d="M326 20H62V300H326V20Z" fill="white"/>
</g>
<path d="M183 50H81C76.5817 50 73 53.5817 73 58V78C73 82.4183 76.5817 86 81 86H183C187.418 86 191 82.4183 191 78V58C191 53.5817 187.418 50 183 50Z" fill="black"/>
<path d="M183 50H81C76.5817 50 73 53.5817 73 58V78C73 82.4183 76.5817 86 81 86H183C187.418 86 191 82.4183 191 78V58C191 53.5817 187.418 50 183 50Z" fill="#F4F4F4"/>
<path fill-rule="evenodd" clip-rule="evenodd" d="M132 141.297C125.208 137.711 115.578 137.149 110.389 139.132C104.614 141.337 99.5053 147.583 90.6388 144.828C90.2699 144.714 89.9095 145.045 90.0204 145.409C91.3938 149.918 99.0278 153.007 101.622 153.108C112.961 153.55 122.095 144.83 132 144.161C141.906 144.83 151.039 153.55 162.379 153.108C164.973 153.007 172.607 149.918 173.98 145.409C174.091 145.045 173.731 144.714 173.362 144.828C164.495 147.583 159.386 141.337 153.612 139.132C148.422 137.149 138.792 137.711 132 141.297Z" fill="#28354B"/>
<mask id="mask9_349_1045" style="mask-type:luminance" maskUnits="userSpaceOnUse" x="90" y="138" width="85" height="16">
<path fill-rule="evenodd" clip-rule="evenodd" d="M132 141.297C125.208 137.711 115.578 137.149 110.389 139.132C104.614 141.337 99.5053 147.583 90.6388 144.828C90.2699 144.714 89.9095 145.045 90.0204 145.409C91.3938 149.918 99.0278 153.007 101.622 153.108C112.961 153.55 122.095 144.83 132 144.161C141.906 144.83 151.039 153.55 162.379 153.108C164.973 153.007 172.607 149.918 173.98 145.409C174.091 145.045 173.731 144.714 173.362 144.828C164.495 147.583 159.386 141.337 153.612 139.132C148.422 137.149 138.792 137.711 132 141.297Z" fill="white"/>
</mask>
<g mask="url(#mask9_349_1045)">
<path d="M280 72H16V316H280V72Z" fill="#B58143"/>
</g>
<g filter="url(#filter0_d_349_1045)">
<path fill-rule="evenodd" clip-rule="evenodd" d="M115.249 100.275C117.621 100.297 118.742 100.692 119.146 103.165C119.555 105.67 119.157 108.487 118.685 110.955C117.965 114.723 116.767 118.414 113.978 121.168C112.509 122.619 110.717 123.775 108.811 124.564C107.799 124.983 106.73 125.286 105.661 125.516C105.349 125.583 102.682 125.95 104.318 125.763C100.501 126.199 96.3602 126.182 93.1724 123.752C89.6397 121.06 87.2204 116.8 86.1566 112.556C85.5342 110.073 84.2263 104.134 86.616 102.149C89.3533 99.8745 115.249 100.275 115.249 100.275ZM91.2179 93.4905C85.7775 93.6778 82.1467 94.6338 79.4634 100.069C74.5458 110.03 82.9628 124.969 92.3523 129.039C103.329 133.799 115.592 128.532 121.396 119.006C124.469 113.962 126.023 106.323 125.923 100.504C125.795 93.0765 120.607 92.8705 114.509 93.0338L91.2179 93.4905Z" fill="#D6EAF2"/>
<path fill-rule="evenodd" clip-rule="evenodd" d="M148.681 100.273C146.309 100.295 145.188 100.689 144.784 103.163C144.374 105.668 144.772 108.485 145.244 110.952C145.965 114.72 147.163 118.412 149.952 121.166C151.421 122.616 153.213 123.772 155.119 124.562C156.131 124.981 157.2 125.284 158.268 125.513C158.581 125.58 161.247 125.948 159.612 125.761C163.429 126.197 167.57 126.179 170.757 123.75C174.29 121.058 176.709 116.798 177.773 112.554C178.396 110.071 179.703 104.132 177.314 102.147C174.577 99.8719 148.681 100.273 148.681 100.273ZM172.712 93.4879C178.152 93.6753 181.783 94.6316 184.466 100.067C189.384 110.028 180.967 124.966 171.577 129.037C160.6 133.797 148.338 128.529 142.534 119.004C139.461 113.96 137.907 106.321 138.007 100.501C138.135 93.0739 143.323 92.8679 149.421 93.0316L172.712 93.4879Z" fill="#D6EAF2"/>
<path fill-rule="evenodd" clip-rule="evenodd" d="M82.197 97.9267C78.785 98.1184 74.8861 98.1644 71.6901 99.6394C68.3054 101.201 67.7824 104.739 72.0492 105.226C73.971 105.446 75.8949 105.083 77.7872 104.745C79.3369 104.468 81.442 104.558 82.9065 103.966C85.6355 102.862 85.4604 97.7401 82.197 97.9267Z" fill="#D6EAF2"/>
<path fill-rule="evenodd" clip-rule="evenodd" d="M181.735 97.9267C185.147 98.1184 189.046 98.1644 192.242 99.6394C195.626 101.201 196.15 104.739 191.883 105.226C189.961 105.446 188.037 105.083 186.145 104.745C184.595 104.468 182.49 104.558 181.025 103.966C178.296 102.862 178.472 97.7401 181.735 97.9267Z" fill="#D6EAF2"/>
<path fill-rule="evenodd" clip-rule="evenodd" d="M142.11 100.013C140.163 97.7126 135.091 96.3846 131.892 96.3846C128.692 96.3846 123.768 97.7126 121.822 100.013C120.841 101.172 120.808 102.724 122.509 103.451C124.626 104.357 126.518 102.714 128.213 101.855C130.381 100.757 133.712 100.877 135.719 101.855C137.427 102.688 139.305 104.357 141.424 103.451C143.124 102.724 143.091 101.172 142.11 100.013Z" fill="#D6EAF2"/>
</g>
</g>
</g>
<defs>
<filter id="filter0_d_349_1045" x="69" y="93.0001" width="125.932" height="39.8202" filterUnits="userSpaceOnUse" color-interpolation-filters="sRGB">
<feFlood flood-opacity="0" result="BackgroundImageFix"/>
<feColorMatrix in="SourceAlpha" type="matrix" values="0 0 0 0 0 0 0 0 0 0 0 0 0 0 0 0 0 0 127 0" result="hardAlpha"/>
<feOffset dy="2"/>
<feColorMatrix type="matrix" values="0 0 0 0 0 0 0 0 0 0 0 0 0 0 0 0 0 0 0.2 0"/>
<feBlend mode="normal" in2="BackgroundImageFix" result="effect1_dropShadow_349_1045"/>
<feBlend mode="normal" in="SourceGraphic" in2="effect1_dropShadow_349_1045" result="shape"/>
</filter>
<clipPath id="clip0_349_1045">
<rect width="264" height="280" fill="white"/>
</clipPath>
</defs>
</svg>
