<svg width="264" height="280" viewBox="0 0 264 280" fill="none" xmlns="http://www.w3.org/2000/svg">
<g clip-path="url(#clip0_349_1230)">
<path d="M132 280C198.274 280 252 226.274 252 160C252 93.7258 198.274 40 132 40C65.7258 40 12 93.7258 12 160C12 226.274 65.7258 280 132 280Z" fill="#E6E6E6"/>
<mask id="mask0_349_1230" style="mask-type:luminance" maskUnits="userSpaceOnUse" x="12" y="40" width="240" height="240">
<path d="M132 280C198.274 280 252 226.274 252 160C252 93.7258 198.274 40 132 40C65.7258 40 12 93.7258 12 160C12 226.274 65.7258 280 132 280Z" fill="white"/>
</mask>
<g mask="url(#mask0_349_1230)">
<path d="M252 40H12V280H252V40Z" fill="#65C9FF"/>
</g>
<mask id="mask1_349_1230" style="mask-type:luminance" maskUnits="userSpaceOnUse" x="0" y="0" width="264" height="280">
<path d="M12 160C12 226.274 65.7258 280 132 280C198.274 280 252 226.274 252 160H264V0H0V160H12Z" fill="white"/>
</mask>
<g mask="url(#mask1_349_1230)">
<path d="M156 180.611V199H160C199.765 199 232 231.235 232 271V280H32V271C32 231.235 64.2355 199 104 199H108V180.611C90.7626 172.422 78.3722 155.687 76.3051 135.881C70.4803 135.058 66 130.052 66 124V110C66 104.054 70.3246 99.1181 76 98.1659V92C76 61.0721 101.072 36 132 36C162.928 36 188 61.0721 188 92V98.1659C193.675 99.1181 198 104.054 198 110V124C198 130.052 193.52 135.058 187.695 135.881C185.628 155.687 173.237 172.422 156 180.611Z" fill="#D0C6AC"/>
<mask id="mask2_349_1230" style="mask-type:luminance" maskUnits="userSpaceOnUse" x="32" y="36" width="200" height="244">
<path d="M156 180.611V199H160C199.765 199 232 231.235 232 271V280H32V271C32 231.235 64.2355 199 104 199H108V180.611C90.7626 172.422 78.3722 155.687 76.3051 135.881C70.4803 135.058 66 130.052 66 124V110C66 104.054 70.3246 99.1181 76 98.1659V92C76 61.0721 101.072 36 132 36C162.928 36 188 61.0721 188 92V98.1659C193.675 99.1181 198 104.054 198 110V124C198 130.052 193.52 135.058 187.695 135.881C185.628 155.687 173.237 172.422 156 180.611Z" fill="white"/>
</mask>
<g mask="url(#mask2_349_1230)">
<path d="M296 36H32V316H296V36Z" fill="#FD9841"/>
</g>
<mask id="mask3_349_1230" style="mask-type:luminance" maskUnits="userSpaceOnUse" x="32" y="36" width="200" height="244">
<path d="M156 180.611V199H160C199.765 199 232 231.235 232 271V280H32V271C32 231.235 64.2355 199 104 199H108V180.611C90.7626 172.422 78.3722 155.687 76.3051 135.881C70.4803 135.058 66 130.052 66 124V110C66 104.054 70.3246 99.1181 76 98.1659V92C76 61.0721 101.072 36 132 36C162.928 36 188 61.0721 188 92V98.1659C193.675 99.1181 198 104.054 198 110V124C198 130.052 193.52 135.058 187.695 135.881C185.628 155.687 173.237 172.422 156 180.611Z" fill="white"/>
</mask>
<g mask="url(#mask3_349_1230)">
<path fill-rule="evenodd" clip-rule="evenodd" d="M188 115V138C188 168.928 162.928 194 132 194C101.072 194 76 168.928 76 138V115V130C76 160.928 101.072 186 132 186C162.928 186 188 160.928 188 130V115Z" fill="black" fill-opacity="0.1"/>
</g>
<path fill-rule="evenodd" clip-rule="evenodd" d="M105.192 199.052H104C64.2355 199.052 32 231.287 32 271.052V280H232V271.052C232 231.287 199.765 199.052 160 199.052H158.808C158.935 200.035 159 201.036 159 202.052C159 215.859 146.912 227.052 132 227.052C117.088 227.052 105 215.859 105 202.052C105 201.036 105.065 200.035 105.192 199.052Z" fill="#E6E6E6"/>
<mask id="mask4_349_1230" style="mask-type:luminance" maskUnits="userSpaceOnUse" x="32" y="199" width="200" height="81">
<path fill-rule="evenodd" clip-rule="evenodd" d="M105.192 199.052H104C64.2355 199.052 32 231.287 32 271.052V280H232V271.052C232 231.287 199.765 199.052 160 199.052H158.808C158.935 200.035 159 201.036 159 202.052C159 215.859 146.912 227.052 132 227.052C117.088 227.052 105 215.859 105 202.052C105 201.036 105.065 200.035 105.192 199.052Z" fill="white"/>
</mask>
<g mask="url(#mask4_349_1230)">
<path d="M264 170H0V280H264V170Z" fill="#262E33"/>
</g>
<path fill-rule="evenodd" clip-rule="evenodd" d="M100.785 199.122C62.5123 200.804 32 232.365 32 271.052V280H101.362C97.9607 267.92 96 253.709 96 238.5C96 224.173 97.74 210.731 100.785 199.122ZM163.638 280H232V271.052C232 232.707 202.025 201.363 164.229 199.174C167.265 210.771 169 224.194 169 238.5C169 253.709 167.039 267.92 163.638 280Z" fill="#3A4C5A"/>
<path fill-rule="evenodd" clip-rule="evenodd" d="M181 256L190.556 248.833C191.999 247.751 193.988 247.768 195.412 248.876L202 254L181 256Z" fill="#E6E6E6"/>
<path fill-rule="evenodd" clip-rule="evenodd" d="M101 198C97 217.333 98.6667 244.667 106 280H90L76 244L82 235L76 229L95 199C97.0277 198.369 99.0277 198.036 101 198Z" fill="#2F4351"/>
<path fill-rule="evenodd" clip-rule="evenodd" d="M163 198C167 217.333 165.333 244.667 158 280H174L188 244L182 235L188 229L169 199C166.972 198.369 164.972 198.036 163 198Z" fill="#2F4351"/>
<path fill-rule="evenodd" clip-rule="evenodd" d="M156 191.539C162.772 196.136 167 202.656 167 209.888C167 217.289 162.572 223.945 155.52 228.557L149.579 223.877L145 224.208L146 221.057L145.922 220.996C152.022 217.853 156 212.7 156 206.877V191.539ZM108 191.539C101.228 196.136 97 202.656 97 209.888C97 217.289 101.428 223.945 108.48 228.557L114.421 223.877L119 224.208L118 221.057L118.078 220.996C111.978 217.853 108 212.7 108 206.877V191.539Z" fill="#F2F2F2"/>
<path fill-rule="evenodd" clip-rule="evenodd" d="M113.118 149.128C114.176 158.62 122.226 166 132 166C141.804 166 149.874 158.574 150.892 149.04C150.974 148.273 150.117 147 149.043 147C134.149 147 122.738 147 115.087 147C114.007 147 113.012 148.178 113.118 149.128Z" fill="black" fill-opacity="0.7"/>
<mask id="mask5_349_1230" style="mask-type:luminance" maskUnits="userSpaceOnUse" x="113" y="147" width="38" height="19">
<path fill-rule="evenodd" clip-rule="evenodd" d="M113.118 149.128C114.176 158.62 122.226 166 132 166C141.804 166 149.874 158.574 150.892 149.04C150.974 148.273 150.117 147 149.043 147C134.149 147 122.738 147 115.087 147C114.007 147 113.012 148.178 113.118 149.128Z" fill="white"/>
</mask>
<g mask="url(#mask5_349_1230)">
<path d="M143 136H122C119.239 136 117 138.239 117 141V147C117 149.761 119.239 152 122 152H143C145.762 152 148 149.761 148 147V141C148 138.239 145.762 136 143 136Z" fill="white"/>
</g>
<mask id="mask6_349_1230" style="mask-type:luminance" maskUnits="userSpaceOnUse" x="113" y="147" width="38" height="19">
<path fill-rule="evenodd" clip-rule="evenodd" d="M113.118 149.128C114.176 158.62 122.226 166 132 166C141.804 166 149.874 158.574 150.892 149.04C150.974 148.273 150.117 147 149.043 147C134.149 147 122.738 147 115.087 147C114.007 147 113.012 148.178 113.118 149.128Z" fill="white"/>
</mask>
<g mask="url(#mask6_349_1230)">
<path d="M127 180C133.076 180 138 175.075 138 169C138 162.925 133.076 158 127 158C120.925 158 116 162.925 116 169C116 175.075 120.925 180 127 180Z" fill="#FF4F6D"/>
<path d="M137 180C143.076 180 148 175.075 148 169C148 162.925 143.076 158 137 158C130.925 158 126 162.925 126 169C126 175.075 130.925 180 137 180Z" fill="#FF4F6D"/>
</g>
<path fill-rule="evenodd" clip-rule="evenodd" d="M120 130C120 134.418 125.373 138 132 138C138.627 138 144 134.418 144 130" fill="black" fill-opacity="0.16"/>
<path fill-rule="evenodd" clip-rule="evenodd" d="M106 117.048C115.61 117.048 120 121.499 120 114.562C120 107.624 113.732 103 106 103C98.268 103 92 107.624 92 114.562C92 121.499 96.39 117.048 106 117.048Z" fill="white"/>
<mask id="mask7_349_1230" style="mask-type:luminance" maskUnits="userSpaceOnUse" x="92" y="103" width="28" height="16">
<path fill-rule="evenodd" clip-rule="evenodd" d="M106 117.048C115.61 117.048 120 121.499 120 114.562C120 107.624 113.732 103 106 103C98.268 103 92 107.624 92 114.562C92 121.499 96.39 117.048 106 117.048Z" fill="white"/>
</mask>
<g mask="url(#mask7_349_1230)">
<path d="M106 119C109.314 119 112 116.314 112 113C112 109.686 109.314 107 106 107C102.686 107 100 109.686 100 113C100 116.314 102.686 119 106 119Z" fill="black" fill-opacity="0.7"/>
</g>
<path fill-rule="evenodd" clip-rule="evenodd" d="M158 117.048C167.61 117.048 172 121.499 172 114.562C172 107.624 165.732 103 158 103C150.268 103 144 107.624 144 114.562C144 121.499 148.39 117.048 158 117.048Z" fill="white"/>
<mask id="mask8_349_1230" style="mask-type:luminance" maskUnits="userSpaceOnUse" x="144" y="103" width="28" height="16">
<path fill-rule="evenodd" clip-rule="evenodd" d="M158 117.048C167.61 117.048 172 121.499 172 114.562C172 107.624 165.732 103 158 103C150.268 103 144 107.624 144 114.562C144 121.499 148.39 117.048 158 117.048Z" fill="white"/>
</mask>
<g mask="url(#mask8_349_1230)">
<path d="M158 119C161.314 119 164 116.314 164 113C164 109.686 161.314 107 158 107C154.686 107 152 109.686 152 113C152 116.314 154.686 119 158 119Z" fill="black" fill-opacity="0.7"/>
</g>
<path fill-rule="evenodd" clip-rule="evenodd" d="M102.547 88.1484C96.7404 88.4166 87.3523 92.6362 87.5942 98.4922C87.6022 98.6838 87.8837 98.768 88.0213 98.6205C90.7762 95.6612 110.337 92.6709 117.226 94.2555C117.857 94.4008 118.336 93.7787 117.936 93.3294C114.514 89.4811 107.75 87.903 102.547 88.1484Z" fill="black" fill-opacity="0.6"/>
<path fill-rule="evenodd" clip-rule="evenodd" d="M162.453 88.1484C168.26 88.4166 177.648 92.6362 177.406 98.4922C177.398 98.6838 177.116 98.768 176.979 98.6205C174.224 95.6612 154.663 92.6709 147.774 94.2555C147.143 94.4008 146.664 93.7787 147.064 93.3294C150.486 89.4811 157.25 87.903 162.453 88.1484Z" fill="black" fill-opacity="0.6"/>
<mask id="mask9_349_1230" style="mask-type:luminance" maskUnits="userSpaceOnUse" x="0" y="0" width="264" height="280">
<path d="M264 0H0V280H264V0Z" fill="white"/>
</mask>
<g mask="url(#mask9_349_1230)">
<path fill-rule="evenodd" clip-rule="evenodd" d="M93.2519 52.0221C93.3749 51.9677 93.0697 51.9468 92.3361 51.9595C93.2277 51.9577 93.5329 51.9785 93.2519 52.0221ZM85.117 36.3016C85.1148 36.282 85.1338 36.4527 85.117 36.3016ZM192.765 70.7657C192.501 67.4487 192.033 64.1519 191.247 60.9111C190.622 58.3354 189.769 55.8775 188.76 53.42C188.151 51.9354 186.728 49.8961 186.56 48.2945C186.395 46.7169 187.627 44.9691 187.889 43.1323C188.144 41.3448 188.101 39.4652 187.734 37.6939C186.901 33.671 184.14 29.93 179.877 28.8814C178.925 28.6472 176.913 28.9358 176.241 28.3816C175.47 27.746 174.933 25.5807 174.235 24.7122C172.244 22.2362 169.14 20.6417 165.866 21.1976C163.455 21.6068 164.839 22.1053 163.032 20.6864C162.027 19.8976 161.276 18.6932 160.3 17.8392C158.833 16.5564 157.15 15.4582 155.408 14.557C150.851 12.1989 145.654 10.4849 140.564 9.64943C131.279 8.12524 121.369 9.45409 112.369 11.8688C107.89 13.0703 103.382 14.5952 99.2221 16.6118C97.4386 17.4764 96.409 18.1936 94.5495 18.4201C91.6207 18.7767 89.1405 18.7589 86.3661 20.001C77.8298 23.8229 73.9849 32.6898 77.3067 41.175C77.9748 42.8816 78.8795 44.3802 80.1267 45.7586C81.6475 47.4393 82.1976 47.1085 80.8878 49.0412C78.929 51.9312 77.2777 55.0129 75.9333 58.2129C72.4043 66.6146 71.8138 76.0772 72.0436 85.0373C72.124 88.1741 72.2586 91.3495 72.7532 94.4562C72.9668 95.8009 73.0267 98.3293 74.0354 99.3271C74.5471 99.8331 75.2762 100.115 76.0036 99.9138C77.7131 99.4402 77.1253 98.1787 77.165 97.0076C77.3649 91.124 77.095 85.9191 78.4943 80.1065C79.5279 75.8119 81.2505 71.9115 83.4828 68.0714C86.3214 63.1872 89.3857 58.8977 93.2895 54.7155C94.2073 53.732 94.4079 53.3151 95.6386 53.2438C96.5705 53.19 97.9338 53.8282 98.8399 54.0492C100.838 54.5361 102.839 55.0174 104.873 55.3453C108.613 55.9482 112.317 55.9886 116.09 55.8704C123.516 55.6381 130.975 55.1172 138.175 53.2471C142.957 52.0054 147.197 49.7762 151.777 48.1422C151.859 48.1131 153.007 47.2951 153.208 47.3285C153.489 47.3748 155.185 49.1543 155.471 49.3784C157.697 51.1239 160.138 51.8567 162.541 53.2082C165.505 54.8746 162.635 52.49 164.269 54.5668C164.746 55.1716 164.99 56.2932 165.372 56.9783C166.588 59.1611 168.28 61.0795 170.303 62.6018C172.258 64.0725 175.196 64.7829 176.193 66.6972C176.962 68.1741 177.221 70.1813 177.841 71.7579C179.469 75.8932 181.618 79.7495 183.767 83.6443C185.499 86.7831 187.392 89.525 187.585 93.1118C187.652 94.3603 186.464 101.849 189.358 99.5717C189.786 99.2341 190.711 95.4157 190.901 94.7678C191.673 92.1351 191.947 89.3867 192.296 86.6817C192.99 81.3022 193.219 76.1837 192.765 70.7657Z" fill="#28354B"/>
<mask id="mask10_349_1230" style="mask-type:luminance" maskUnits="userSpaceOnUse" x="72" y="9" width="121" height="91">
<path fill-rule="evenodd" clip-rule="evenodd" d="M93.2519 52.0221C93.3749 51.9677 93.0697 51.9468 92.3361 51.9595C93.2277 51.9577 93.5329 51.9785 93.2519 52.0221ZM85.117 36.3016C85.1148 36.282 85.1338 36.4527 85.117 36.3016ZM192.765 70.7657C192.501 67.4487 192.033 64.1519 191.247 60.9111C190.622 58.3354 189.769 55.8775 188.76 53.42C188.151 51.9354 186.728 49.8961 186.56 48.2945C186.395 46.7169 187.627 44.9691 187.889 43.1323C188.144 41.3448 188.101 39.4652 187.734 37.6939C186.901 33.671 184.14 29.93 179.877 28.8814C178.925 28.6472 176.913 28.9358 176.241 28.3816C175.47 27.746 174.933 25.5807 174.235 24.7122C172.244 22.2362 169.14 20.6417 165.866 21.1976C163.455 21.6068 164.839 22.1053 163.032 20.6864C162.027 19.8976 161.276 18.6932 160.3 17.8392C158.833 16.5564 157.15 15.4582 155.408 14.557C150.851 12.1989 145.654 10.4849 140.564 9.64943C131.279 8.12524 121.369 9.45409 112.369 11.8688C107.89 13.0703 103.382 14.5952 99.2221 16.6118C97.4386 17.4764 96.409 18.1936 94.5495 18.4201C91.6207 18.7767 89.1405 18.7589 86.3661 20.001C77.8298 23.8229 73.9849 32.6898 77.3067 41.175C77.9748 42.8816 78.8795 44.3802 80.1267 45.7586C81.6475 47.4393 82.1976 47.1085 80.8878 49.0412C78.929 51.9312 77.2777 55.0129 75.9333 58.2129C72.4043 66.6146 71.8138 76.0772 72.0436 85.0373C72.124 88.1741 72.2586 91.3495 72.7532 94.4562C72.9668 95.8009 73.0267 98.3293 74.0354 99.3271C74.5471 99.8331 75.2762 100.115 76.0036 99.9138C77.7131 99.4402 77.1253 98.1787 77.165 97.0076C77.3649 91.124 77.095 85.9191 78.4943 80.1065C79.5279 75.8119 81.2505 71.9115 83.4828 68.0714C86.3214 63.1872 89.3857 58.8977 93.2895 54.7155C94.2073 53.732 94.4079 53.3151 95.6386 53.2438C96.5705 53.19 97.9338 53.8282 98.8399 54.0492C100.838 54.5361 102.839 55.0174 104.873 55.3453C108.613 55.9482 112.317 55.9886 116.09 55.8704C123.516 55.6381 130.975 55.1172 138.175 53.2471C142.957 52.0054 147.197 49.7762 151.777 48.1422C151.859 48.1131 153.007 47.2951 153.208 47.3285C153.489 47.3748 155.185 49.1543 155.471 49.3784C157.697 51.1239 160.138 51.8567 162.541 53.2082C165.505 54.8746 162.635 52.49 164.269 54.5668C164.746 55.1716 164.99 56.2932 165.372 56.9783C166.588 59.1611 168.28 61.0795 170.303 62.6018C172.258 64.0725 175.196 64.7829 176.193 66.6972C176.962 68.1741 177.221 70.1813 177.841 71.7579C179.469 75.8932 181.618 79.7495 183.767 83.6443C185.499 86.7831 187.392 89.525 187.585 93.1118C187.652 94.3603 186.464 101.849 189.358 99.5717C189.786 99.2341 190.711 95.4157 190.901 94.7678C191.673 92.1351 191.947 89.3867 192.296 86.6817C192.99 81.3022 193.219 76.1837 192.765 70.7657Z" fill="white"/>
</mask>
<g mask="url(#mask10_349_1230)">
<path d="M263 0H-1V280H263V0Z" fill="#D6B370"/>
</g>
<g filter="url(#filter0_d_349_1230)">
<path fill-rule="evenodd" clip-rule="evenodd" d="M116.011 99.2772C118.521 99.3013 119.708 99.7263 120.136 102.392C120.57 105.092 120.148 108.127 119.648 110.787C118.886 114.848 117.617 118.826 114.665 121.794C113.109 123.358 111.212 124.603 109.194 125.454C108.123 125.906 106.991 126.232 105.86 126.48C105.529 126.552 102.706 126.948 104.438 126.747C100.397 127.216 96.0132 127.197 92.6384 124.579C88.8983 121.678 86.337 117.086 85.2108 112.513C84.5518 109.837 83.1673 103.437 85.6971 101.297C88.5951 98.8454 116.011 99.2772 116.011 99.2772Z" fill="black" fill-opacity="0.7"/>
<path style="mix-blend-mode:screen" fill-rule="evenodd" clip-rule="evenodd" d="M116.011 99.2772C118.521 99.3013 119.708 99.7263 120.136 102.392C120.57 105.092 120.148 108.127 119.648 110.787C118.886 114.848 117.617 118.826 114.665 121.794C113.109 123.358 111.212 124.603 109.194 125.454C108.123 125.906 106.991 126.232 105.86 126.48C105.529 126.552 102.706 126.948 104.438 126.747C100.397 127.216 96.0132 127.197 92.6384 124.579C88.8983 121.678 86.337 117.086 85.2108 112.513C84.5518 109.837 83.1673 103.437 85.6971 101.297C88.5951 98.8454 116.011 99.2772 116.011 99.2772Z" fill="url(#paint0_linear_349_1230)"/>
<path fill-rule="evenodd" clip-rule="evenodd" d="M147.919 99.2747C145.408 99.2991 144.221 99.7237 143.794 102.389C143.36 105.089 143.782 108.125 144.281 110.784C145.044 114.845 146.313 118.824 149.265 121.792C150.821 123.355 152.718 124.601 154.735 125.452C155.807 125.903 156.938 126.23 158.07 126.477C158.4 126.549 161.223 126.946 159.492 126.744C163.533 127.214 167.917 127.195 171.291 124.577C175.032 121.675 177.593 117.084 178.719 112.511C179.378 109.834 180.762 103.434 178.233 101.294C175.335 98.8429 147.919 99.2747 147.919 99.2747Z" fill="black" fill-opacity="0.7"/>
<path style="mix-blend-mode:screen" fill-rule="evenodd" clip-rule="evenodd" d="M147.919 99.2747C145.408 99.2991 144.221 99.7237 143.794 102.389C143.36 105.089 143.782 108.125 144.281 110.784C145.044 114.845 146.313 118.824 149.265 121.792C150.821 123.355 152.718 124.601 154.735 125.452C155.807 125.903 156.938 126.23 158.07 126.477C158.4 126.549 161.223 126.946 159.492 126.744C163.533 127.214 167.917 127.195 171.291 124.577C175.032 121.675 177.593 117.084 178.719 112.511C179.378 109.834 180.762 103.434 178.233 101.294C175.335 98.8429 147.919 99.2747 147.919 99.2747Z" fill="url(#paint1_linear_349_1230)"/>
<path fill-rule="evenodd" clip-rule="evenodd" d="M115.249 100.275C117.621 100.297 118.742 100.692 119.146 103.165C119.555 105.67 119.157 108.487 118.685 110.955C117.965 114.723 116.767 118.414 113.978 121.168C112.509 122.619 110.717 123.775 108.811 124.564C107.799 124.983 106.73 125.286 105.661 125.516C105.349 125.583 102.682 125.95 104.318 125.763C100.501 126.199 96.3602 126.182 93.1724 123.752C89.6397 121.06 87.2204 116.8 86.1566 112.556C85.5342 110.073 84.2263 104.134 86.616 102.149C89.3533 99.8745 115.249 100.275 115.249 100.275ZM91.2179 93.4905C85.7775 93.6778 82.1467 94.6338 79.4634 100.069C74.5458 110.03 82.9628 124.969 92.3523 129.039C103.329 133.799 115.592 128.532 121.396 119.006C124.469 113.962 126.023 106.323 125.923 100.504C125.795 93.0765 120.607 92.8705 114.509 93.0338L91.2179 93.4905Z" fill="#252C2F"/>
<path fill-rule="evenodd" clip-rule="evenodd" d="M148.681 100.273C146.309 100.295 145.188 100.689 144.784 103.163C144.374 105.668 144.772 108.485 145.244 110.952C145.965 114.72 147.163 118.412 149.952 121.166C151.421 122.616 153.213 123.772 155.119 124.562C156.131 124.981 157.2 125.284 158.268 125.513C158.581 125.58 161.247 125.948 159.612 125.761C163.429 126.197 167.57 126.179 170.757 123.75C174.29 121.058 176.709 116.798 177.773 112.554C178.396 110.071 179.703 104.132 177.314 102.147C174.577 99.8719 148.681 100.273 148.681 100.273ZM172.712 93.4879C178.152 93.6753 181.783 94.6316 184.466 100.067C189.384 110.028 180.967 124.966 171.577 129.037C160.6 133.797 148.338 128.529 142.534 119.004C139.461 113.96 137.907 106.321 138.007 100.501C138.135 93.0739 143.323 92.8679 149.421 93.0316L172.712 93.4879Z" fill="#252C2F"/>
<path fill-rule="evenodd" clip-rule="evenodd" d="M82.197 97.9267C78.785 98.1184 74.8861 98.1644 71.6901 99.6394C68.3054 101.201 67.7824 104.739 72.0492 105.226C73.971 105.446 75.8949 105.083 77.7872 104.745C79.3369 104.468 81.442 104.558 82.9065 103.966C85.6355 102.862 85.4604 97.7401 82.197 97.9267Z" fill="#252C2F"/>
<path fill-rule="evenodd" clip-rule="evenodd" d="M181.735 97.9267C185.147 98.1184 189.046 98.1644 192.242 99.6394C195.626 101.201 196.15 104.739 191.883 105.226C189.961 105.446 188.037 105.083 186.145 104.745C184.595 104.468 182.49 104.558 181.025 103.966C178.296 102.862 178.472 97.7401 181.735 97.9267Z" fill="#252C2F"/>
<path fill-rule="evenodd" clip-rule="evenodd" d="M142.11 100.013C140.163 97.7126 135.091 96.3846 131.892 96.3846C128.692 96.3846 123.768 97.7126 121.822 100.013C120.841 101.172 120.808 102.724 122.509 103.451C124.626 104.357 126.518 102.714 128.213 101.855C130.381 100.757 133.712 100.877 135.719 101.855C137.427 102.688 139.305 104.357 141.424 103.451C143.124 102.724 143.091 101.172 142.11 100.013Z" fill="#252C2F"/>
</g>
</g>
</g>
</g>
<defs>
<filter id="filter0_d_349_1230" x="69" y="93.0001" width="125.932" height="39.8202" filterUnits="userSpaceOnUse" color-interpolation-filters="sRGB">
<feFlood flood-opacity="0" result="BackgroundImageFix"/>
<feColorMatrix in="SourceAlpha" type="matrix" values="0 0 0 0 0 0 0 0 0 0 0 0 0 0 0 0 0 0 127 0" result="hardAlpha"/>
<feOffset dy="2"/>
<feColorMatrix type="matrix" values="0 0 0 0 0 0 0 0 0 0 0 0 0 0 0 0 0 0 0.1 0"/>
<feBlend mode="normal" in2="BackgroundImageFix" result="effect1_dropShadow_349_1230"/>
<feBlend mode="normal" in="SourceGraphic" in2="effect1_dropShadow_349_1230" result="shape"/>
</filter>
<linearGradient id="paint0_linear_349_1230" x1="1888.27" y1="99.2479" x2="1888.27" y2="2054.55" gradientUnits="userSpaceOnUse">
<stop stop-color="white" stop-opacity="0.5"/>
<stop offset="1" stop-opacity="0.5"/>
</linearGradient>
<linearGradient id="paint1_linear_349_1230" x1="1947.64" y1="99.2454" x2="1947.64" y2="2872.5" gradientUnits="userSpaceOnUse">
<stop stop-color="white" stop-opacity="0.5"/>
<stop offset="0.705058" stop-opacity="0.5"/>
</linearGradient>
<clipPath id="clip0_349_1230">
<rect width="264" height="280" fill="white"/>
</clipPath>
</defs>
</svg>
