<svg width="264" height="280" viewBox="0 0 264 280" fill="none" xmlns="http://www.w3.org/2000/svg">
<g clip-path="url(#clip0_349_1341)">
<path d="M132 280C198.274 280 252 226.274 252 160C252 93.7258 198.274 40 132 40C65.7258 40 12 93.7258 12 160C12 226.274 65.7258 280 132 280Z" fill="#E6E6E6"/>
<mask id="mask0_349_1341" style="mask-type:luminance" maskUnits="userSpaceOnUse" x="12" y="40" width="240" height="240">
<path d="M132 280C198.274 280 252 226.274 252 160C252 93.7258 198.274 40 132 40C65.7258 40 12 93.7258 12 160C12 226.274 65.7258 280 132 280Z" fill="white"/>
</mask>
<g mask="url(#mask0_349_1341)">
<path d="M252 40H12V280H252V40Z" fill="#65C9FF"/>
</g>
<mask id="mask1_349_1341" style="mask-type:luminance" maskUnits="userSpaceOnUse" x="0" y="0" width="264" height="280">
<path d="M12 160C12 226.274 65.7258 280 132 280C198.274 280 252 226.274 252 160H264V0H0V160H12Z" fill="white"/>
</mask>
<g mask="url(#mask1_349_1341)">
<path d="M156 180.611V199H160C199.765 199 232 231.235 232 271V280H32V271C32 231.235 64.2355 199 104 199H108V180.611C90.7626 172.422 78.3722 155.687 76.3051 135.881C70.4803 135.058 66 130.052 66 124V110C66 104.054 70.3246 99.1181 76 98.1659V92C76 61.0721 101.072 36 132 36C162.928 36 188 61.0721 188 92V98.1659C193.675 99.1181 198 104.054 198 110V124C198 130.052 193.52 135.058 187.695 135.881C185.628 155.687 173.237 172.422 156 180.611Z" fill="#D0C6AC"/>
<mask id="mask2_349_1341" style="mask-type:luminance" maskUnits="userSpaceOnUse" x="32" y="36" width="200" height="244">
<path d="M156 180.611V199H160C199.765 199 232 231.235 232 271V280H32V271C32 231.235 64.2355 199 104 199H108V180.611C90.7626 172.422 78.3722 155.687 76.3051 135.881C70.4803 135.058 66 130.052 66 124V110C66 104.054 70.3246 99.1181 76 98.1659V92C76 61.0721 101.072 36 132 36C162.928 36 188 61.0721 188 92V98.1659C193.675 99.1181 198 104.054 198 110V124C198 130.052 193.52 135.058 187.695 135.881C185.628 155.687 173.237 172.422 156 180.611Z" fill="white"/>
</mask>
<g mask="url(#mask2_349_1341)">
<path d="M296 36H32V316H296V36Z" fill="#AE5D29"/>
</g>
<mask id="mask3_349_1341" style="mask-type:luminance" maskUnits="userSpaceOnUse" x="32" y="36" width="200" height="244">
<path d="M156 180.611V199H160C199.765 199 232 231.235 232 271V280H32V271C32 231.235 64.2355 199 104 199H108V180.611C90.7626 172.422 78.3722 155.687 76.3051 135.881C70.4803 135.058 66 130.052 66 124V110C66 104.054 70.3246 99.1181 76 98.1659V92C76 61.0721 101.072 36 132 36C162.928 36 188 61.0721 188 92V98.1659C193.675 99.1181 198 104.054 198 110V124C198 130.052 193.52 135.058 187.695 135.881C185.628 155.687 173.237 172.422 156 180.611Z" fill="white"/>
</mask>
<g mask="url(#mask3_349_1341)">
<path fill-rule="evenodd" clip-rule="evenodd" d="M188 115V138C188 168.928 162.928 194 132 194C101.072 194 76 168.928 76 138V115V130C76 160.928 101.072 186 132 186C162.928 186 188 160.928 188 130V115Z" fill="black" fill-opacity="0.1"/>
</g>
<path fill-rule="evenodd" clip-rule="evenodd" d="M165.96 199.295C202.936 202.325 232 233.294 232 271.052V280H32V271.052C32 232.953 61.592 201.765 99.0454 199.219C99.0153 199.593 99 199.969 99 200.348C99 212.211 113.998 221.828 132.5 221.828C151.002 221.828 166 212.211 166 200.348C166 199.995 165.987 199.644 165.96 199.295Z" fill="#E6E6E6"/>
<mask id="mask4_349_1341" style="mask-type:luminance" maskUnits="userSpaceOnUse" x="32" y="199" width="200" height="81">
<path fill-rule="evenodd" clip-rule="evenodd" d="M165.96 199.295C202.936 202.325 232 233.294 232 271.052V280H32V271.052C32 232.953 61.592 201.765 99.0454 199.219C99.0153 199.593 99 199.969 99 200.348C99 212.211 113.998 221.828 132.5 221.828C151.002 221.828 166 212.211 166 200.348C166 199.995 165.987 199.644 165.96 199.295Z" fill="white"/>
</mask>
<g mask="url(#mask4_349_1341)">
<path d="M264 170H0V280H264V170Z" fill="#262E33"/>
</g>
<mask id="mask5_349_1341" style="mask-type:luminance" maskUnits="userSpaceOnUse" x="32" y="199" width="200" height="81">
<path fill-rule="evenodd" clip-rule="evenodd" d="M165.96 199.295C202.936 202.325 232 233.294 232 271.052V280H32V271.052C32 232.953 61.592 201.765 99.0454 199.219C99.0153 199.593 99 199.969 99 200.348C99 212.211 113.998 221.828 132.5 221.828C151.002 221.828 166 212.211 166 200.348C166 199.995 165.987 199.644 165.96 199.295Z" fill="white"/>
</mask>
<g mask="url(#mask5_349_1341)">
<g opacity="0.6">
<path d="M132.5 228.761C154.39 228.761 172.135 216.712 172.135 201.848C172.135 186.983 154.39 174.934 132.5 174.934C110.61 174.934 92.8647 186.983 92.8647 201.848C92.8647 216.712 110.61 228.761 132.5 228.761Z" fill="black" fill-opacity="0.16"/>
</g>
</g>
<path fill-rule="evenodd" clip-rule="evenodd" d="M100.785 199.122C62.5123 200.804 32 232.365 32 271.052L32 280H101.362C97.9607 267.92 96 253.709 96 238.5C96 224.173 97.74 210.731 100.785 199.122ZM163.638 280H232V271.052C232 232.707 202.025 201.363 164.229 199.174C167.265 210.771 169 224.194 169 238.5C169 253.709 167.039 267.92 163.638 280Z" fill="#3A4C5A"/>
<path fill-rule="evenodd" clip-rule="evenodd" d="M181 256L190.556 248.833C191.999 247.751 193.988 247.768 195.412 248.876L202 254L181 256Z" fill="#E6E6E6"/>
<path fill-rule="evenodd" clip-rule="evenodd" d="M101 198C97 217.333 98.6667 244.667 106 280H90L76 244L82 235L76 229L95 199C97.0277 198.369 99.0277 198.036 101 198Z" fill="#2F4351"/>
<path fill-rule="evenodd" clip-rule="evenodd" d="M163 198C167 217.333 165.333 244.667 158 280H174L188 244L182 235L188 229L169 199C166.972 198.369 164.972 198.036 163 198Z" fill="#2F4351"/>
<g opacity="0.6">
<path fill-rule="evenodd" clip-rule="evenodd" d="M122.191 150.106C122.018 144.996 117.792 140.797 112.294 140C115.66 141.959 117.98 145.495 117.98 149.677C117.98 155.345 112.507 160.245 106.177 160.245C106.118 160.245 106.059 160.245 106 160.244C107.358 160.732 108.84 161 110.392 161C115.714 161 120.213 157.847 121.686 153.514C124.161 155.67 127.863 157.039 132 157.039C136.137 157.039 139.839 155.67 142.314 153.514C143.787 157.847 148.286 161 153.608 161C155.16 161 156.642 160.732 158 160.244C157.941 160.245 157.882 160.245 157.823 160.245C151.493 160.245 146.02 155.345 146.02 149.677C146.02 145.495 148.34 141.959 151.706 140C146.208 140.797 141.982 144.996 141.809 150.106C139.245 151.842 135.795 152.906 132 152.906C128.205 152.906 124.755 151.842 122.191 150.106Z" fill="black" fill-opacity="0.6"/>
</g>
<path d="M95 158C99.9706 158 104 153.971 104 149C104 144.029 99.9706 140 95 140C90.0294 140 86 144.029 86 149C86 153.971 90.0294 158 95 158Z" fill="#FF4646" fill-opacity="0.2"/>
<path d="M169 158C173.971 158 178 153.971 178 149C178 144.029 173.971 140 169 140C164.029 140 160 144.029 160 149C160 153.971 164.029 158 169 158Z" fill="#FF4646" fill-opacity="0.2"/>
<path fill-rule="evenodd" clip-rule="evenodd" d="M120 130C120 134.418 125.373 138 132 138C138.627 138 144 134.418 144 130" fill="black" fill-opacity="0.16"/>
<path d="M105 115.2L110.5 120.7C111 121.1 111.7 121.1 112.1 120.7L113.7 119.1C114.1 118.6 114.1 117.9 113.7 117.5L108.2 112L113.7 106.5C114.1 106 114.1 105.3 113.7 104.9L112.1 103.3C111.6 102.9 110.9 102.9 110.5 103.3L105 108.8L99.5 103.3C99 102.9 98.3 102.9 97.9 103.3L96.3 104.9C95.9 105.3 95.9 106 96.3 106.5L101.8 112L96.3 117.5C95.9 118 95.9 118.7 96.3 119.1L97.9 120.7C98.4 121.1 99.1 121.1 99.5 120.7L105 115.2Z" fill="black" fill-opacity="0.6"/>
<path d="M159 115.2L164.5 120.7C165 121.1 165.7 121.1 166.1 120.7L167.7 119.1C168.1 118.6 168.1 117.9 167.7 117.5L162.2 112L167.7 106.5C168.1 106 168.1 105.3 167.7 104.9L166.1 103.3C165.6 102.9 164.9 102.9 164.5 103.3L159 108.8L153.5 103.3C153 102.9 152.3 102.9 151.9 103.3L150.3 104.9C149.9 105.3 149.9 106 150.3 106.5L155.8 112L150.3 117.5C149.9 118 149.9 118.7 150.3 119.1L151.9 120.7C152.4 121.1 153.1 121.1 153.5 120.7L159 115.2Z" fill="black" fill-opacity="0.6"/>
<path d="M91.5913 96.162C96.0874 89.8356 105.603 86.6535 115.347 89.7958C116.399 90.1348 117.526 89.5574 117.865 88.5061C118.204 87.4548 117.626 86.3278 116.575 85.9888C105.166 82.3099 93.8357 86.0989 88.3309 93.8448C87.691 94.7452 87.9022 95.9938 88.8025 96.6336C89.7029 97.2735 90.9515 97.0623 91.5913 96.162Z" fill="black" fill-opacity="0.6"/>
<path d="M172.377 103.158C168.462 97.6491 157.73 94.5601 148.485 96.8305C147.412 97.0939 146.329 96.4378 146.065 95.3651C145.802 94.2924 146.458 93.2093 147.531 92.9459C158.267 90.3093 170.696 93.8863 175.638 100.841C176.278 101.741 176.067 102.99 175.166 103.63C174.266 104.269 173.017 104.058 172.377 103.158Z" fill="black" fill-opacity="0.6"/>
<mask id="mask6_349_1341" style="mask-type:luminance" maskUnits="userSpaceOnUse" x="0" y="0" width="264" height="280">
<path d="M264 0H0V280H264V0Z" fill="white"/>
</mask>
<g mask="url(#mask6_349_1341)">
<path fill-rule="evenodd" clip-rule="evenodd" d="M66.4613 106.694C66.1609 107.744 66 108.853 66 110V123C66 129.019 70.4309 134.002 76.2086 134.867C77.9518 155.115 90.4692 172.283 108 180.611V199H104C88.381 199 73.9236 203.973 62.125 212.423C59.4527 204.777 58 196.558 58 188L58 92C58 51.1309 91.1309 18 132 18C172.869 18 206 51.1309 206 92V188C206 196.558 204.547 204.777 201.875 212.423C190.076 203.973 175.619 199 160 199H156V180.611C173.531 172.283 186.048 155.115 187.791 134.867C193.569 134.002 198 129.019 198 123V110C198 108.311 197.651 106.703 197.021 105.245C184.065 103.057 169.479 97.7686 155.149 89.4953C143.017 82.4911 132.646 74.2579 124.67 65.7522C128.096 73.6604 132.246 80.588 137.118 86.535C124.443 81.0121 115.813 72.1324 111.227 59.8961C110.849 60.818 110.456 61.7389 110.046 62.6582C100.207 84.7576 83.5911 100.682 66.4613 106.694Z" fill="#ECC797"/>
<mask id="mask7_349_1341" style="mask-type:luminance" maskUnits="userSpaceOnUse" x="58" y="18" width="148" height="195">
<path fill-rule="evenodd" clip-rule="evenodd" d="M66.4613 106.694C66.1609 107.744 66 108.853 66 110V123C66 129.019 70.4309 134.002 76.2086 134.867C77.9518 155.115 90.4692 172.283 108 180.611V199H104C88.381 199 73.9236 203.973 62.125 212.423C59.4527 204.777 58 196.558 58 188L58 92C58 51.1309 91.1309 18 132 18C172.869 18 206 51.1309 206 92V188C206 196.558 204.547 204.777 201.875 212.423C190.076 203.973 175.619 199 160 199H156V180.611C173.531 172.283 186.048 155.115 187.791 134.867C193.569 134.002 198 129.019 198 123V110C198 108.311 197.651 106.703 197.021 105.245C184.065 103.057 169.479 97.7686 155.149 89.4953C143.017 82.4911 132.646 74.2579 124.67 65.7522C128.096 73.6604 132.246 80.588 137.118 86.535C124.443 81.0121 115.813 72.1324 111.227 59.8961C110.849 60.818 110.456 61.7389 110.046 62.6582C100.207 84.7576 83.5911 100.682 66.4613 106.694Z" fill="white"/>
</mask>
<g mask="url(#mask7_349_1341)">
<path d="M322 18H58V298H322V18Z" fill="#4A312C"/>
</g>
<path fill-rule="evenodd" clip-rule="evenodd" d="M58 102.419V108.838C77.9454 105.751 98.5896 88.3903 110.046 62.6583C110.456 61.7389 110.849 60.8181 111.227 59.8961C115.232 70.5822 122.321 78.7083 132.496 84.2743C133.957 86.4698 135.497 88.5567 137.118 90.5351C124.443 85.0121 115.813 76.1325 111.227 63.8961C110.849 64.8181 110.456 65.739 110.046 66.6583C98.5896 92.3903 77.9454 109.751 58 112.838V102.419ZM206 101.14V110.281C191.047 109.413 172.901 103.745 155.149 93.4954C144.876 87.5644 135.866 80.7524 128.503 73.6398C127.138 71.129 125.86 68.4998 124.67 65.7522C132.646 74.258 143.017 82.4911 155.149 89.4954C172.901 99.7447 191.047 105.413 206 106.281V101.14Z" fill="black" fill-opacity="0.16"/>
<path fill-rule="evenodd" clip-rule="evenodd" d="M113.18 149.737C115.363 148.105 128.407 147.479 130.758 146.089C131.492 145.655 132.061 145.216 132.5 144.78C132.939 145.216 133.509 145.655 134.242 146.089C136.593 147.479 149.637 148.105 151.82 149.737C154.03 151.391 155.644 155.185 155.467 158.151C155.255 161.71 151.361 170.203 141.672 171.181C139.558 168.828 136.237 167.31 132.5 167.31C128.763 167.31 125.442 168.828 123.328 171.181C113.639 170.203 109.745 161.71 109.533 158.151C109.357 155.185 110.97 151.391 113.18 149.737ZM151.142 166.906C151.143 166.906 151.145 166.905 151.146 166.905C151.144 166.905 151.143 166.906 151.142 166.906ZM113.845 166.901C113.849 166.903 113.857 166.906 113.862 166.908C113.857 166.906 113.851 166.903 113.845 166.901ZM192.863 127.985C192.474 122.03 191.278 116.152 190.234 110.286C189.953 108.707 188.424 98 187.735 98C187.502 107.109 186.702 116.08 185.67 125.139C185.361 127.848 185.038 130.556 184.825 133.274C184.654 135.47 184.96 138.122 184.428 140.246C183.749 142.952 180.348 145.478 177.703 146.411C171.103 148.737 165.598 139.108 159.961 136.291C152.643 132.635 140.064 131.764 132.582 136.53C124.936 131.764 112.357 132.635 105.039 136.291C99.4024 139.108 93.897 148.737 87.2972 146.411C84.6521 145.478 81.2504 142.952 80.5724 140.246C80.0403 138.122 80.3463 135.47 80.175 133.274C79.9624 130.556 79.6389 127.848 79.3302 125.139C78.2983 116.08 77.4975 107.109 77.2654 98C76.5762 98 75.0468 108.707 74.7659 110.286C73.7221 116.152 72.5258 122.03 72.1376 127.985C71.7385 134.105 72.2149 140.167 73.4696 146.163C74.0687 149.028 74.7685 151.876 75.5189 154.704C76.3527 157.847 75.199 163.966 75.5723 167.192C76.2788 173.296 79.1543 185.2 82.3833 190.451C83.9441 192.989 85.7735 194.574 87.8165 196.619C89.7826 198.588 90.6039 201.64 92.7261 203.737C96.682 207.645 102.446 209.971 108.366 210.543C113.677 215.05 122.506 218 132.5 218C142.495 218 151.323 215.05 156.635 210.543C162.554 209.971 168.318 207.645 172.274 203.737C174.396 201.64 175.217 198.588 177.184 196.619C179.226 194.574 181.056 192.989 182.617 190.451C185.846 185.2 188.721 173.296 189.428 167.192C189.801 163.966 188.647 157.847 189.481 154.704C190.232 151.876 190.931 149.028 191.531 146.163C192.785 140.167 193.261 134.105 192.863 127.985Z" fill="#5E7AA9"/>
<mask id="mask8_349_1341" style="mask-type:luminance" maskUnits="userSpaceOnUse" x="72" y="98" width="121" height="120">
<path fill-rule="evenodd" clip-rule="evenodd" d="M113.18 149.737C115.363 148.105 128.407 147.479 130.758 146.089C131.492 145.655 132.061 145.216 132.5 144.78C132.939 145.216 133.509 145.655 134.242 146.089C136.593 147.479 149.637 148.105 151.82 149.737C154.03 151.391 155.644 155.185 155.467 158.151C155.255 161.71 151.361 170.203 141.672 171.181C139.558 168.828 136.237 167.31 132.5 167.31C128.763 167.31 125.442 168.828 123.328 171.181C113.639 170.203 109.745 161.71 109.533 158.151C109.357 155.185 110.97 151.391 113.18 149.737ZM151.142 166.906C151.143 166.906 151.145 166.905 151.146 166.905C151.144 166.905 151.143 166.906 151.142 166.906ZM113.845 166.901C113.849 166.903 113.857 166.906 113.862 166.908C113.857 166.906 113.851 166.903 113.845 166.901ZM192.863 127.985C192.474 122.03 191.278 116.152 190.234 110.286C189.953 108.707 188.424 98 187.735 98C187.502 107.109 186.702 116.08 185.67 125.139C185.361 127.848 185.038 130.556 184.825 133.274C184.654 135.47 184.96 138.122 184.428 140.246C183.749 142.952 180.348 145.478 177.703 146.411C171.103 148.737 165.598 139.108 159.961 136.291C152.643 132.635 140.064 131.764 132.582 136.53C124.936 131.764 112.357 132.635 105.039 136.291C99.4024 139.108 93.897 148.737 87.2972 146.411C84.6521 145.478 81.2504 142.952 80.5724 140.246C80.0403 138.122 80.3463 135.47 80.175 133.274C79.9624 130.556 79.6389 127.848 79.3302 125.139C78.2983 116.08 77.4975 107.109 77.2654 98C76.5762 98 75.0468 108.707 74.7659 110.286C73.7221 116.152 72.5258 122.03 72.1376 127.985C71.7385 134.105 72.2149 140.167 73.4696 146.163C74.0687 149.028 74.7685 151.876 75.5189 154.704C76.3527 157.847 75.199 163.966 75.5723 167.192C76.2788 173.296 79.1543 185.2 82.3833 190.451C83.9441 192.989 85.7735 194.574 87.8165 196.619C89.7826 198.588 90.6039 201.64 92.7261 203.737C96.682 207.645 102.446 209.971 108.366 210.543C113.677 215.05 122.506 218 132.5 218C142.495 218 151.323 215.05 156.635 210.543C162.554 209.971 168.318 207.645 172.274 203.737C174.396 201.64 175.217 198.588 177.184 196.619C179.226 194.574 181.056 192.989 182.617 190.451C185.846 185.2 188.721 173.296 189.428 167.192C189.801 163.966 188.647 157.847 189.481 154.704C190.232 151.876 190.931 149.028 191.531 146.163C192.785 140.167 193.261 134.105 192.863 127.985Z" fill="white"/>
</mask>
<g mask="url(#mask8_349_1341)">
<path d="M280 72H16V316H280V72Z" fill="#4A312C"/>
</g>
<g filter="url(#filter0_d_349_1341)">
<path fill-rule="evenodd" clip-rule="evenodd" d="M116.011 99.2772C118.521 99.3013 119.708 99.7263 120.136 102.392C120.57 105.092 120.148 108.127 119.648 110.787C118.886 114.848 117.617 118.826 114.665 121.794C113.109 123.358 111.212 124.603 109.194 125.454C108.123 125.906 106.991 126.232 105.86 126.48C105.529 126.552 102.706 126.948 104.438 126.747C100.397 127.216 96.0132 127.197 92.6384 124.579C88.8983 121.678 86.337 117.086 85.2108 112.513C84.5518 109.837 83.1673 103.437 85.6971 101.297C88.5951 98.8454 116.011 99.2772 116.011 99.2772Z" fill="black" fill-opacity="0.7"/>
<path style="mix-blend-mode:screen" fill-rule="evenodd" clip-rule="evenodd" d="M116.011 99.2772C118.521 99.3013 119.708 99.7263 120.136 102.392C120.57 105.092 120.148 108.127 119.648 110.787C118.886 114.848 117.617 118.826 114.665 121.794C113.109 123.358 111.212 124.603 109.194 125.454C108.123 125.906 106.991 126.232 105.86 126.48C105.529 126.552 102.706 126.948 104.438 126.747C100.397 127.216 96.0132 127.197 92.6384 124.579C88.8983 121.678 86.337 117.086 85.2108 112.513C84.5518 109.837 83.1673 103.437 85.6971 101.297C88.5951 98.8454 116.011 99.2772 116.011 99.2772Z" fill="url(#paint0_linear_349_1341)"/>
<path fill-rule="evenodd" clip-rule="evenodd" d="M147.919 99.2747C145.408 99.2991 144.221 99.7237 143.794 102.389C143.36 105.089 143.782 108.125 144.281 110.784C145.044 114.845 146.313 118.824 149.265 121.792C150.821 123.355 152.718 124.601 154.735 125.452C155.807 125.903 156.938 126.23 158.07 126.477C158.4 126.549 161.223 126.946 159.492 126.744C163.533 127.214 167.917 127.195 171.291 124.577C175.032 121.675 177.593 117.084 178.719 112.511C179.378 109.834 180.762 103.434 178.233 101.294C175.335 98.8429 147.919 99.2747 147.919 99.2747Z" fill="black" fill-opacity="0.7"/>
<path style="mix-blend-mode:screen" fill-rule="evenodd" clip-rule="evenodd" d="M147.919 99.2747C145.408 99.2991 144.221 99.7237 143.794 102.389C143.36 105.089 143.782 108.125 144.281 110.784C145.044 114.845 146.313 118.824 149.265 121.792C150.821 123.355 152.718 124.601 154.735 125.452C155.807 125.903 156.938 126.23 158.07 126.477C158.4 126.549 161.223 126.946 159.492 126.744C163.533 127.214 167.917 127.195 171.291 124.577C175.032 121.675 177.593 117.084 178.719 112.511C179.378 109.834 180.762 103.434 178.233 101.294C175.335 98.8429 147.919 99.2747 147.919 99.2747Z" fill="url(#paint1_linear_349_1341)"/>
<path fill-rule="evenodd" clip-rule="evenodd" d="M115.249 100.275C117.621 100.297 118.742 100.692 119.146 103.165C119.555 105.67 119.157 108.487 118.685 110.955C117.965 114.723 116.767 118.414 113.978 121.168C112.509 122.619 110.717 123.775 108.811 124.564C107.799 124.983 106.73 125.286 105.661 125.516C105.349 125.583 102.682 125.95 104.318 125.763C100.501 126.199 96.3602 126.182 93.1724 123.752C89.6397 121.06 87.2204 116.8 86.1566 112.556C85.5342 110.073 84.2263 104.134 86.616 102.149C89.3533 99.8745 115.249 100.275 115.249 100.275ZM91.2179 93.4905C85.7775 93.6778 82.1467 94.6338 79.4634 100.069C74.5458 110.03 82.9628 124.969 92.3523 129.039C103.329 133.799 115.592 128.532 121.396 119.006C124.469 113.962 126.023 106.323 125.923 100.504C125.795 93.0765 120.607 92.8705 114.509 93.0338L91.2179 93.4905Z" fill="#252C2F"/>
<path fill-rule="evenodd" clip-rule="evenodd" d="M148.681 100.273C146.309 100.295 145.188 100.689 144.784 103.163C144.374 105.668 144.772 108.485 145.244 110.952C145.965 114.72 147.163 118.412 149.952 121.166C151.421 122.616 153.213 123.772 155.119 124.562C156.131 124.981 157.2 125.284 158.268 125.513C158.581 125.58 161.247 125.948 159.612 125.761C163.429 126.197 167.57 126.179 170.757 123.75C174.29 121.058 176.709 116.798 177.773 112.554C178.396 110.071 179.703 104.132 177.314 102.147C174.577 99.8719 148.681 100.273 148.681 100.273ZM172.712 93.4879C178.152 93.6753 181.783 94.6316 184.466 100.067C189.384 110.028 180.967 124.966 171.577 129.037C160.6 133.797 148.338 128.529 142.534 119.004C139.461 113.96 137.907 106.321 138.007 100.501C138.135 93.0739 143.323 92.8679 149.421 93.0316L172.712 93.4879Z" fill="#252C2F"/>
<path fill-rule="evenodd" clip-rule="evenodd" d="M82.197 97.9267C78.785 98.1184 74.8861 98.1644 71.6901 99.6394C68.3054 101.201 67.7824 104.739 72.0492 105.226C73.971 105.446 75.8949 105.083 77.7872 104.745C79.3369 104.468 81.442 104.558 82.9065 103.966C85.6355 102.862 85.4604 97.7401 82.197 97.9267Z" fill="#252C2F"/>
<path fill-rule="evenodd" clip-rule="evenodd" d="M181.735 97.9267C185.147 98.1184 189.046 98.1644 192.242 99.6394C195.626 101.201 196.15 104.739 191.883 105.226C189.961 105.446 188.037 105.083 186.145 104.745C184.595 104.468 182.49 104.558 181.025 103.966C178.296 102.862 178.472 97.7401 181.735 97.9267Z" fill="#252C2F"/>
<path fill-rule="evenodd" clip-rule="evenodd" d="M142.11 100.013C140.163 97.7126 135.091 96.3846 131.892 96.3846C128.692 96.3846 123.768 97.7126 121.822 100.013C120.841 101.172 120.808 102.724 122.509 103.451C124.626 104.357 126.518 102.714 128.213 101.855C130.381 100.757 133.712 100.877 135.719 101.855C137.427 102.688 139.305 104.357 141.424 103.451C143.124 102.724 143.091 101.172 142.11 100.013Z" fill="#252C2F"/>
</g>
</g>
</g>
</g>
<defs>
<filter id="filter0_d_349_1341" x="69" y="93.0001" width="125.932" height="39.8202" filterUnits="userSpaceOnUse" color-interpolation-filters="sRGB">
<feFlood flood-opacity="0" result="BackgroundImageFix"/>
<feColorMatrix in="SourceAlpha" type="matrix" values="0 0 0 0 0 0 0 0 0 0 0 0 0 0 0 0 0 0 127 0" result="hardAlpha"/>
<feOffset dy="2"/>
<feColorMatrix type="matrix" values="0 0 0 0 0 0 0 0 0 0 0 0 0 0 0 0 0 0 0.1 0"/>
<feBlend mode="normal" in2="BackgroundImageFix" result="effect1_dropShadow_349_1341"/>
<feBlend mode="normal" in="SourceGraphic" in2="effect1_dropShadow_349_1341" result="shape"/>
</filter>
<linearGradient id="paint0_linear_349_1341" x1="1888.27" y1="99.2479" x2="1888.27" y2="2054.55" gradientUnits="userSpaceOnUse">
<stop stop-color="white" stop-opacity="0.5"/>
<stop offset="1" stop-opacity="0.5"/>
</linearGradient>
<linearGradient id="paint1_linear_349_1341" x1="1947.64" y1="99.2454" x2="1947.64" y2="2872.5" gradientUnits="userSpaceOnUse">
<stop stop-color="white" stop-opacity="0.5"/>
<stop offset="0.705058" stop-opacity="0.5"/>
</linearGradient>
<clipPath id="clip0_349_1341">
<rect width="264" height="280" fill="white"/>
</clipPath>
</defs>
</svg>
