<svg width="264" height="280" viewBox="0 0 264 280" fill="none" xmlns="http://www.w3.org/2000/svg">
<g clip-path="url(#clip0_349_1448)">
<path d="M132 280C198.274 280 252 226.274 252 160C252 93.7258 198.274 40 132 40C65.7258 40 12 93.7258 12 160C12 226.274 65.7258 280 132 280Z" fill="#E6E6E6"/>
<mask id="mask0_349_1448" style="mask-type:luminance" maskUnits="userSpaceOnUse" x="12" y="40" width="240" height="240">
<path d="M132 280C198.274 280 252 226.274 252 160C252 93.7258 198.274 40 132 40C65.7258 40 12 93.7258 12 160C12 226.274 65.7258 280 132 280Z" fill="white"/>
</mask>
<g mask="url(#mask0_349_1448)">
<path d="M252 40H12V280H252V40Z" fill="#65C9FF"/>
</g>
<mask id="mask1_349_1448" style="mask-type:luminance" maskUnits="userSpaceOnUse" x="0" y="0" width="264" height="280">
<path d="M12 160C12 226.274 65.7258 280 132 280C198.274 280 252 226.274 252 160H264V0H0V160H12Z" fill="white"/>
</mask>
<g mask="url(#mask1_349_1448)">
<path d="M156 180.611V199H160C199.765 199 232 231.235 232 271V280H32V271C32 231.235 64.2355 199 104 199H108V180.611C90.7626 172.422 78.3722 155.687 76.3051 135.881C70.4803 135.058 66 130.052 66 124V110C66 104.054 70.3246 99.1181 76 98.1659V92C76 61.0721 101.072 36 132 36C162.928 36 188 61.0721 188 92V98.1659C193.675 99.1181 198 104.054 198 110V124C198 130.052 193.52 135.058 187.695 135.881C185.628 155.687 173.237 172.422 156 180.611Z" fill="#D0C6AC"/>
<mask id="mask2_349_1448" style="mask-type:luminance" maskUnits="userSpaceOnUse" x="32" y="36" width="200" height="244">
<path d="M156 180.611V199H160C199.765 199 232 231.235 232 271V280H32V271C32 231.235 64.2355 199 104 199H108V180.611C90.7626 172.422 78.3722 155.687 76.3051 135.881C70.4803 135.058 66 130.052 66 124V110C66 104.054 70.3246 99.1181 76 98.1659V92C76 61.0721 101.072 36 132 36C162.928 36 188 61.0721 188 92V98.1659C193.675 99.1181 198 104.054 198 110V124C198 130.052 193.52 135.058 187.695 135.881C185.628 155.687 173.237 172.422 156 180.611Z" fill="white"/>
</mask>
<g mask="url(#mask2_349_1448)">
<path d="M296 36H32V316H296V36Z" fill="#614335"/>
</g>
<mask id="mask3_349_1448" style="mask-type:luminance" maskUnits="userSpaceOnUse" x="32" y="36" width="200" height="244">
<path d="M156 180.611V199H160C199.765 199 232 231.235 232 271V280H32V271C32 231.235 64.2355 199 104 199H108V180.611C90.7626 172.422 78.3722 155.687 76.3051 135.881C70.4803 135.058 66 130.052 66 124V110C66 104.054 70.3246 99.1181 76 98.1659V92C76 61.0721 101.072 36 132 36C162.928 36 188 61.0721 188 92V98.1659C193.675 99.1181 198 104.054 198 110V124C198 130.052 193.52 135.058 187.695 135.881C185.628 155.687 173.237 172.422 156 180.611Z" fill="white"/>
</mask>
<g mask="url(#mask3_349_1448)">
<path fill-rule="evenodd" clip-rule="evenodd" d="M188 115V138C188 168.928 162.928 194 132 194C101.072 194 76 168.928 76 138V115V130C76 160.928 101.072 186 132 186C162.928 186 188 160.928 188 130V115Z" fill="black" fill-opacity="0.1"/>
</g>
<path fill-rule="evenodd" clip-rule="evenodd" d="M108 183.071C90.0813 185.076 76.2798 190.552 76.0042 204.645C50.1464 215.568 32 241.165 32 270.999V280H232V270.999C232 241.165 213.854 215.568 187.996 204.645C187.72 190.552 173.919 185.076 156 183.071V202C156 215.255 145.255 226 132 226C118.745 226 108 215.255 108 202V183.071Z" fill="#B7C1DB"/>
<mask id="mask4_349_1448" style="mask-type:luminance" maskUnits="userSpaceOnUse" x="32" y="183" width="200" height="97">
<path fill-rule="evenodd" clip-rule="evenodd" d="M108 183.071C90.0813 185.076 76.2798 190.552 76.0042 204.645C50.1464 215.568 32 241.165 32 270.999V280H232V270.999C232 241.165 213.854 215.568 187.996 204.645C187.72 190.552 173.919 185.076 156 183.071V202C156 215.255 145.255 226 132 226C118.745 226 108 215.255 108 202V183.071Z" fill="white"/>
</mask>
<g mask="url(#mask4_349_1448)">
<path d="M264 170H0V280H264V170Z" fill="#E6E6E6"/>
</g>
<mask id="mask5_349_1448" style="mask-type:luminance" maskUnits="userSpaceOnUse" x="32" y="183" width="200" height="97">
<path fill-rule="evenodd" clip-rule="evenodd" d="M108 183.071C90.0813 185.076 76.2798 190.552 76.0042 204.645C50.1464 215.568 32 241.165 32 270.999V280H232V270.999C232 241.165 213.854 215.568 187.996 204.645C187.72 190.552 173.919 185.076 156 183.071V202C156 215.255 145.255 226 132 226C118.745 226 108 215.255 108 202V183.071Z" fill="white"/>
</mask>
<g mask="url(#mask5_349_1448)">
<path fill-rule="evenodd" clip-rule="evenodd" d="M102 231.739V280H95V228.15C97.2038 229.46 99.5468 230.661 102 231.739ZM169 228.15V268.5C169 270.433 167.433 272 165.5 272C163.567 272 162 270.433 162 268.5V231.739C164.453 230.661 166.796 229.46 169 228.15Z" fill="#F4F4F4"/>
</g>
<mask id="mask6_349_1448" style="mask-type:luminance" maskUnits="userSpaceOnUse" x="32" y="183" width="200" height="97">
<path fill-rule="evenodd" clip-rule="evenodd" d="M108 183.071C90.0813 185.076 76.2798 190.552 76.0042 204.645C50.1464 215.568 32 241.165 32 270.999V280H232V270.999C232 241.165 213.854 215.568 187.996 204.645C187.72 190.552 173.919 185.076 156 183.071V202C156 215.255 145.255 226 132 226C118.745 226 108 215.255 108 202V183.071Z" fill="white"/>
</mask>
<g mask="url(#mask6_349_1448)">
<path fill-rule="evenodd" clip-rule="evenodd" d="M90.9601 182.724C75.9093 185.571 65.5 191.243 65.5 202.308C65.5 222.02 98.5377 238 132 238C165.462 238 198.5 222.02 198.5 202.308C198.5 191.243 188.091 185.571 173.04 182.724C182.125 186.074 188 191.706 188 201.077C188 221.469 160.179 238 132 238C103.821 238 76 221.469 76 201.077C76 191.706 81.8751 186.074 90.9601 182.724Z" fill="black" fill-opacity="0.16"/>
</g>
<path fill-rule="evenodd" clip-rule="evenodd" d="M118 149C118 156.732 124.268 163 132 163C139.732 163 146 156.732 146 149" fill="black" fill-opacity="0.7"/>
<path fill-rule="evenodd" clip-rule="evenodd" d="M120 130C120 134.418 125.373 138 132 138C138.627 138 144 134.418 144 130" fill="black" fill-opacity="0.16"/>
<path d="M106 118C109.314 118 112 115.314 112 112C112 108.686 109.314 106 106 106C102.686 106 100 108.686 100 112C100 115.314 102.686 118 106 118Z" fill="black" fill-opacity="0.6"/>
<path fill-rule="evenodd" clip-rule="evenodd" d="M146.61 114.955C148.187 111.037 152.149 108.105 156.971 107.768C161.775 107.432 166.094 109.766 168.209 113.404C168.837 114.485 168.119 115.456 167.282 114.832C164.69 112.901 161.126 111.831 157.274 112.101C153.543 112.362 150.253 113.83 147.962 115.988C147.124 116.777 146.148 116.101 146.61 114.955Z" fill="black" fill-opacity="0.6"/>
<path d="M91.6304 99.1586C95.5453 93.6499 106.278 90.5608 115.523 92.8312C116.596 93.0946 117.679 92.4386 117.942 91.3659C118.206 90.2932 117.55 89.21 116.477 88.9466C105.741 86.31 93.3123 89.887 88.3699 96.8414C87.73 97.7418 87.9412 98.9904 88.8416 99.6303C89.7419 100.27 90.9905 100.059 91.6304 99.1586Z" fill="black" fill-opacity="0.6"/>
<path d="M172.37 99.1586C168.455 93.6499 157.722 90.5608 148.477 92.8312C147.405 93.0946 146.321 92.4386 146.058 91.3659C145.795 90.2932 146.451 89.21 147.523 88.9466C158.26 86.31 170.688 89.887 175.631 96.8414C176.27 97.7418 176.059 98.9904 175.159 99.6303C174.259 100.27 173.01 100.059 172.37 99.1586Z" fill="black" fill-opacity="0.6"/>
<mask id="mask7_349_1448" style="mask-type:luminance" maskUnits="userSpaceOnUse" x="0" y="0" width="264" height="280">
<path d="M264 0H0V280H264V0Z" fill="white"/>
</mask>
<g mask="url(#mask7_349_1448)">
<path fill-rule="evenodd" clip-rule="evenodd" d="M66 109.778C75.0375 108.717 87.9218 89.3309 93.3694 69.3345C104.486 71.0717 117.905 72.0868 132.354 72.0868C146.513 72.0868 159.683 71.112 170.668 69.438C176.13 89.3914 188.978 108.707 198 109.777V89C198 66.116 186.353 45.9521 168.664 34.1125C168.136 36.5946 167.785 39.3353 167.624 42.2973C157.285 40.8927 145.228 40.0868 132.354 40.0868C119.19 40.0868 106.882 40.9293 96.3896 42.3928C96.2316 39.3922 95.8778 36.6176 95.3432 34.1074C77.6499 45.9464 66 66.1127 66 89V109.778Z" fill="black" fill-opacity="0.16"/>
<path fill-rule="evenodd" clip-rule="evenodd" d="M196.666 104.495C197.518 106.144 198 108.016 198 110V123C198 129.019 193.569 134.002 187.791 134.867C186.048 155.115 173.531 172.283 156 180.611V190.054C159.832 191.95 164.059 193 168.5 193C176.121 193 183.111 189.907 188.559 184.758C190.02 184.918 191.502 185 193 185C211.39 185 227.26 172.683 234.622 154.884C240.9 149.814 245 141.454 245 132C245 130.215 244.854 128.469 244.574 126.777C246.786 120.339 248 113.331 248 106C248 93.1345 244.261 81.2645 237.954 71.7251C237.985 71.1545 238 70.5793 238 70C238 59.0434 232.493 49.5566 224.471 44.9571C217.16 27.3691 201.741 14.9906 183.697 14.0567C179.274 9.07458 173.201 6 166.5 6C165.549 6 164.611 6.06191 163.688 6.18239C153.91 2.1964 143.211 0 132 0C120.789 0 110.09 2.1964 100.312 6.18239C99.3891 6.06191 98.4509 6 97.5 6C90.799 6 84.7263 9.07458 80.303 14.0567C62.2593 14.9906 46.8398 27.3691 39.5294 44.9571C31.5066 49.5566 26 59.0434 26 70C26 70.5793 26.0154 71.1545 26.0457 71.7251C19.739 81.2645 16 93.1345 16 106C16 113.331 17.2141 120.339 19.4255 126.777C19.1462 128.469 19 130.215 19 132C19 141.454 23.0999 149.814 29.3785 154.884C36.7403 172.683 52.6099 185 71 185C72.4981 185 73.9795 184.918 75.441 184.758C80.8892 189.907 87.8785 193 95.5 193C99.9413 193 104.168 191.95 108 190.054V180.611C90.4692 172.283 77.9518 155.115 76.2086 134.867C70.4309 134.002 66 129.019 66 123V110C66 108.017 66.481 106.146 67.3326 104.498C70.0345 103.696 73.0103 101.445 75.9906 98.1675C75.9937 98.167 75.9969 98.1664 76 98.1659V98.1571C82.8664 90.6014 89.7549 77.6023 93.3694 64.3345C104.486 66.0718 117.905 67.0868 132.354 67.0868C146.513 67.0868 159.683 66.112 170.668 64.438C174.288 77.6643 181.154 90.6101 188 98.1476V98.1659C188.007 98.167 188.013 98.1681 188.02 98.1692C190.996 101.441 193.967 103.691 196.666 104.495Z" fill="#314756"/>
<mask id="mask8_349_1448" style="mask-type:luminance" maskUnits="userSpaceOnUse" x="16" y="0" width="232" height="193">
<path fill-rule="evenodd" clip-rule="evenodd" d="M196.666 104.495C197.518 106.144 198 108.016 198 110V123C198 129.019 193.569 134.002 187.791 134.867C186.048 155.115 173.531 172.283 156 180.611V190.054C159.832 191.95 164.059 193 168.5 193C176.121 193 183.111 189.907 188.559 184.758C190.02 184.918 191.502 185 193 185C211.39 185 227.26 172.683 234.622 154.884C240.9 149.814 245 141.454 245 132C245 130.215 244.854 128.469 244.574 126.777C246.786 120.339 248 113.331 248 106C248 93.1345 244.261 81.2645 237.954 71.7251C237.985 71.1545 238 70.5793 238 70C238 59.0434 232.493 49.5566 224.471 44.9571C217.16 27.3691 201.741 14.9906 183.697 14.0567C179.274 9.07458 173.201 6 166.5 6C165.549 6 164.611 6.06191 163.688 6.18239C153.91 2.1964 143.211 0 132 0C120.789 0 110.09 2.1964 100.312 6.18239C99.3891 6.06191 98.4509 6 97.5 6C90.799 6 84.7263 9.07458 80.303 14.0567C62.2593 14.9906 46.8398 27.3691 39.5294 44.9571C31.5066 49.5566 26 59.0434 26 70C26 70.5793 26.0154 71.1545 26.0457 71.7251C19.739 81.2645 16 93.1345 16 106C16 113.331 17.2141 120.339 19.4255 126.777C19.1462 128.469 19 130.215 19 132C19 141.454 23.0999 149.814 29.3785 154.884C36.7403 172.683 52.6099 185 71 185C72.4981 185 73.9795 184.918 75.441 184.758C80.8892 189.907 87.8785 193 95.5 193C99.9413 193 104.168 191.95 108 190.054V180.611C90.4692 172.283 77.9518 155.115 76.2086 134.867C70.4309 134.002 66 129.019 66 123V110C66 108.017 66.481 106.146 67.3326 104.498C70.0345 103.696 73.0103 101.445 75.9906 98.1675C75.9937 98.167 75.9969 98.1664 76 98.1659V98.1571C82.8664 90.6014 89.7549 77.6023 93.3694 64.3345C104.486 66.0718 117.905 67.0868 132.354 67.0868C146.513 67.0868 159.683 66.112 170.668 64.438C174.288 77.6643 181.154 90.6101 188 98.1476V98.1659C188.007 98.167 188.013 98.1681 188.02 98.1692C190.996 101.441 193.967 103.691 196.666 104.495Z" fill="white"/>
</mask>
<g mask="url(#mask8_349_1448)">
<path d="M280 0H16V280H280V0Z" fill="#B58143"/>
</g>
</g>
</g>
</g>
<defs>
<clipPath id="clip0_349_1448">
<rect width="264" height="280" fill="white"/>
</clipPath>
</defs>
</svg>
