<svg width="264" height="280" viewBox="0 0 264 280" fill="none" xmlns="http://www.w3.org/2000/svg">
<g clip-path="url(#clip0_349_1526)">
<path d="M132 280C198.274 280 252 226.274 252 160C252 93.7258 198.274 40 132 40C65.7258 40 12 93.7258 12 160C12 226.274 65.7258 280 132 280Z" fill="#E6E6E6"/>
<mask id="mask0_349_1526" style="mask-type:luminance" maskUnits="userSpaceOnUse" x="12" y="40" width="240" height="240">
<path d="M132 280C198.274 280 252 226.274 252 160C252 93.7258 198.274 40 132 40C65.7258 40 12 93.7258 12 160C12 226.274 65.7258 280 132 280Z" fill="white"/>
</mask>
<g mask="url(#mask0_349_1526)">
<path d="M252 40H12V280H252V40Z" fill="#65C9FF"/>
</g>
<mask id="mask1_349_1526" style="mask-type:luminance" maskUnits="userSpaceOnUse" x="0" y="0" width="264" height="280">
<path d="M12 160C12 226.274 65.7258 280 132 280C198.274 280 252 226.274 252 160H264V0H0V160H12Z" fill="white"/>
</mask>
<g mask="url(#mask1_349_1526)">
<path d="M156 180.611V199H160C199.765 199 232 231.235 232 271V280H32V271C32 231.235 64.2355 199 104 199H108V180.611C90.7626 172.422 78.3722 155.687 76.3051 135.881C70.4803 135.058 66 130.052 66 124V110C66 104.054 70.3246 99.1181 76 98.1659V92C76 61.0721 101.072 36 132 36C162.928 36 188 61.0721 188 92V98.1659C193.675 99.1181 198 104.054 198 110V124C198 130.052 193.52 135.058 187.695 135.881C185.628 155.687 173.237 172.422 156 180.611Z" fill="#D0C6AC"/>
<mask id="mask2_349_1526" style="mask-type:luminance" maskUnits="userSpaceOnUse" x="32" y="36" width="200" height="244">
<path d="M156 180.611V199H160C199.765 199 232 231.235 232 271V280H32V271C32 231.235 64.2355 199 104 199H108V180.611C90.7626 172.422 78.3722 155.687 76.3051 135.881C70.4803 135.058 66 130.052 66 124V110C66 104.054 70.3246 99.1181 76 98.1659V92C76 61.0721 101.072 36 132 36C162.928 36 188 61.0721 188 92V98.1659C193.675 99.1181 198 104.054 198 110V124C198 130.052 193.52 135.058 187.695 135.881C185.628 155.687 173.237 172.422 156 180.611Z" fill="white"/>
</mask>
<g mask="url(#mask2_349_1526)">
<path d="M296 36H32V316H296V36Z" fill="#EDB98A"/>
</g>
<mask id="mask3_349_1526" style="mask-type:luminance" maskUnits="userSpaceOnUse" x="32" y="36" width="200" height="244">
<path d="M156 180.611V199H160C199.765 199 232 231.235 232 271V280H32V271C32 231.235 64.2355 199 104 199H108V180.611C90.7626 172.422 78.3722 155.687 76.3051 135.881C70.4803 135.058 66 130.052 66 124V110C66 104.054 70.3246 99.1181 76 98.1659V92C76 61.0721 101.072 36 132 36C162.928 36 188 61.0721 188 92V98.1659C193.675 99.1181 198 104.054 198 110V124C198 130.052 193.52 135.058 187.695 135.881C185.628 155.687 173.237 172.422 156 180.611Z" fill="white"/>
</mask>
<g mask="url(#mask3_349_1526)">
<path fill-rule="evenodd" clip-rule="evenodd" d="M188 115V138C188 168.928 162.928 194 132 194C101.072 194 76 168.928 76 138V115V130C76 160.928 101.072 186 132 186C162.928 186 188 160.928 188 130V115Z" fill="black" fill-opacity="0.1"/>
</g>
<path fill-rule="evenodd" clip-rule="evenodd" d="M94 199.688V244H170V199.688C179.363 200.989 188.15 204.091 196 208.632L196 280H187H77H68V208.632C75.85 204.091 84.637 200.989 94 199.688Z" fill="#B7C1DB"/>
<mask id="mask4_349_1526" style="mask-type:luminance" maskUnits="userSpaceOnUse" x="68" y="199" width="128" height="81">
<path fill-rule="evenodd" clip-rule="evenodd" d="M94 199.688V244H170V199.688C179.363 200.989 188.15 204.091 196 208.632L196 280H187H77H68V208.632C75.85 204.091 84.637 200.989 94 199.688Z" fill="white"/>
</mask>
<g mask="url(#mask4_349_1526)">
<path d="M264 170H0V280H264V170Z" fill="#FF488E"/>
</g>
<path d="M81 258C83.7614 258 86 255.761 86 253C86 250.239 83.7614 248 81 248C78.2386 248 76 250.239 76 253C76 255.761 78.2386 258 81 258Z" fill="#F4F4F4"/>
<path d="M183 258C185.761 258 188 255.761 188 253C188 250.239 185.761 248 183 248C180.239 248 178 250.239 178 253C178 255.761 180.239 258 183 258Z" fill="#F4F4F4"/>
<path fill-rule="evenodd" clip-rule="evenodd" d="M118 149C118 156.732 124.268 163 132 163C139.732 163 146 156.732 146 149" fill="black" fill-opacity="0.7"/>
<path fill-rule="evenodd" clip-rule="evenodd" d="M120 130C120 134.418 125.373 138 132 138C138.627 138 144 134.418 144 130" fill="black" fill-opacity="0.16"/>
<path fill-rule="evenodd" clip-rule="evenodd" d="M92.1602 112.447C94.0067 108.649 98.1644 106 102.998 106C107.814 106 111.959 108.63 113.815 112.407C114.367 113.529 113.582 114.447 112.791 113.767C110.34 111.66 106.859 110.344 102.998 110.344C99.2572 110.344 95.8738 111.579 93.4375 113.572C92.5468 114.3 91.6201 113.558 92.1602 112.447Z" fill="black" fill-opacity="0.6"/>
<path fill-rule="evenodd" clip-rule="evenodd" d="M150.16 112.447C152.007 108.649 156.164 106 160.998 106C165.814 106 169.959 108.63 171.815 112.407C172.367 113.529 171.582 114.447 170.791 113.767C168.34 111.66 164.859 110.344 160.998 110.344C157.257 110.344 153.874 111.579 151.438 113.572C150.547 114.3 149.62 113.558 150.16 112.447Z" fill="black" fill-opacity="0.6"/>
<path d="M91.6304 99.1586C95.5453 93.6499 106.278 90.5608 115.523 92.8312C116.596 93.0946 117.679 92.4386 117.942 91.3659C118.206 90.2932 117.55 89.21 116.477 88.9466C105.741 86.31 93.3123 89.887 88.3699 96.8414C87.73 97.7418 87.9412 98.9904 88.8416 99.6303C89.7419 100.27 90.9905 100.059 91.6304 99.1586Z" fill="black" fill-opacity="0.6"/>
<path d="M172.37 99.1586C168.455 93.6499 157.722 90.5608 148.477 92.8312C147.405 93.0946 146.321 92.4386 146.058 91.3659C145.795 90.2932 146.451 89.21 147.523 88.9466C158.26 86.31 170.688 89.887 175.631 96.8414C176.27 97.7418 176.059 98.9904 175.159 99.6303C174.259 100.27 173.01 100.059 172.37 99.1586Z" fill="black" fill-opacity="0.6"/>
<mask id="mask5_349_1526" style="mask-type:luminance" maskUnits="userSpaceOnUse" x="0" y="0" width="264" height="280">
<path d="M264 0H0V280H264V0Z" fill="white"/>
</mask>
<g mask="url(#mask5_349_1526)">
<path fill-rule="evenodd" clip-rule="evenodd" d="M113.94 28.3372C112.954 28.5587 111.986 28.7906 111.037 29.03C95.9448 32.838 87.0168 43.6513 79.3567 59.6481C75.5956 67.5029 73.366 76.7915 73.0231 85.4814C72.8884 88.8933 73.3484 92.4152 74.2677 95.7004C74.6049 96.9062 76.4232 101.087 76.9225 97.7088C77.0885 96.5843 76.4804 95.0328 76.4216 93.8376C76.3444 92.2694 76.4273 90.6808 76.5342 89.1149C76.7341 86.1874 77.256 83.3154 78.1847 80.5247C79.5119 76.5367 81.2014 72.2129 83.7874 68.8481C90.1884 60.5206 94.7648 43.2055 132 41.6707C169.235 40.1359 180.749 67.4611 184.183 73.3007C188.248 80.2147 186.378 88.7074 187.619 96.2008C188.091 99.0504 189.164 98.9866 189.751 96.4378C190.748 92.1083 191.219 87.6102 190.902 83.1593C190.184 73.1115 186.497 46.7057 166.309 35.0061C160.867 31.8521 155.438 29.6875 150.117 28.2828C153.176 25.3111 155 21.5676 155 17.5C155 7.83502 144.703 0 132 0C119.297 0 109 7.83502 109 17.5C109 21.5925 110.846 25.3569 113.94 28.3372Z" fill="#28354B"/>
<mask id="mask6_349_1526" style="mask-type:luminance" maskUnits="userSpaceOnUse" x="73" y="0" width="118" height="99">
<path fill-rule="evenodd" clip-rule="evenodd" d="M113.94 28.3372C112.954 28.5587 111.986 28.7906 111.037 29.03C95.9448 32.838 87.0168 43.6513 79.3567 59.6481C75.5956 67.5029 73.366 76.7915 73.0231 85.4814C72.8884 88.8933 73.3484 92.4152 74.2677 95.7004C74.6049 96.9062 76.4232 101.087 76.9225 97.7088C77.0885 96.5843 76.4804 95.0328 76.4216 93.8376C76.3444 92.2694 76.4273 90.6808 76.5342 89.1149C76.7341 86.1874 77.256 83.3154 78.1847 80.5247C79.5119 76.5367 81.2014 72.2129 83.7874 68.8481C90.1884 60.5206 94.7648 43.2055 132 41.6707C169.235 40.1359 180.749 67.4611 184.183 73.3007C188.248 80.2147 186.378 88.7074 187.619 96.2008C188.091 99.0504 189.164 98.9866 189.751 96.4378C190.748 92.1083 191.219 87.6102 190.902 83.1593C190.184 73.1115 186.497 46.7057 166.309 35.0061C160.867 31.8521 155.438 29.6875 150.117 28.2828C153.176 25.3111 155 21.5676 155 17.5C155 7.83502 144.703 0 132 0C119.297 0 109 7.83502 109 17.5C109 21.5925 110.846 25.3569 113.94 28.3372Z" fill="white"/>
</mask>
<g mask="url(#mask6_349_1526)">
<path d="M263 0H-1V280H263V0Z" fill="#A55728"/>
</g>
<g filter="url(#filter0_d_349_1526)">
<path fill-rule="evenodd" clip-rule="evenodd" d="M141.465 101.394C145.38 93.4587 153.553 88 163 88C171.92 88 179.703 92.8659 183.84 100.088C184.05 100.031 184.272 100 184.5 100H192.5C193.881 100 195 101.119 195 102.5C195 103.881 193.881 105 192.5 105H185.963C186.637 107.215 187 109.565 187 112C187 125.255 176.255 136 163 136C149.745 136 139 125.255 139 112C139 110.578 139.124 109.185 139.361 107.831C139.276 103.455 135.914 100 131.862 100C128.126 100 124.975 102.94 124.442 106.83C124.807 108.495 125 110.225 125 112C125 125.255 114.255 136 101 136C87.7452 136 77 125.255 77 112C77 109.565 77.3626 107.215 78.0369 105H71.5C70.1193 105 69 103.881 69 102.5C69 101.119 70.1193 100 71.5 100H79.5C79.7285 100 79.9498 100.031 80.1601 100.088C84.2971 92.8659 92.0803 88 101 88C110.352 88 118.455 93.3492 122.416 101.155C124.493 98.0393 127.949 96 131.862 96C135.875 96 139.407 98.1441 141.465 101.394ZM101 132C112.046 132 121 123.046 121 112C121 100.954 112.046 92 101 92C89.9543 92 81 100.954 81 112C81 123.046 89.9543 132 101 132ZM163 132C174.046 132 183 123.046 183 112C183 100.954 174.046 92 163 92C151.954 92 143 100.954 143 112C143 123.046 151.954 132 163 132Z" fill="black"/>
</g>
<path fill-rule="evenodd" clip-rule="evenodd" d="M141.465 101.394C145.38 93.4587 153.553 88 163 88C171.92 88 179.703 92.8659 183.84 100.088C184.05 100.031 184.272 100 184.5 100H192.5C193.881 100 195 101.119 195 102.5C195 103.881 193.881 105 192.5 105H185.963C186.637 107.215 187 109.565 187 112C187 125.255 176.255 136 163 136C149.745 136 139 125.255 139 112C139 110.578 139.124 109.185 139.361 107.831C139.276 103.455 135.914 100 131.862 100C128.126 100 124.975 102.94 124.442 106.83C124.807 108.495 125 110.225 125 112C125 125.255 114.255 136 101 136C87.7452 136 77 125.255 77 112C77 109.565 77.3626 107.215 78.0369 105H71.5C70.1193 105 69 103.881 69 102.5C69 101.119 70.1193 100 71.5 100H79.5C79.7285 100 79.9498 100.031 80.1601 100.088C84.2971 92.8659 92.0803 88 101 88C110.352 88 118.455 93.3492 122.416 101.155C124.493 98.0393 127.949 96 131.862 96C135.875 96 139.407 98.1441 141.465 101.394ZM101 132C112.046 132 121 123.046 121 112C121 100.954 112.046 92 101 92C89.9543 92 81 100.954 81 112C81 123.046 89.9543 132 101 132ZM163 132C174.046 132 183 123.046 183 112C183 100.954 174.046 92 163 92C151.954 92 143 100.954 143 112C143 123.046 151.954 132 163 132Z" fill="#252C2F"/>
</g>
</g>
</g>
<defs>
<filter id="filter0_d_349_1526" x="69" y="88" width="126" height="50" filterUnits="userSpaceOnUse" color-interpolation-filters="sRGB">
<feFlood flood-opacity="0" result="BackgroundImageFix"/>
<feColorMatrix in="SourceAlpha" type="matrix" values="0 0 0 0 0 0 0 0 0 0 0 0 0 0 0 0 0 0 127 0" result="hardAlpha"/>
<feOffset dy="2"/>
<feColorMatrix type="matrix" values="0 0 0 0 0 0 0 0 0 0 0 0 0 0 0 0 0 0 0.1 0"/>
<feBlend mode="normal" in2="BackgroundImageFix" result="effect1_dropShadow_349_1526"/>
<feBlend mode="normal" in="SourceGraphic" in2="effect1_dropShadow_349_1526" result="shape"/>
</filter>
<clipPath id="clip0_349_1526">
<rect width="264" height="280" fill="white"/>
</clipPath>
</defs>
</svg>
