<svg width="264" height="280" viewBox="0 0 264 280" fill="none" xmlns="http://www.w3.org/2000/svg">
<g clip-path="url(#clip0_349_881)">
<path d="M132 280C198.274 280 252 226.274 252 160C252 93.7258 198.274 40 132 40C65.7258 40 12 93.7258 12 160C12 226.274 65.7258 280 132 280Z" fill="#E6E6E6"/>
<mask id="mask0_349_881" style="mask-type:luminance" maskUnits="userSpaceOnUse" x="12" y="40" width="240" height="240">
<path d="M132 280C198.274 280 252 226.274 252 160C252 93.7258 198.274 40 132 40C65.7258 40 12 93.7258 12 160C12 226.274 65.7258 280 132 280Z" fill="white"/>
</mask>
<g mask="url(#mask0_349_881)">
<path d="M252 40H12V280H252V40Z" fill="#65C9FF"/>
</g>
<mask id="mask1_349_881" style="mask-type:luminance" maskUnits="userSpaceOnUse" x="0" y="0" width="264" height="280">
<path d="M12 160C12 226.274 65.7258 280 132 280C198.274 280 252 226.274 252 160H264V0H0V160H12Z" fill="white"/>
</mask>
<g mask="url(#mask1_349_881)">
<path d="M156 180.611V199H160C199.765 199 232 231.235 232 271V280H32V271C32 231.235 64.2355 199 104 199H108V180.611C90.7626 172.422 78.3722 155.687 76.3051 135.881C70.4803 135.058 66 130.052 66 124V110C66 104.054 70.3246 99.1181 76 98.1659V92C76 61.0721 101.072 36 132 36C162.928 36 188 61.0721 188 92V98.1659C193.675 99.1181 198 104.054 198 110V124C198 130.052 193.52 135.058 187.695 135.881C185.628 155.687 173.237 172.422 156 180.611Z" fill="#D0C6AC"/>
<mask id="mask2_349_881" style="mask-type:luminance" maskUnits="userSpaceOnUse" x="32" y="36" width="200" height="244">
<path d="M156 180.611V199H160C199.765 199 232 231.235 232 271V280H32V271C32 231.235 64.2355 199 104 199H108V180.611C90.7626 172.422 78.3722 155.687 76.3051 135.881C70.4803 135.058 66 130.052 66 124V110C66 104.054 70.3246 99.1181 76 98.1659V92C76 61.0721 101.072 36 132 36C162.928 36 188 61.0721 188 92V98.1659C193.675 99.1181 198 104.054 198 110V124C198 130.052 193.52 135.058 187.695 135.881C185.628 155.687 173.237 172.422 156 180.611Z" fill="white"/>
</mask>
<g mask="url(#mask2_349_881)">
<path d="M296 36H32V316H296V36Z" fill="#D08B5B"/>
</g>
<mask id="mask3_349_881" style="mask-type:luminance" maskUnits="userSpaceOnUse" x="32" y="36" width="200" height="244">
<path d="M156 180.611V199H160C199.765 199 232 231.235 232 271V280H32V271C32 231.235 64.2355 199 104 199H108V180.611C90.7626 172.422 78.3722 155.687 76.3051 135.881C70.4803 135.058 66 130.052 66 124V110C66 104.054 70.3246 99.1181 76 98.1659V92C76 61.0721 101.072 36 132 36C162.928 36 188 61.0721 188 92V98.1659C193.675 99.1181 198 104.054 198 110V124C198 130.052 193.52 135.058 187.695 135.881C185.628 155.687 173.237 172.422 156 180.611Z" fill="white"/>
</mask>
<g mask="url(#mask3_349_881)">
<path fill-rule="evenodd" clip-rule="evenodd" d="M188 115V138C188 168.928 162.928 194 132 194C101.072 194 76 168.928 76 138V115V130C76 160.928 101.072 186 132 186C162.928 186 188 160.928 188 130V115Z" fill="black" fill-opacity="0.1"/>
</g>
<path fill-rule="evenodd" clip-rule="evenodd" d="M171.32 199.937C205.706 205.367 232 235.139 232 271.052V280H32V271.052C32 235.138 58.2944 205.366 92.6818 199.936C93.5836 205.005 96.1164 209.824 100.236 213.539L129.321 239.768C130.843 241.14 133.157 241.14 134.679 239.768L163.764 213.539C164.189 213.155 164.601 212.756 164.998 212.343C168.414 208.787 170.517 204.452 171.32 199.937V199.937Z" fill="#E6E6E6"/>
<mask id="mask4_349_881" style="mask-type:luminance" maskUnits="userSpaceOnUse" x="32" y="199" width="200" height="81">
<path fill-rule="evenodd" clip-rule="evenodd" d="M171.32 199.937C205.706 205.367 232 235.139 232 271.052V280H32V271.052C32 235.138 58.2944 205.366 92.6818 199.936C93.5836 205.005 96.1164 209.824 100.236 213.539L129.321 239.768C130.843 241.14 133.157 241.14 134.679 239.768L163.764 213.539C164.189 213.155 164.601 212.756 164.998 212.343C168.414 208.787 170.517 204.452 171.32 199.937V199.937Z" fill="white"/>
</mask>
<g mask="url(#mask4_349_881)">
<path d="M264 170H0V280H264V170Z" fill="#FFAFB9"/>
</g>
<path fill-rule="evenodd" clip-rule="evenodd" d="M113.118 149.128C114.175 158.62 122.226 166 132 166C141.804 166 149.874 158.574 150.892 149.04C150.973 148.273 150.117 147 149.043 147C134.149 147 122.738 147 115.087 147C114.006 147 113.012 148.178 113.118 149.128Z" fill="black" fill-opacity="0.7"/>
<mask id="mask5_349_881" style="mask-type:luminance" maskUnits="userSpaceOnUse" x="113" y="147" width="38" height="19">
<path fill-rule="evenodd" clip-rule="evenodd" d="M113.118 149.128C114.175 158.62 122.226 166 132 166C141.804 166 149.874 158.574 150.892 149.04C150.973 148.273 150.117 147 149.043 147C134.149 147 122.738 147 115.087 147C114.006 147 113.012 148.178 113.118 149.128Z" fill="white"/>
</mask>
<g mask="url(#mask5_349_881)">
<path d="M143 136H122C119.239 136 117 138.239 117 141V147C117 149.761 119.239 152 122 152H143C145.761 152 148 149.761 148 147V141C148 138.239 145.761 136 143 136Z" fill="white"/>
</g>
<mask id="mask6_349_881" style="mask-type:luminance" maskUnits="userSpaceOnUse" x="113" y="147" width="38" height="19">
<path fill-rule="evenodd" clip-rule="evenodd" d="M113.118 149.128C114.175 158.62 122.226 166 132 166C141.804 166 149.874 158.574 150.892 149.04C150.973 148.273 150.117 147 149.043 147C134.149 147 122.738 147 115.087 147C114.006 147 113.012 148.178 113.118 149.128Z" fill="white"/>
</mask>
<g mask="url(#mask6_349_881)">
<path d="M127 180C133.075 180 138 175.075 138 169C138 162.925 133.075 158 127 158C120.925 158 116 162.925 116 169C116 175.075 120.925 180 127 180Z" fill="#FF4F6D"/>
<path d="M137 180C143.075 180 148 175.075 148 169C148 162.925 143.075 158 137 158C130.925 158 126 162.925 126 169C126 175.075 130.925 180 137 180Z" fill="#FF4F6D"/>
</g>
<path fill-rule="evenodd" clip-rule="evenodd" d="M120 130C120 134.418 125.373 138 132 138C138.627 138 144 134.418 144 130" fill="black" fill-opacity="0.16"/>
<path d="M106 118C109.314 118 112 115.314 112 112C112 108.686 109.314 106 106 106C102.686 106 100 108.686 100 112C100 115.314 102.686 118 106 118Z" fill="black" fill-opacity="0.6"/>
<path fill-rule="evenodd" clip-rule="evenodd" d="M146.61 114.955C148.187 111.037 152.149 108.105 156.971 107.768C161.775 107.432 166.094 109.766 168.209 113.404C168.837 114.485 168.119 115.456 167.282 114.832C164.69 112.901 161.126 111.831 157.274 112.101C153.543 112.362 150.253 113.83 147.962 115.988C147.124 116.777 146.148 116.101 146.61 114.955Z" fill="black" fill-opacity="0.6"/>
<path fill-rule="evenodd" clip-rule="evenodd" d="M132.997 94.8204C132.996 94.8165 132.996 94.8165 132.997 94.8204ZM135.556 97.6253C137.448 98.7262 140.273 99.3588 141.871 99.5641C148.148 100.372 154.137 98.0301 160.257 96.8857C165.689 95.8697 171.882 94.9602 176.988 97.7947C177.118 97.8667 178.149 98.4617 178.694 98.9793C179.093 99.3588 179.743 99.2537 179.985 98.7552C181.31 96.029 173.583 90.1612 172.12 89.6018C165.493 87.0736 156.944 90.3064 150.323 91.6031C146.607 92.3311 142.862 92.8553 139.209 93.8939C137.899 94.2662 136.63 94.9004 135.347 95.111C135.185 94.8871 134.985 94.751 134.759 94.7589C133.589 94.7998 131.963 98.3161 134.199 98.4354C134.898 98.4728 135.329 98.1227 135.556 97.6253Z" fill="black" fill-opacity="0.6"/>
<path fill-rule="evenodd" clip-rule="evenodd" d="M131.003 94.7908C131.004 94.7869 131.004 94.7869 131.003 94.7908ZM91.8804 89.5722C98.5069 87.044 107.056 90.2767 113.677 91.5734C117.393 92.3015 121.138 92.8256 124.791 93.8642C126.26 94.2817 127.678 95.0285 129.121 95.1382C129.821 95.1912 130.227 96.0408 129.755 96.5726C128.211 98.3135 124.17 99.2723 122.129 99.5345C115.852 100.342 109.863 98.0005 103.743 96.856C98.3108 95.84 92.1185 94.9306 87.0124 97.7651C86.8825 97.8371 85.8513 98.432 85.3059 98.9496C84.9067 99.3291 84.257 99.2241 84.0149 98.7256C82.6901 95.9993 90.417 90.1316 91.8804 89.5722ZM130.972 93.7891C132.143 93.83 133.735 98.2898 131.498 98.463C129.261 98.6362 129.802 93.7482 130.972 93.7891Z" fill="black" fill-opacity="0.6"/>
<mask id="mask7_349_881" style="mask-type:luminance" maskUnits="userSpaceOnUse" x="0" y="0" width="264" height="280">
<path d="M264 0H0V280H264V0Z" fill="white"/>
</mask>
<g mask="url(#mask7_349_881)">
<path fill-rule="evenodd" clip-rule="evenodd" d="M131.998 146.84C131.457 147.609 130.761 148.25 129.95 148.689C121.048 153.51 111.877 149.332 106.876 149.63C104.46 149.774 101.341 151.415 100.216 149.679C98.9769 147.767 103.068 137.221 112.721 135.464C119.731 134.189 129.497 135.602 131.998 138.938C134.499 135.602 144.265 134.189 151.274 135.464C160.928 137.221 165.019 147.767 163.78 149.679C162.655 151.415 159.536 149.774 157.12 149.63C152.119 149.332 142.948 153.51 134.046 148.689C133.235 148.25 132.539 147.609 131.998 146.84Z" fill="#28354B"/>
<mask id="mask8_349_881" style="mask-type:luminance" maskUnits="userSpaceOnUse" x="100" y="135" width="64" height="17">
<path fill-rule="evenodd" clip-rule="evenodd" d="M131.998 146.84C131.457 147.609 130.761 148.25 129.95 148.689C121.048 153.51 111.877 149.332 106.876 149.63C104.46 149.774 101.341 151.415 100.216 149.679C98.9769 147.767 103.068 137.221 112.721 135.464C119.731 134.189 129.497 135.602 131.998 138.938C134.499 135.602 144.265 134.189 151.274 135.464C160.928 137.221 165.019 147.767 163.78 149.679C162.655 151.415 159.536 149.774 157.12 149.63C152.119 149.332 142.948 153.51 134.046 148.689C133.235 148.25 132.539 147.609 131.998 146.84Z" fill="white"/>
</mask>
<g mask="url(#mask8_349_881)">
<path d="M280 72H16V316H280V72Z" fill="#4A312C"/>
</g>
<path fill-rule="evenodd" clip-rule="evenodd" d="M89.9102 55.3613H174.086C192.333 44.8338 195.759 26.151 182.85 9.92595C179.636 5.88677 174.086 21.6755 157.029 22.6504C139.971 23.6254 141.609 16.3498 123.458 19.0739C105.306 21.7979 107.312 36.3784 95.4672 39.8768C87.5709 42.209 85.7186 47.3705 89.9102 55.3613Z" fill="#252E32"/>
<mask id="mask9_349_881" style="mask-type:luminance" maskUnits="userSpaceOnUse" x="87" y="9" width="104" height="47">
<path fill-rule="evenodd" clip-rule="evenodd" d="M89.9102 55.3613H174.086C192.333 44.8338 195.759 26.151 182.85 9.92595C179.636 5.88677 174.086 21.6755 157.029 22.6504C139.971 23.6254 141.609 16.3498 123.458 19.0739C105.306 21.7979 107.312 36.3784 95.4672 39.8768C87.5709 42.209 85.7186 47.3705 89.9102 55.3613Z" fill="white"/>
</mask>
<g mask="url(#mask9_349_881)">
<path d="M263 0H-1V280H263V0Z" fill="#4A312C"/>
</g>
</g>
</g>
</g>
<defs>
<clipPath id="clip0_349_881">
<rect width="264" height="280" fill="white"/>
</clipPath>
</defs>
</svg>
