<svg width="206" height="32" viewBox="0 0 206 32" fill="none" xmlns="http://www.w3.org/2000/svg">
<path d="M11.4006 31.4119C9.11837 31.4119 7.14867 30.9621 5.49148 30.0625C3.84375 29.1534 2.57481 27.8608 1.68466 26.1847C0.803977 24.4991 0.363636 22.4962 0.363636 20.1761C0.363636 17.9223 0.808712 15.9527 1.69886 14.267C2.58902 12.572 3.84375 11.2557 5.46307 10.3182C7.08239 9.37121 8.99053 8.89773 11.1875 8.89773C12.7405 8.89773 14.161 9.1392 15.4489 9.62216C16.7367 10.1051 17.8494 10.8201 18.7869 11.767C19.7244 12.714 20.4536 13.8835 20.9744 15.2756C21.4953 16.6581 21.7557 18.2443 21.7557 20.0341V21.767H2.79261V17.733H15.2926C15.2831 16.9943 15.108 16.3362 14.767 15.7585C14.4261 15.1809 13.9574 14.7311 13.3608 14.4091C12.7737 14.0777 12.0966 13.9119 11.3295 13.9119C10.553 13.9119 9.85701 14.0871 9.24148 14.4375C8.62595 14.7784 8.13826 15.2472 7.77841 15.8438C7.41856 16.4309 7.22917 17.0985 7.21023 17.8466V21.9517C7.21023 22.8419 7.38542 23.6231 7.7358 24.2955C8.08617 24.9583 8.58333 25.4744 9.22727 25.8438C9.87121 26.2131 10.6383 26.3977 11.5284 26.3977C12.1439 26.3977 12.7027 26.3125 13.2045 26.142C13.7064 25.9716 14.1373 25.7206 14.4972 25.3892C14.857 25.0578 15.1269 24.6506 15.3068 24.1676L21.6847 24.3523C21.4195 25.7822 20.8371 27.0275 19.9375 28.0881C19.0473 29.1392 17.8778 29.9583 16.429 30.5455C14.9801 31.1231 13.304 31.4119 11.4006 31.4119Z" fill="#0052B4"/>
<path d="M32.792 31.3125C31.1822 31.3125 29.7191 30.8958 28.4028 30.0625C27.0865 29.2292 26.0354 27.9792 25.2494 26.3125C24.4634 24.6458 24.0704 22.5767 24.0704 20.1051C24.0704 17.5388 24.4776 15.4271 25.292 13.7699C26.1064 12.1127 27.1718 10.8864 28.488 10.0909C29.8138 9.29545 31.239 8.89773 32.7636 8.89773C33.9094 8.89773 34.8896 9.09659 35.7039 9.49432C36.5183 9.88258 37.1907 10.3845 37.721 11C38.2513 11.6155 38.6538 12.2547 38.9284 12.9176H39.0704V1.90909H46.0165V31H39.1415V27.4631H38.9284C38.6348 28.1354 38.2182 28.7652 37.6784 29.3523C37.1386 29.9394 36.4615 30.4129 35.6471 30.7727C34.8422 31.1326 33.8905 31.3125 32.792 31.3125ZM35.2068 25.9006C36.0496 25.9006 36.7693 25.6638 37.3659 25.1903C37.9625 24.7074 38.4218 24.0303 38.7437 23.1591C39.0657 22.2879 39.2267 21.2652 39.2267 20.0909C39.2267 18.8977 39.0657 17.8703 38.7437 17.0085C38.4312 16.1468 37.9719 15.4839 37.3659 15.0199C36.7693 14.5559 36.0496 14.3239 35.2068 14.3239C34.345 14.3239 33.6159 14.5606 33.0193 15.0341C32.4227 15.5076 31.9682 16.1752 31.6557 17.0369C31.3526 17.8987 31.2011 18.9167 31.2011 20.0909C31.2011 21.2652 31.3574 22.2879 31.6699 23.1591C31.9824 24.0303 32.4322 24.7074 33.0193 25.1903C33.6159 25.6638 34.345 25.9006 35.2068 25.9006Z" fill="#D80027"/>
<path d="M64.0059 21.5824V9.18182H70.9377V31H64.3184V26.9375H64.0911C63.6082 28.2727 62.7843 29.3333 61.6195 30.1193C60.4642 30.8958 59.0675 31.2841 57.4292 31.2841C55.9425 31.2841 54.6356 30.9432 53.5088 30.2614C52.3819 29.5795 51.5059 28.6278 50.8809 27.4062C50.2559 26.1752 49.9387 24.7358 49.9292 23.0881V9.18182H56.8752V21.7244C56.8847 22.9081 57.1972 23.8409 57.8127 24.5227C58.4283 25.2045 59.2663 25.5455 60.3269 25.5455C61.0182 25.5455 61.6385 25.3939 62.1877 25.0909C62.7464 24.7784 63.1868 24.3286 63.5088 23.7415C63.8402 23.1449 64.0059 22.4252 64.0059 21.5824Z" fill="#6DA544"/>
<path d="M78.7851 31.4119C77.7624 31.4119 76.8865 31.0521 76.1573 30.3324C75.4376 29.6127 75.0825 28.7415 75.092 27.7188C75.0825 26.715 75.4376 25.858 76.1573 25.1477C76.8865 24.428 77.7624 24.0682 78.7851 24.0682C79.751 24.0682 80.6033 24.428 81.342 25.1477C82.0901 25.858 82.4689 26.715 82.4783 27.7188C82.4689 28.4006 82.2889 29.0208 81.9385 29.5795C81.5976 30.1383 81.1478 30.5833 80.5891 30.9148C80.0399 31.2462 79.4385 31.4119 78.7851 31.4119ZM105.635 15.8438L99.2568 16.0142C99.1906 15.5597 99.0106 15.1572 98.7171 14.8068C98.4235 14.447 98.04 14.1676 97.5665 13.9688C97.1025 13.7604 96.5627 13.6562 95.9472 13.6562C95.1423 13.6562 94.4557 13.8172 93.8875 14.1392C93.3288 14.4612 93.0542 14.8968 93.0637 15.446C93.0542 15.8722 93.2247 16.2415 93.575 16.554C93.9349 16.8665 94.5741 17.1174 95.4926 17.3068L99.6972 18.1023C101.875 18.5189 103.495 19.2102 104.555 20.1761C105.625 21.142 106.165 22.4205 106.174 24.0114C106.165 25.5076 105.72 26.8097 104.839 27.9176C103.968 29.0256 102.775 29.8873 101.26 30.5028C99.7445 31.1089 98.0116 31.4119 96.0608 31.4119C92.9453 31.4119 90.4879 30.7727 88.6887 29.4943C86.8989 28.2064 85.8762 26.483 85.6205 24.3239L92.4813 24.1534C92.6328 24.9489 93.0258 25.5549 93.6603 25.9716C94.2947 26.3883 95.1044 26.5966 96.0892 26.5966C96.9794 26.5966 97.7038 26.4309 98.2625 26.0994C98.8212 25.768 99.1053 25.3277 99.1148 24.7784C99.1053 24.286 98.8875 23.893 98.4614 23.5994C98.0353 23.2964 97.3676 23.0597 96.4586 22.8892L92.6517 22.1648C90.4642 21.767 88.8354 21.0331 87.7654 19.9631C86.6953 18.8835 86.165 17.5104 86.1745 15.8438C86.165 14.3854 86.5533 13.1402 87.3392 12.108C88.1252 11.0663 89.2426 10.2708 90.6915 9.72159C92.1404 9.17235 93.8497 8.89773 95.8193 8.89773C98.7739 8.89773 101.103 9.51799 102.808 10.7585C104.513 11.9896 105.455 13.6847 105.635 15.8438ZM119.299 31.4119C116.998 31.4119 115.023 30.9384 113.376 29.9915C111.737 29.0445 110.478 27.7282 109.597 26.0426C108.716 24.3475 108.276 22.3873 108.276 20.1619C108.276 17.9271 108.716 15.9669 109.597 14.2812C110.487 12.5862 111.752 11.2652 113.39 10.3182C115.037 9.37121 117.002 8.89773 119.285 8.89773C121.302 8.89773 123.058 9.26231 124.555 9.99148C126.06 10.7206 127.234 11.7528 128.077 13.0881C128.93 14.4138 129.379 15.9716 129.427 17.7614H122.935C122.803 16.6439 122.424 15.768 121.799 15.1335C121.183 14.4991 120.378 14.1818 119.384 14.1818C118.579 14.1818 117.874 14.4091 117.268 14.8636C116.662 15.3087 116.188 15.9716 115.847 16.8523C115.516 17.7235 115.35 18.803 115.35 20.0909C115.35 21.3788 115.516 22.4678 115.847 23.358C116.188 24.2386 116.662 24.9062 117.268 25.3608C117.874 25.8059 118.579 26.0284 119.384 26.0284C120.028 26.0284 120.596 25.8911 121.089 25.6165C121.591 25.3419 122.002 24.9394 122.324 24.4091C122.646 23.8693 122.85 23.2159 122.935 22.4489H129.427C129.36 24.2481 128.911 25.8201 128.077 27.1648C127.253 28.5095 126.093 29.5559 124.597 30.304C123.11 31.0426 121.344 31.4119 119.299 31.4119ZM132.501 31V9.18182H139.249V13.1591H139.476C139.874 11.7197 140.522 10.6496 141.422 9.94886C142.321 9.23864 143.368 8.88352 144.561 8.88352C144.883 8.88352 145.214 8.9072 145.555 8.95455C145.896 8.99242 146.214 9.05398 146.507 9.1392V15.1761C146.176 15.0625 145.74 14.9725 145.2 14.9062C144.67 14.84 144.196 14.8068 143.78 14.8068C142.956 14.8068 142.213 14.9915 141.55 15.3608C140.896 15.7206 140.38 16.2273 140.001 16.8807C139.632 17.5246 139.447 18.2822 139.447 19.1534V31H132.501ZM148.857 31V9.18182H155.803V31H148.857ZM152.337 6.6392C151.362 6.6392 150.524 6.31723 149.823 5.6733C149.122 5.01989 148.772 4.2339 148.772 3.31534C148.772 2.40625 149.122 1.62973 149.823 0.985795C150.524 0.332385 151.362 0.00568008 152.337 0.00568008C153.322 0.00568008 154.16 0.332385 154.852 0.985795C155.552 1.62973 155.903 2.40625 155.903 3.31534C155.903 4.2339 155.552 5.01989 154.852 5.6733C154.16 6.31723 153.322 6.6392 152.337 6.6392ZM159.745 31V1.90909H166.691V12.9176H166.833C167.117 12.2547 167.519 11.6155 168.04 11C168.57 10.3845 169.243 9.88258 170.057 9.49432C170.881 9.09659 171.866 8.89773 173.012 8.89773C174.527 8.89773 175.942 9.29545 177.259 10.0909C178.584 10.8864 179.655 12.1127 180.469 13.7699C181.283 15.4271 181.691 17.5388 181.691 20.1051C181.691 22.5767 181.298 24.6458 180.512 26.3125C179.735 27.9792 178.684 29.2292 177.358 30.0625C176.042 30.8958 174.579 31.3125 172.969 31.3125C171.87 31.3125 170.919 31.1326 170.114 30.7727C169.309 30.4129 168.632 29.9394 168.083 29.3523C167.543 28.7652 167.126 28.1354 166.833 27.4631H166.62V31H159.745ZM166.548 20.0909C166.548 21.2652 166.705 22.2879 167.017 23.1591C167.339 24.0303 167.798 24.7074 168.395 25.1903C169.001 25.6638 169.726 25.9006 170.568 25.9006C171.421 25.9006 172.145 25.6638 172.742 25.1903C173.338 24.7074 173.788 24.0303 174.091 23.1591C174.404 22.2879 174.56 21.2652 174.56 20.0909C174.56 18.9167 174.404 17.8987 174.091 17.0369C173.788 16.1752 173.338 15.5076 172.742 15.0341C172.155 14.5606 171.43 14.3239 170.568 14.3239C169.716 14.3239 168.992 14.5559 168.395 15.0199C167.798 15.4839 167.339 16.1468 167.017 17.0085C166.705 17.8703 166.548 18.8977 166.548 20.0909ZM195.049 31.4119C192.767 31.4119 190.797 30.9621 189.14 30.0625C187.492 29.1534 186.224 27.8608 185.333 26.1847C184.453 24.4991 184.012 22.4962 184.012 20.1761C184.012 17.9223 184.457 15.9527 185.348 14.267C186.238 12.572 187.492 11.2557 189.112 10.3182C190.731 9.37121 192.639 8.89773 194.836 8.89773C196.389 8.89773 197.81 9.1392 199.098 9.62216C200.385 10.1051 201.498 10.8201 202.436 11.767C203.373 12.714 204.102 13.8835 204.623 15.2756C205.144 16.6581 205.404 18.2443 205.404 20.0341V21.767H186.441V17.733H198.941C198.932 16.9943 198.757 16.3362 198.416 15.7585C198.075 15.1809 197.606 14.7311 197.01 14.4091C196.422 14.0777 195.745 13.9119 194.978 13.9119C194.202 13.9119 193.506 14.0871 192.89 14.4375C192.275 14.7784 191.787 15.2472 191.427 15.8438C191.067 16.4309 190.878 17.0985 190.859 17.8466V21.9517C190.859 22.8419 191.034 23.6231 191.385 24.2955C191.735 24.9583 192.232 25.4744 192.876 25.8438C193.52 26.2131 194.287 26.3977 195.177 26.3977C195.793 26.3977 196.351 26.3125 196.853 26.142C197.355 25.9716 197.786 25.7206 198.146 25.3892C198.506 25.0578 198.776 24.6506 198.956 24.1676L205.333 24.3523C205.068 25.7822 204.486 27.0275 203.586 28.0881C202.696 29.1392 201.527 29.9583 200.078 30.5455C198.629 31.1231 196.953 31.4119 195.049 31.4119Z" fill="#1E1E1E"/>
</svg>
