<svg width="406" height="416" viewBox="0 0 406 416" fill="none" xmlns="http://www.w3.org/2000/svg">
<path d="M369.582 336.659C388.25 309.852 393.658 272.681 390.572 241.153C389.045 225.529 386.057 209.151 377.028 196.058C363.873 176.975 342.161 166.953 325.612 151.545C301.252 128.878 290.948 95.7808 270.226 70.2344C243.178 36.9551 200.564 32.7485 160.695 34.7149C130.732 36.2166 82.5642 36.7974 75.516 75.2126C68.208 115.038 82.012 152.375 52.7801 171.458C23.5481 190.541 8.12005 230.367 17.0521 264.384C24.5874 293.075 60.7052 298.153 68.208 327.441C77.14 362.289 129.108 408.752 179.452 405.433C229.796 402.114 259.028 368.097 280.14 369.756C304.606 371.673 330.671 371.598 351.239 355.975C358.305 350.557 364.494 344.039 369.582 336.659Z" fill="#0052B4"/>
<path opacity="0.7" d="M369.582 336.659C388.25 309.852 393.658 272.681 390.572 241.153C389.045 225.529 386.057 209.151 377.028 196.058C363.873 176.975 342.161 166.953 325.612 151.545C301.252 128.878 290.948 95.7808 270.226 70.2344C243.178 36.9551 200.564 32.7485 160.695 34.7149C130.732 36.2166 82.5642 36.7974 75.516 75.2126C68.208 115.038 82.012 152.375 52.7801 171.458C23.5481 190.541 8.12005 230.367 17.0521 264.384C24.5874 293.075 60.7052 298.153 68.208 327.441C77.14 362.289 129.108 408.752 179.452 405.433C229.796 402.114 259.028 368.097 280.14 369.756C304.606 371.673 330.671 371.598 351.239 355.975C358.305 350.557 364.494 344.039 369.582 336.659Z" fill="white"/>
<path d="M333.48 113.429C333.48 113.429 317.979 104.625 316.834 124.571C315.689 144.517 312.815 274.133 312.815 274.133" stroke="#263238" stroke-width="2" stroke-linecap="round" stroke-linejoin="round"/>
<path d="M308.787 126.33C308.787 126.33 321.43 155.071 315.689 272.358" stroke="#263238" stroke-width="2" stroke-linecap="round" stroke-linejoin="round"/>
<path d="M321.203 117.436C321.203 117.436 315.275 121.319 311.905 116.88C308.536 112.441 314.187 104.302 309.201 100.817C304.216 97.3323 295.609 102.651 295.609 102.651C295.609 102.651 302.243 104.642 302.023 108.334C301.804 112.026 298.621 113.429 298.199 111.811C297.777 110.193 294.61 102.062 289.226 105.447C287.676 106.384 286.328 107.631 285.262 109.114C284.196 110.597 283.434 112.284 283.023 114.076C283.023 114.076 295.568 112.715 296.307 117.527C297.046 122.34 291.175 116.698 286.003 116.374C280.83 116.05 276.129 116.839 276.462 120.041C276.794 123.244 275.974 128.488 275.974 128.488C275.974 128.488 280.351 124.513 286.035 124.854C291.719 125.194 291.508 128.894 286.335 128.587C281.163 128.28 276.73 133.292 276.73 133.292C276.73 133.292 281.439 141.522 287.432 145.588C293.424 149.653 295.552 148.201 296.274 145.065C296.997 141.929 295.365 133.881 298.978 134.096C302.592 134.312 292.994 148.044 297.614 148.848C302.234 149.653 305.937 148.293 307.155 145.189L308.373 142.086C308.373 142.086 306.749 134.038 307.464 130.902C308.178 127.766 309.015 130.993 309.835 134.752C310.655 138.51 311.166 147.554 312.75 147.114C314.333 146.675 319.376 140.095 320.561 137.523C321.747 134.951 313.911 127.052 314 125.467C314.09 123.883 320.139 126.895 321.081 128.546C321.763 129.784 322.381 131.058 322.932 132.362C322.932 132.362 326.708 129.94 326.619 122.522C326.529 115.105 321.203 117.436 321.203 117.436Z" fill="#0052B4"/>
<path opacity="0.3" d="M321.203 117.436C321.203 117.436 315.275 121.319 311.905 116.88C308.536 112.441 314.187 104.302 309.201 100.817C304.216 97.3323 295.609 102.651 295.609 102.651C295.609 102.651 302.243 104.642 302.023 108.334C301.804 112.026 298.621 113.429 298.199 111.811C297.777 110.193 294.61 102.062 289.226 105.447C287.676 106.384 286.328 107.631 285.262 109.114C284.196 110.597 283.434 112.284 283.023 114.076C283.023 114.076 295.568 112.715 296.307 117.527C297.046 122.34 291.175 116.698 286.003 116.374C280.83 116.05 276.129 116.839 276.462 120.041C276.794 123.244 275.974 128.488 275.974 128.488C275.974 128.488 280.351 124.513 286.035 124.854C291.719 125.194 291.508 128.894 286.335 128.587C281.163 128.28 276.73 133.292 276.73 133.292C276.73 133.292 281.439 141.522 287.432 145.588C293.424 149.653 295.552 148.201 296.274 145.065C296.997 141.929 295.365 133.881 298.978 134.096C302.592 134.312 292.994 148.044 297.614 148.848C302.234 149.653 305.937 148.293 307.155 145.189L308.373 142.086C308.373 142.086 306.749 134.038 307.464 130.902C308.178 127.766 309.015 130.993 309.835 134.752C310.655 138.51 311.166 147.554 312.75 147.114C314.333 146.675 319.376 140.095 320.561 137.523C321.747 134.951 313.911 127.052 314 125.467C314.09 123.883 320.139 126.895 321.081 128.546C321.763 129.784 322.381 131.058 322.932 132.362C322.932 132.362 326.708 129.94 326.619 122.522C326.529 115.105 321.203 117.436 321.203 117.436Z" fill="#263238"/>
<path d="M291.151 134.843C295.016 129.964 300.716 123.352 305.491 120.199" stroke="#263238" stroke-linecap="round" stroke-linejoin="round"/>
<path d="M286.636 140.759C286.636 140.759 287.627 139.348 289.234 137.233" stroke="#263238" stroke-linecap="round" stroke-linejoin="round"/>
<path d="M308.008 121.41C308.008 121.41 313.757 129.707 314.82 138.253" stroke="#263238" stroke-linecap="round" stroke-linejoin="round"/>
<path d="M301.504 126.322C301.504 126.322 303.128 125.36 302.511 135.922" stroke="#263238" stroke-linecap="round" stroke-linejoin="round"/>
<path d="M305.702 116.507C305.702 116.507 308.95 113.528 307.253 107.587" stroke="#263238" stroke-linecap="round" stroke-linejoin="round"/>
<path d="M301.26 121.535L298.922 117.154" stroke="#263238" stroke-linecap="round" stroke-linejoin="round"/>
<path d="M296.38 126.007C296.38 126.007 288.934 120.257 284.281 119.983" stroke="#263238" stroke-linecap="round" stroke-linejoin="round"/>
<path d="M342.331 101.763C342.331 101.763 342.096 110.475 335.445 110.89C328.795 111.305 324.678 99.9791 317.865 102.709C311.053 105.439 310.403 117.859 310.403 117.859C310.403 117.859 316.899 112.433 320.342 115.171C323.785 117.909 323.014 122.132 321.154 121.46C319.295 120.788 309.153 118.481 308.804 126.297C308.665 128.522 308.968 130.752 309.695 132.854C310.422 134.956 311.558 136.886 313.034 138.527C313.034 138.527 320.237 124.779 325.466 127.285C330.695 129.79 321.146 131.972 317.346 137.042C313.546 142.111 311.069 147.471 314.431 149.305C317.792 151.138 322.38 155.561 322.38 155.561C322.38 155.561 321.471 148.376 325.677 142.792C329.883 137.208 333.367 139.954 329.534 145.024C325.701 150.093 327.609 158.066 327.609 158.066C327.609 158.066 338.888 158.896 346.959 155.511C355.031 152.126 355.079 148.956 352.473 146.102C349.866 143.248 340.894 139.415 343.541 135.855C346.188 132.296 353.123 151.495 357.061 147.314C360.999 143.132 362.193 138.419 359.984 135.051L357.767 131.732C357.767 131.732 348.786 127.899 346.188 125.044C343.59 122.19 347.341 123.518 351.58 125.243C355.818 126.969 365.026 132.603 365.684 130.686C366.342 128.77 363.321 119.12 361.624 116.15C359.927 113.18 346.83 115.826 345.335 114.657C343.841 113.487 350.922 109.346 353.179 109.504C354.86 109.651 356.532 109.886 358.189 110.209C358.189 110.209 358.384 104.708 351.044 99.7385C343.703 94.7686 342.331 101.763 342.331 101.763Z" fill="#0052B4"/>
<path opacity="0.2" d="M342.331 101.763C342.331 101.763 342.096 110.475 335.445 110.89C328.795 111.305 324.678 99.9791 317.865 102.709C311.053 105.439 310.403 117.859 310.403 117.859C310.403 117.859 316.899 112.433 320.342 115.171C323.785 117.909 323.014 122.132 321.154 121.46C319.295 120.788 309.153 118.481 308.804 126.297C308.665 128.522 308.968 130.752 309.695 132.854C310.422 134.956 311.558 136.886 313.034 138.527C313.034 138.527 320.237 124.779 325.466 127.285C330.695 129.79 321.146 131.972 317.346 137.042C313.546 142.111 311.069 147.471 314.431 149.305C317.792 151.138 322.38 155.561 322.38 155.561C322.38 155.561 321.471 148.376 325.677 142.792C329.883 137.208 333.367 139.954 329.534 145.024C325.701 150.093 327.609 158.066 327.609 158.066C327.609 158.066 338.888 158.896 346.959 155.511C355.031 152.126 355.079 148.956 352.473 146.102C349.866 143.248 340.894 139.415 343.541 135.855C346.188 132.296 353.123 151.495 357.061 147.314C360.999 143.132 362.193 138.419 359.984 135.051L357.767 131.732C357.767 131.732 348.786 127.899 346.188 125.044C343.59 122.19 347.341 123.518 351.58 125.243C355.818 126.969 365.026 132.603 365.684 130.686C366.342 128.77 363.321 119.12 361.624 116.15C359.927 113.18 346.83 115.826 345.335 114.657C343.841 113.487 350.922 109.346 353.179 109.504C354.86 109.651 356.532 109.886 358.189 110.209C358.189 110.209 358.384 104.708 351.044 99.7385C343.703 94.7686 342.331 101.763 342.331 101.763Z" fill="#263238"/>
<path d="M338.904 144.401C336.753 137.116 334.162 126.787 334.325 119.751" stroke="#263238" stroke-linecap="round" stroke-linejoin="round"/>
<path d="M341.673 153.038C341.673 153.038 340.967 151.064 339.992 147.977" stroke="#263238" stroke-linecap="round" stroke-linejoin="round"/>
<path d="M337.232 117.992C337.232 117.992 349.274 117.776 358.344 122.505" stroke="#263238" stroke-linecap="round" stroke-linejoin="round"/>
<path d="M337.605 127.998C337.605 127.998 337.76 125.692 347.698 133.516" stroke="#263238" stroke-linecap="round" stroke-linejoin="round"/>
<path d="M330.849 117.013C330.849 117.013 330.167 111.62 323.176 109.346" stroke="#263238" stroke-linecap="round" stroke-linejoin="round"/>
<path d="M332.758 124.986L326.871 124.389" stroke="#263238" stroke-linecap="round" stroke-linejoin="round"/>
<path d="M333.781 133.068C333.781 133.068 323.07 136.768 319.628 141.365" stroke="#263238" stroke-linecap="round" stroke-linejoin="round"/>
<path d="M270.916 159.759C270.916 159.759 304.784 182.634 304.208 271.196" stroke="#263238" stroke-width="2" stroke-linecap="round" stroke-linejoin="round"/>
<path d="M312.669 153.719C312.669 153.719 311.589 163.75 303.875 163.592C296.161 163.435 292.458 149.969 284.346 152.458C276.234 154.947 274.334 169.218 274.334 169.218C274.334 169.218 282.292 163.584 286.051 167.077C289.811 170.57 288.487 175.374 286.392 174.412C284.297 173.449 272.832 169.798 271.695 178.792C271.326 181.347 271.468 183.952 272.113 186.45C272.757 188.947 273.892 191.284 275.447 193.32C275.447 193.32 285.02 178.153 290.834 181.547C296.648 184.94 285.41 186.525 280.522 192.026C275.633 197.527 272.312 203.443 276.023 205.89C279.734 208.338 284.614 213.88 284.614 213.88C284.614 213.88 284.2 205.476 289.6 199.46C295 193.445 298.735 196.921 293.846 202.406C288.958 207.89 290.428 217.274 290.428 217.274C290.428 217.274 303.363 219.273 312.985 216.187C322.608 213.1 322.949 209.408 320.212 205.857C317.476 202.306 307.472 197.021 310.898 193.188C314.325 189.354 320.504 212.146 325.441 207.707C330.378 203.269 332.181 197.934 329.94 193.843L327.691 189.753C327.691 189.753 317.687 184.459 314.95 180.908C312.214 177.357 316.42 179.249 321.154 181.663C325.888 184.078 335.997 191.445 336.923 189.305C337.849 187.164 335.299 175.731 333.561 172.138C331.824 168.546 316.509 170.338 314.885 168.819C313.261 167.301 321.82 163.235 324.41 163.634C326.325 163.969 328.222 164.404 330.094 164.936C330.094 164.936 330.833 158.597 322.827 152.159C314.82 145.721 312.669 153.719 312.669 153.719Z" fill="#0052B4"/>
<path opacity="0.3" d="M312.669 153.719C312.669 153.719 311.589 163.75 303.875 163.592C296.161 163.435 292.458 149.969 284.346 152.458C276.234 154.947 274.334 169.218 274.334 169.218C274.334 169.218 282.292 163.584 286.051 167.077C289.811 170.57 288.487 175.374 286.392 174.412C284.297 173.449 272.832 169.798 271.695 178.792C271.326 181.347 271.468 183.952 272.113 186.45C272.757 188.947 273.892 191.284 275.447 193.32C275.447 193.32 285.02 178.153 290.834 181.547C296.648 184.94 285.41 186.525 280.522 192.026C275.633 197.527 272.312 203.443 276.023 205.89C279.734 208.338 284.614 213.88 284.614 213.88C284.614 213.88 284.2 205.476 289.6 199.46C295 193.445 298.735 196.921 293.846 202.406C288.958 207.89 290.428 217.274 290.428 217.274C290.428 217.274 303.363 219.273 312.985 216.187C322.608 213.1 322.949 209.408 320.212 205.857C317.476 202.306 307.472 197.021 310.898 193.188C314.325 189.354 320.504 212.146 325.441 207.707C330.378 203.269 332.181 197.934 329.94 193.843L327.691 189.753C327.691 189.753 317.687 184.459 314.95 180.908C312.214 177.357 316.42 179.249 321.154 181.663C325.888 184.078 335.997 191.445 336.923 189.305C337.849 187.164 335.299 175.731 333.561 172.138C331.824 168.546 316.509 170.338 314.885 168.819C313.261 167.301 321.82 163.235 324.41 163.634C326.325 163.969 328.222 164.404 330.094 164.936C330.094 164.936 330.833 158.597 322.827 152.159C314.82 145.721 312.669 153.719 312.669 153.719Z" fill="#263238"/>
<path d="M304.776 202.555C302.965 193.943 300.935 181.812 301.772 173.673" stroke="#263238" stroke-linecap="round" stroke-linejoin="round"/>
<path d="M307.18 212.793C307.18 212.793 306.546 210.445 305.71 206.786" stroke="#263238" stroke-linecap="round" stroke-linejoin="round"/>
<path d="M305.312 171.922C305.312 171.922 319.23 172.827 329.282 179.174" stroke="#263238" stroke-linecap="round" stroke-linejoin="round"/>
<path d="M304.792 183.505C304.792 183.505 305.19 180.858 315.925 190.84" stroke="#263238" stroke-linecap="round" stroke-linejoin="round"/>
<path d="M298.004 170.18C298.004 170.18 297.72 163.891 289.884 160.597" stroke="#263238" stroke-linecap="round" stroke-linejoin="round"/>
<path d="M299.474 179.556L292.734 178.303" stroke="#263238" stroke-linecap="round" stroke-linejoin="round"/>
<path d="M299.912 188.989C299.912 188.989 287.213 192.2 282.82 197.179" stroke="#263238" stroke-linecap="round" stroke-linejoin="round"/>
<path d="M284.119 229.537C284.119 229.537 305.929 246.546 308.227 271.769L303.631 187.313" stroke="#263238" stroke-width="2" stroke-linecap="round" stroke-linejoin="round"/>
<path d="M311.67 271.196C311.67 271.196 295.024 147.446 343.24 147.446" stroke="#263238" stroke-width="2" stroke-linecap="round" stroke-linejoin="round"/>
<path d="M373.049 170.562C367.714 167.334 361.819 167.243 358.928 163.858C356.038 160.473 361.714 158.739 364.75 160.025C367.787 161.311 374.827 165.003 376.159 165.832C377.491 166.662 376.573 154.856 374.097 150.417C371.62 145.978 364.856 143.397 361.478 147.023C354.349 154.673 343.232 144.642 343.996 138.668C344.759 132.694 339.294 126.223 327.569 130.023C315.844 133.823 320.212 135.889 320.212 135.889C320.212 135.889 328.543 141.099 333.878 144.327C339.213 147.554 348.048 150.317 346.156 152.665C344.264 155.013 339.14 153.578 334.869 150.076C330.598 146.575 318.304 138.22 317.062 141.323C315.819 144.426 311.378 152.939 311.378 152.939C316.807 153.79 322.175 155.006 327.447 156.581C334.585 158.871 336.046 162.879 330.468 163.219C324.889 163.559 314.764 159.253 311.605 164.704C308.446 170.155 310.614 184.152 310.614 184.152C310.614 184.152 320.829 177.075 326.042 177.1C331.255 177.125 327.918 180.078 322.096 183.912C319.569 185.49 317.129 187.21 314.788 189.064L320.099 202.986C320.099 202.986 328.86 201.841 332.319 202.09L335.778 202.339C335.778 202.339 335.778 187.786 339.838 183.472C343.898 179.157 344.662 189.139 345.522 191.686C346.383 194.233 343.785 201.858 343.785 201.858C343.785 201.858 353.902 196.199 357.183 193.951L360.431 191.702C360.431 191.702 356.647 181.132 354.073 178.112C351.499 175.092 347.999 175.54 350.963 172.918C353.926 170.296 358.336 171.674 360.861 175.407C363.386 179.141 366.399 186.392 366.399 186.392C366.399 186.392 370.175 187.015 375.087 181.34C380 175.664 378.392 173.781 373.049 170.562ZM326.676 186.583C322.754 184.584 332.108 180.585 332.108 180.585C335.494 180.078 330.598 188.591 326.676 186.583ZM333.277 167.89C331.605 167.06 336.623 165.335 336.623 165.335C343.858 166.753 334.95 168.745 333.277 167.89Z" fill="#0052B4"/>
<path d="M326.57 196.789C325.558 197.895 324.51 198.962 323.428 199.991" stroke="#263238" stroke-linecap="round" stroke-linejoin="round"/>
<path d="M346.724 165.65C342.973 173.632 337.305 184.053 329.843 193.105" stroke="#263238" stroke-linecap="round" stroke-linejoin="round"/>
<path d="M348.494 161.626C350.849 156.258 352.051 152.715 352.051 152.715C352.051 152.715 356.427 154.806 360.666 153.694C363.17 153.023 365.795 152.969 368.323 153.536" stroke="#263238" stroke-linecap="round" stroke-linejoin="round"/>
<path d="M344.231 160.315C345.344 159.336 328.227 150.641 328.227 150.641" stroke="#263238" stroke-linecap="round" stroke-linejoin="round"/>
<path d="M353.22 165.583C353.22 165.583 361.34 169.002 365.822 174.295" stroke="#263238" stroke-linecap="round" stroke-linejoin="round"/>
<path d="M342.437 171.192C338.1 170.443 333.703 170.127 329.307 170.246C324.887 170.298 320.503 171.06 316.315 172.503" stroke="#263238" stroke-linecap="round" stroke-linejoin="round"/>
<path d="M344.491 176.66C344.491 176.66 353.464 182.634 353.293 190.076" stroke="#263238" stroke-linecap="round" stroke-linejoin="round"/>
<path d="M279.401 157.253C279.401 157.253 274.009 161.261 270.575 157.253C267.14 153.246 272.02 145.239 267.148 142.236C262.276 139.232 254.408 144.725 254.408 144.725C254.408 144.725 260.774 146.227 260.774 149.703C260.774 153.179 257.834 154.681 257.347 153.213C256.86 151.744 253.425 144.194 248.529 147.703C247.113 148.675 245.905 149.931 244.978 151.394C244.051 152.858 243.425 154.498 243.137 156.216C243.137 156.216 254.895 154.208 255.877 158.705C256.86 163.202 251.005 158.207 246.077 158.207C241.148 158.207 236.763 159.211 237.25 162.215C237.519 164.877 237.519 167.56 237.25 170.222C237.25 170.222 241.172 166.222 246.564 166.222C251.955 166.222 251.955 169.724 247.051 169.724C242.146 169.724 238.233 174.702 238.233 174.702C238.233 174.702 243.105 182.211 249.016 185.712C254.927 189.213 256.852 187.72 257.347 184.716C257.842 181.713 255.877 174.196 259.304 174.196C262.731 174.196 254.432 187.72 258.817 188.218C263.202 188.716 266.653 187.214 267.635 184.21L268.618 181.207C268.618 181.207 266.653 173.739 267.148 170.694C267.643 167.649 268.618 170.694 269.584 174.196C270.55 177.697 271.541 186.218 273.011 185.712C274.48 185.206 278.889 178.701 279.872 176.204C280.855 173.706 273.011 166.687 273.011 165.185C273.011 163.683 278.889 166.189 279.872 167.674C280.585 168.805 281.238 169.974 281.829 171.176C281.829 171.176 285.264 168.687 284.768 161.659C284.273 154.631 279.401 157.253 279.401 157.253Z" fill="#0052B4"/>
<path d="M251.947 175.415C255.333 170.578 260.36 164.015 264.696 160.763" stroke="#263238" stroke-linecap="round" stroke-linejoin="round"/>
<path d="M248.033 181.29C248.033 181.29 248.894 179.904 250.299 177.813" stroke="#263238" stroke-linecap="round" stroke-linejoin="round"/>
<path d="M267.148 161.759C267.148 161.759 273.027 169.276 274.497 177.282" stroke="#263238" stroke-linecap="round" stroke-linejoin="round"/>
<path d="M261.269 166.77C261.269 166.77 262.739 165.766 262.739 175.781" stroke="#263238" stroke-linecap="round" stroke-linejoin="round"/>
<path d="M264.712 157.253C264.712 157.253 267.651 154.25 265.694 148.741" stroke="#263238" stroke-linecap="round" stroke-linejoin="round"/>
<path d="M260.774 162.265L258.33 158.257" stroke="#263238" stroke-linecap="round" stroke-linejoin="round"/>
<path d="M256.365 166.77C256.365 166.77 249.016 161.792 244.607 161.792" stroke="#263238" stroke-linecap="round" stroke-linejoin="round"/>
<path d="M284.444 220.327C284.444 220.327 299.945 211.532 301.09 231.47C301.804 243.791 303.168 297.979 304.11 337.597" stroke="#263238" stroke-width="2" stroke-linecap="round" stroke-linejoin="round"/>
<path d="M309.145 233.229C309.145 233.229 299.628 254.934 300.862 337.589" stroke="#263238" stroke-width="2" stroke-linecap="round" stroke-linejoin="round"/>
<path d="M296.721 224.343C296.721 224.343 302.649 228.226 306.027 223.787C309.404 219.348 303.745 211.2 308.73 207.724C313.716 204.248 322.315 209.558 322.315 209.558C322.315 209.558 315.689 211.541 315.9 215.241C316.112 218.942 319.311 220.335 319.733 218.718C320.155 217.1 323.314 208.96 328.665 212.345C330.217 213.282 331.567 214.53 332.633 216.014C333.7 217.499 334.46 219.189 334.869 220.983C334.869 220.983 322.348 219.622 321.584 224.434C320.821 229.246 326.724 223.604 331.889 223.281C337.053 222.957 341.771 223.746 341.438 226.948C341.105 230.151 341.925 235.394 341.925 235.394C341.925 235.394 337.548 231.42 331.864 231.76C326.18 232.101 326.392 235.801 331.556 235.486C336.72 235.17 341.162 240.207 341.162 240.207C341.162 240.207 336.452 248.437 330.468 252.511C324.483 256.585 322.348 255.116 321.617 251.98C320.886 248.844 322.534 240.804 318.913 241.02C315.291 241.236 324.906 254.967 320.285 255.772C315.665 256.577 311.954 255.216 310.736 252.113L309.518 249.002C309.518 249.002 311.142 240.962 310.436 237.826C309.729 234.689 308.885 237.917 308.065 241.675C307.245 245.434 306.725 254.469 305.141 254.038C303.558 253.606 298.516 247.019 297.33 244.438C296.145 241.858 303.988 233.967 303.899 232.391C303.81 230.815 297.752 233.818 296.81 235.461C296.129 236.702 295.511 237.979 294.959 239.286C294.959 239.286 291.191 236.863 291.281 229.437C291.37 222.011 296.721 224.343 296.721 224.343Z" fill="#0052B4"/>
<path opacity="0.3" d="M296.721 224.343C296.721 224.343 302.649 228.226 306.027 223.787C309.404 219.348 303.745 211.2 308.73 207.724C313.716 204.248 322.315 209.558 322.315 209.558C322.315 209.558 315.689 211.541 315.9 215.241C316.112 218.942 319.311 220.335 319.733 218.718C320.155 217.1 323.314 208.96 328.665 212.345C330.217 213.282 331.567 214.53 332.633 216.014C333.7 217.499 334.46 219.189 334.869 220.983C334.869 220.983 322.348 219.622 321.584 224.434C320.821 229.246 326.724 223.604 331.889 223.281C337.053 222.957 341.771 223.746 341.438 226.948C341.105 230.151 341.925 235.394 341.925 235.394C341.925 235.394 337.548 231.42 331.864 231.76C326.18 232.101 326.392 235.801 331.556 235.486C336.72 235.17 341.162 240.207 341.162 240.207C341.162 240.207 336.452 248.437 330.468 252.511C324.483 256.585 322.348 255.116 321.617 251.98C320.886 248.844 322.534 240.804 318.913 241.02C315.291 241.236 324.906 254.967 320.285 255.772C315.665 256.577 311.954 255.216 310.736 252.113L309.518 249.002C309.518 249.002 311.142 240.962 310.436 237.826C309.729 234.689 308.885 237.917 308.065 241.675C307.245 245.434 306.725 254.469 305.141 254.038C303.558 253.606 298.516 247.019 297.33 244.438C296.145 241.858 303.988 233.967 303.899 232.391C303.81 230.815 297.752 233.818 296.81 235.461C296.129 236.702 295.511 237.979 294.959 239.286C294.959 239.286 291.191 236.863 291.281 229.437C291.37 222.011 296.721 224.343 296.721 224.343Z" fill="#263238"/>
<path d="M326.773 241.75C322.908 236.863 317.216 230.259 312.441 227.106" stroke="#263238" stroke-linecap="round" stroke-linejoin="round"/>
<path d="M331.296 247.699C331.296 247.699 330.305 246.288 328.698 244.173" stroke="#263238" stroke-linecap="round" stroke-linejoin="round"/>
<path d="M309.916 228.317C309.916 228.317 304.175 236.614 303.111 245.152" stroke="#263238" stroke-linecap="round" stroke-linejoin="round"/>
<path d="M316.42 233.221C316.42 233.221 314.796 232.258 315.421 242.82" stroke="#263238" stroke-linecap="round" stroke-linejoin="round"/>
<path d="M312.222 223.405C312.222 223.405 308.974 220.427 310.671 214.494" stroke="#263238" stroke-linecap="round" stroke-linejoin="round"/>
<path d="M316.664 228.442L319.002 224.061" stroke="#263238" stroke-linecap="round" stroke-linejoin="round"/>
<path d="M321.593 232.914C321.593 232.914 329.039 227.164 333.683 226.882" stroke="#263238" stroke-linecap="round" stroke-linejoin="round"/>
<path d="M275.593 208.695C275.593 208.695 275.828 217.407 282.479 217.821C289.129 218.236 293.254 206.911 300.058 209.641C306.863 212.37 307.529 224.791 307.529 224.791C307.529 224.791 301.033 219.365 297.59 222.103C294.147 224.841 294.918 229.056 296.778 228.392C298.637 227.728 308.779 225.413 309.136 233.221C309.276 235.446 308.973 237.677 308.244 239.78C307.516 241.882 306.377 243.811 304.898 245.45C304.898 245.45 297.704 231.711 292.466 234.216C287.229 236.722 296.794 238.896 300.586 243.974C304.378 249.051 306.936 254.428 303.542 256.245C300.148 258.062 295.6 262.501 295.6 262.501C295.6 262.501 296.51 255.316 292.296 249.732C288.081 244.148 284.614 246.886 288.439 251.964C292.263 257.041 290.363 265.007 290.363 265.007C290.363 265.007 279.084 265.795 271.021 262.451C262.958 259.107 262.901 255.896 265.508 253.042C268.114 250.188 277.079 246.347 274.399 242.795C271.72 239.244 264.818 258.427 260.879 254.254C256.941 250.08 255.78 245.351 257.964 241.982L260.173 238.622C260.173 238.622 269.154 234.789 271.752 231.935C274.35 229.081 270.607 230.408 266.36 232.134C262.114 233.86 252.914 239.485 252.264 237.577C251.614 235.668 254.619 226.011 256.324 223.04C258.029 220.07 271.119 222.717 272.605 221.539C274.091 220.36 267.018 216.237 264.769 216.394C263.088 216.541 261.416 216.776 259.759 217.1C259.759 217.1 259.564 211.59 266.896 206.621C274.229 201.651 275.593 208.695 275.593 208.695Z" fill="#0052B4"/>
<path opacity="0.2" d="M275.593 208.695C275.593 208.695 275.828 217.407 282.479 217.821C289.129 218.236 293.254 206.911 300.058 209.641C306.863 212.37 307.529 224.791 307.529 224.791C307.529 224.791 301.033 219.365 297.59 222.103C294.147 224.841 294.918 229.056 296.778 228.392C298.637 227.728 308.779 225.413 309.136 233.221C309.276 235.446 308.973 237.677 308.244 239.78C307.516 241.882 306.377 243.811 304.898 245.45C304.898 245.45 297.704 231.711 292.466 234.216C287.229 236.722 296.794 238.896 300.586 243.974C304.378 249.051 306.936 254.428 303.542 256.245C300.148 258.062 295.6 262.501 295.6 262.501C295.6 262.501 296.51 255.316 292.296 249.732C288.081 244.148 284.614 246.886 288.439 251.964C292.263 257.041 290.363 265.007 290.363 265.007C290.363 265.007 279.084 265.795 271.021 262.451C262.958 259.107 262.901 255.896 265.508 253.042C268.114 250.188 277.079 246.347 274.399 242.795C271.72 239.244 264.818 258.427 260.879 254.254C256.941 250.08 255.78 245.351 257.964 241.982L260.173 238.622C260.173 238.622 269.154 234.789 271.752 231.935C274.35 229.081 270.607 230.408 266.36 232.134C262.114 233.86 252.914 239.485 252.264 237.577C251.614 235.668 254.619 226.011 256.324 223.04C258.029 220.07 271.119 222.717 272.605 221.539C274.091 220.36 267.018 216.237 264.769 216.394C263.088 216.541 261.416 216.776 259.759 217.1C259.759 217.1 259.564 211.59 266.896 206.621C274.229 201.651 275.593 208.695 275.593 208.695Z" fill="#263238"/>
<path d="M279.019 251.308C281.171 244.023 283.762 233.685 283.599 226.658" stroke="#263238" stroke-linecap="round" stroke-linejoin="round"/>
<path d="M276.25 259.945C276.25 259.945 276.957 257.962 277.931 254.876" stroke="#263238" stroke-linecap="round" stroke-linejoin="round"/>
<path d="M280.692 224.899C280.692 224.899 268.65 224.675 259.58 229.412" stroke="#263238" stroke-linecap="round" stroke-linejoin="round"/>
<path d="M280.319 234.897C280.319 234.897 280.164 232.598 270.234 240.414" stroke="#263238" stroke-linecap="round" stroke-linejoin="round"/>
<path d="M287.074 223.92C287.074 223.92 287.757 218.527 294.756 216.253" stroke="#263238" stroke-linecap="round" stroke-linejoin="round"/>
<path d="M285.174 231.885L291.061 231.296" stroke="#263238" stroke-linecap="round" stroke-linejoin="round"/>
<path d="M284.143 239.974C284.143 239.974 294.853 243.675 298.296 248.271" stroke="#263238" stroke-linecap="round" stroke-linejoin="round"/>
<path d="M347.016 266.666C347.016 266.666 323.988 282.231 316.217 337.398" stroke="#263238" stroke-width="2" stroke-linecap="round" stroke-linejoin="round"/>
<path d="M305.255 260.626C305.255 260.626 306.335 270.649 314.049 270.499C321.763 270.35 325.474 256.867 333.578 259.365C341.681 261.862 343.598 276.125 343.598 276.125C343.598 276.125 335.632 270.491 331.872 273.984C328.113 277.477 329.436 282.281 331.54 281.318C333.643 280.356 345.108 276.722 346.237 285.699C346.605 288.253 346.462 290.856 345.818 293.352C345.173 295.848 344.039 298.184 342.485 300.219C342.485 300.219 332.92 285.06 327.098 288.446C321.276 291.831 332.522 293.424 337.402 298.916C342.282 304.409 345.612 310.341 341.901 312.789C338.19 315.237 333.31 320.804 333.31 320.804C333.31 320.804 333.699 312.424 328.324 306.392C322.949 300.36 319.189 303.845 324.077 309.337C328.965 314.83 327.504 324.206 327.504 324.206C327.504 324.206 314.561 326.205 304.947 323.11C295.332 320.016 294.975 316.332 297.712 312.789C300.448 309.246 310.452 303.953 307.033 300.111C303.615 296.27 297.419 319.078 292.49 314.639C287.562 310.2 285.743 304.865 287.992 300.767L290.233 296.676C290.233 296.676 300.245 291.383 302.973 287.84C305.702 284.297 301.512 286.18 296.77 288.595C292.028 291.009 281.934 298.377 281.001 296.236C280.067 294.096 282.625 282.663 284.362 279.07C286.1 275.477 301.414 277.261 303.038 275.751C304.662 274.241 296.104 270.167 293.522 270.566C291.606 270.898 289.709 271.332 287.838 271.868C287.838 271.868 287.099 265.529 295.105 259.091C303.111 252.652 305.255 260.626 305.255 260.626Z" fill="#0052B4"/>
<path opacity="0.3" d="M305.255 260.626C305.255 260.626 306.335 270.649 314.049 270.499C321.763 270.35 325.474 256.867 333.578 259.365C341.681 261.862 343.598 276.125 343.598 276.125C343.598 276.125 335.632 270.491 331.872 273.984C328.113 277.477 329.436 282.281 331.54 281.318C333.643 280.356 345.108 276.722 346.237 285.699C346.605 288.253 346.462 290.856 345.818 293.352C345.173 295.848 344.039 298.184 342.485 300.219C342.485 300.219 332.92 285.06 327.098 288.446C321.276 291.831 332.522 293.424 337.402 298.916C342.282 304.409 345.612 310.341 341.901 312.789C338.19 315.237 333.31 320.804 333.31 320.804C333.31 320.804 333.699 312.424 328.324 306.392C322.949 300.36 319.189 303.845 324.077 309.337C328.965 314.83 327.504 324.206 327.504 324.206C327.504 324.206 314.561 326.205 304.947 323.11C295.332 320.016 294.975 316.332 297.712 312.789C300.448 309.246 310.452 303.953 307.033 300.111C303.615 296.27 297.419 319.078 292.49 314.639C287.562 310.2 285.743 304.865 287.992 300.767L290.233 296.676C290.233 296.676 300.245 291.383 302.973 287.84C305.702 284.297 301.512 286.18 296.77 288.595C292.028 291.009 281.934 298.377 281.001 296.236C280.067 294.096 282.625 282.663 284.362 279.07C286.1 275.477 301.414 277.261 303.038 275.751C304.662 274.241 296.104 270.167 293.522 270.566C291.606 270.898 289.709 271.332 287.838 271.868C287.838 271.868 287.099 265.529 295.105 259.091C303.111 252.652 305.255 260.626 305.255 260.626Z" fill="#263238"/>
<path d="M313.148 309.462C314.958 300.85 316.997 288.678 316.152 280.572" stroke="#263238" stroke-linecap="round" stroke-linejoin="round"/>
<path d="M310.752 319.692C310.752 319.692 311.386 317.344 312.222 313.693" stroke="#263238" stroke-linecap="round" stroke-linejoin="round"/>
<path d="M312.62 278.829C312.62 278.829 298.702 279.734 288.65 286.073" stroke="#263238" stroke-linecap="round" stroke-linejoin="round"/>
<path d="M313.132 290.404C313.132 290.404 312.742 287.757 301.999 297.746" stroke="#263238" stroke-linecap="round" stroke-linejoin="round"/>
<path d="M319.928 277.079C319.928 277.079 320.22 270.79 328.048 267.496" stroke="#263238" stroke-linecap="round" stroke-linejoin="round"/>
<path d="M318.45 286.463L325.19 285.21" stroke="#263238" stroke-linecap="round" stroke-linejoin="round"/>
<path d="M318.02 295.913C318.02 295.913 330.711 299.157 335.112 304.094" stroke="#263238" stroke-linecap="round" stroke-linejoin="round"/>
<path d="M311.962 337.124L314.293 294.229" stroke="#263238" stroke-width="2" stroke-linecap="round" stroke-linejoin="round"/>
<path d="M309.007 337.597C309.502 301.505 304.451 254.345 274.691 254.345" stroke="#263238" stroke-width="2" stroke-linecap="round" stroke-linejoin="round"/>
<path d="M244.875 277.46C250.21 274.241 256.113 274.141 259.004 270.765C261.894 267.388 256.218 265.645 253.182 266.923C250.145 268.201 243.105 271.901 241.765 272.731C240.425 273.561 241.359 261.762 243.827 257.323C246.296 252.885 253.068 250.304 256.446 253.93C263.575 261.58 274.691 251.549 273.936 245.567C273.181 239.584 278.638 233.163 290.363 236.929C302.088 240.696 297.712 242.787 297.712 242.787C297.712 242.787 289.389 248.006 284.054 251.225C278.719 254.444 269.876 257.216 271.776 259.564C273.676 261.912 278.784 260.485 283.063 256.975C287.342 253.465 299.612 245.135 300.87 248.238C302.129 251.341 306.554 259.896 306.554 259.896C301.123 260.751 295.752 261.97 290.477 263.546C283.339 265.836 281.878 269.844 287.456 270.184C293.035 270.524 303.168 266.21 306.319 271.661C309.469 277.112 307.318 291.109 307.318 291.109C307.318 291.109 297.103 284.04 291.89 284.065C286.677 284.09 290.014 287.035 295.836 290.877C298.362 292.457 300.801 294.177 303.144 296.029L297.842 309.902C297.842 309.902 289.08 308.757 285.662 309.005L282.202 309.254C282.202 309.254 282.202 294.701 278.142 290.379C274.082 286.056 273.327 296.054 272.458 298.601C271.59 301.148 274.204 308.765 274.204 308.765C274.204 308.765 264.087 303.106 260.806 300.858L257.558 298.609C257.558 298.609 261.342 288.047 263.908 285.019C266.474 281.99 269.982 282.455 267.026 279.825C264.07 277.195 259.645 278.589 257.12 282.314C254.594 286.039 251.631 293.357 251.631 293.357C251.631 293.357 247.855 293.988 242.95 288.304C238.046 282.621 239.54 280.688 244.875 277.46ZM291.248 293.49C295.17 291.49 285.865 287.483 285.865 287.483C282.43 286.977 287.334 295.49 291.248 293.49ZM284.647 274.797C286.319 273.967 281.309 272.233 281.309 272.233C274.066 273.66 282.982 275.652 284.647 274.797Z" fill="#0052B4"/>
<path d="M291.354 303.687C292.377 304.793 293.424 305.864 294.496 306.898" stroke="#263238" stroke-linecap="round" stroke-linejoin="round"/>
<path d="M271.249 272.532C274.992 280.514 280.668 290.926 288.13 299.987" stroke="#263238" stroke-linecap="round" stroke-linejoin="round"/>
<path d="M269.43 268.533C267.083 263.165 265.873 259.622 265.873 259.622C265.873 259.622 261.505 261.713 257.258 260.601C254.757 259.927 252.134 259.872 249.609 260.443" stroke="#263238" stroke-linecap="round" stroke-linejoin="round"/>
<path d="M273.693 267.222C272.588 266.234 289.697 257.547 289.697 257.547" stroke="#263238" stroke-linecap="round" stroke-linejoin="round"/>
<path d="M264.712 272.482C264.712 272.482 256.592 275.909 252.11 281.202" stroke="#263238" stroke-linecap="round" stroke-linejoin="round"/>
<path d="M275.487 278.091C279.826 277.342 284.226 277.025 288.625 277.145C293.045 277.198 297.429 277.959 301.617 279.402" stroke="#263238" stroke-linecap="round" stroke-linejoin="round"/>
<path d="M273.433 283.567C273.433 283.567 264.501 289.541 264.631 296.983" stroke="#263238" stroke-linecap="round" stroke-linejoin="round"/>
<path d="M338.531 264.16C338.531 264.16 343.923 268.168 347.349 264.16C350.776 260.153 345.912 252.146 350.784 249.134C355.656 246.122 363.524 251.623 363.524 251.623C363.524 251.623 357.15 253.125 357.15 256.602C357.15 260.078 360.09 261.58 360.585 260.103C361.08 258.626 364.499 251.092 369.403 254.594C370.817 255.568 372.023 256.824 372.95 258.287C373.877 259.75 374.504 261.389 374.795 263.106C374.795 263.106 363.029 261.107 362.055 265.596C361.08 270.084 366.927 265.098 371.855 265.098C376.784 265.098 381.161 266.093 380.674 269.097C380.409 271.762 380.409 274.447 380.674 277.112C380.674 277.112 376.752 273.104 371.36 273.104C365.968 273.104 365.968 276.614 370.873 276.614C375.777 276.614 379.691 281.592 379.691 281.592C379.691 281.592 374.819 289.059 368.916 292.611C363.013 296.162 361.072 294.61 360.585 291.607C360.098 288.603 362.055 281.094 358.62 281.094C355.185 281.094 363.492 294.61 359.115 295.116C354.738 295.622 351.271 294.112 350.289 291.109L349.314 288.105C349.314 288.105 351.271 280.68 350.784 277.659C350.297 274.639 349.314 277.659 348.348 281.169C347.382 284.679 346.383 293.183 344.913 292.685C343.443 292.187 339.034 285.674 338.06 283.169C337.086 280.663 344.913 273.66 344.913 272.158C344.913 270.657 339.034 273.154 338.06 274.648C337.345 275.782 336.689 276.953 336.095 278.157C336.095 278.157 332.668 275.668 333.155 268.641C333.643 261.613 338.531 264.16 338.531 264.16Z" fill="#0052B4"/>
<path d="M365.985 282.322C362.599 277.485 357.572 270.914 353.228 267.662" stroke="#263238" stroke-linecap="round" stroke-linejoin="round"/>
<path d="M369.89 288.197C369.89 288.197 369.03 286.803 367.625 284.72" stroke="#263238" stroke-linecap="round" stroke-linejoin="round"/>
<path d="M350.784 268.666C350.784 268.666 344.897 276.133 343.427 284.189" stroke="#263238" stroke-linecap="round" stroke-linejoin="round"/>
<path d="M356.663 273.677C356.663 273.677 355.193 272.673 355.193 282.687" stroke="#263238" stroke-linecap="round" stroke-linejoin="round"/>
<path d="M353.22 264.16C353.22 264.16 350.281 261.157 352.246 255.647" stroke="#263238" stroke-linecap="round" stroke-linejoin="round"/>
<path d="M357.15 269.163L359.602 265.164" stroke="#263238" stroke-linecap="round" stroke-linejoin="round"/>
<path d="M361.559 273.677C361.559 273.677 368.916 268.699 373.325 268.699" stroke="#263238" stroke-linecap="round" stroke-linejoin="round"/>
<path opacity="0.2" d="M227.36 29.3965H47.0959V271.951H227.36V29.3965Z" fill="black"/>
<path d="M221.676 22.7589H41.412V265.313H221.676V22.7589Z" fill="white" stroke="#263238" stroke-linecap="round" stroke-linejoin="round"/>
<path d="M174.255 95.6149H51.156V67.347H210.893V95.6149H177.227" stroke="#263238" stroke-linecap="round" stroke-linejoin="round"/>
<path d="M61.1274 129.052H51.156V114.441H138.349" stroke="#263238" stroke-linecap="round" stroke-linejoin="round"/>
<path d="M142.132 114.441H210.893V129.052H63.8313" stroke="#263238" stroke-linecap="round" stroke-linejoin="round"/>
<path d="M185.867 158.622H51.156V144.011H210.893V158.622H188.839" stroke="#263238" stroke-linecap="round" stroke-linejoin="round"/>
<path d="M92.4543 246.994H51.156V172.586H210.893V246.994H96.4981" stroke="#263238" stroke-linecap="round" stroke-linejoin="round"/>
<path d="M210.893 172.586H51.156V185.588H210.893V172.586Z" fill="#D1D1D1" stroke="#263238" stroke-linecap="round" stroke-linejoin="round"/>
<path d="M127.086 96.1625V114.466H51.156V95.6149" stroke="#263238" stroke-linecap="round" stroke-linejoin="round"/>
<path d="M210.893 77.3781H51.156V85.5838H210.893V77.3781Z" fill="#D1D1D1" stroke="#263238" stroke-linecap="round" stroke-linejoin="round"/>
<path d="M157.861 68.1104V77.4196" stroke="#263238" stroke-linecap="round" stroke-linejoin="round"/>
<path d="M178.396 69.6702H167.516V75.1047H178.396V69.6702Z" fill="#D1D1D1" stroke="#263238" stroke-linecap="round" stroke-linejoin="round"/>
<path d="M132.437 85.841V95.7061" stroke="#263238" stroke-linecap="round" stroke-linejoin="round"/>
<path d="M165.835 85.841V95.7061" stroke="#263238" stroke-linecap="round" stroke-linejoin="round"/>
<path d="M80.5422 114.466V95.7476" stroke="#263238" stroke-linecap="round" stroke-linejoin="round"/>
<path d="M99.1371 114.466V95.7476" stroke="#263238" stroke-linecap="round" stroke-linejoin="round"/>
<path d="M119.413 114.557V128.795" stroke="#263238" stroke-linecap="round" stroke-linejoin="round"/>
<path d="M157.495 114.358V158.373" stroke="#263238" stroke-linecap="round" stroke-linejoin="round"/>
<path d="M51.156 129.052V144.028H157.552" stroke="#263238" stroke-linecap="round" stroke-linejoin="round"/>
<path d="M91.2281 129.16V143.563" stroke="#263238" stroke-linecap="round" stroke-linejoin="round"/>
<path d="M201.53 197.701H210.974" stroke="#263238" stroke-linecap="round" stroke-linejoin="round"/>
<path d="M51.3752 197.701H198.014" stroke="#263238" stroke-linecap="round" stroke-linejoin="round"/>
<path d="M51.3752 209.45H210.974" stroke="#263238" stroke-linecap="round" stroke-linejoin="round"/>
<path d="M100.55 221.149H210.974" stroke="#263238" stroke-linecap="round" stroke-linejoin="round"/>
<path d="M51.3752 221.149H96.4981" stroke="#263238" stroke-linecap="round" stroke-linejoin="round"/>
<path d="M81.7684 200.937H76.3687V206.455H81.7684V200.937Z" fill="#D1D1D1" stroke="#263238" stroke-linecap="round" stroke-linejoin="round"/>
<path d="M112.746 200.937H107.346V206.455H112.746V200.937Z" fill="#D1D1D1" stroke="#263238" stroke-linecap="round" stroke-linejoin="round"/>
<path d="M91.35 212.196H85.9502V217.714H91.35V212.196Z" fill="#D1D1D1" stroke="#263238" stroke-linecap="round" stroke-linejoin="round"/>
<path d="M120.964 212.196H115.564V217.714H120.964V212.196Z" fill="#D1D1D1" stroke="#263238" stroke-linecap="round" stroke-linejoin="round"/>
<path d="M149.27 212.196H143.87V217.714H149.27V212.196Z" fill="#D1D1D1" stroke="#263238" stroke-linecap="round" stroke-linejoin="round"/>
<path d="M178.015 212.196H172.615V217.714H178.015V212.196Z" fill="#D1D1D1" stroke="#263238" stroke-linecap="round" stroke-linejoin="round"/>
<path d="M83.4492 209.549V221.256" stroke="#263238" stroke-linecap="round" stroke-linejoin="round"/>
<path d="M112.413 209.549V221.256" stroke="#263238" stroke-linecap="round" stroke-linejoin="round"/>
<path d="M141.369 209.549V221.256" stroke="#263238" stroke-linecap="round" stroke-linejoin="round"/>
<path d="M170.325 209.549V221.256" stroke="#263238" stroke-linecap="round" stroke-linejoin="round"/>
<path d="M51.3752 233.08H210.974" stroke="#263238" stroke-linecap="round" stroke-linejoin="round"/>
<path d="M71.5371 224.127H66.1373V229.645H71.5371V224.127Z" fill="#D1D1D1" stroke="#263238" stroke-linecap="round" stroke-linejoin="round"/>
<path d="M120.964 224.127H115.564V229.645H120.964V224.127Z" fill="#D1D1D1" stroke="#263238" stroke-linecap="round" stroke-linejoin="round"/>
<path d="M149.27 224.127H143.87V229.645H149.27V224.127Z" fill="#D1D1D1" stroke="#263238" stroke-linecap="round" stroke-linejoin="round"/>
<path d="M185.745 224.127H180.345V229.645H185.745V224.127Z" fill="#D1D1D1" stroke="#263238" stroke-linecap="round" stroke-linejoin="round"/>
<path d="M63.6365 221.48V233.063" stroke="#263238" stroke-linecap="round" stroke-linejoin="round"/>
<path d="M112.413 221.48V233.063" stroke="#263238" stroke-linecap="round" stroke-linejoin="round"/>
<path d="M141.369 221.48V233.063" stroke="#263238" stroke-linecap="round" stroke-linejoin="round"/>
<path d="M178.055 221.48V233.063" stroke="#263238" stroke-linecap="round" stroke-linejoin="round"/>
<path d="M115.45 42.3565V44.3643H110.992V52.9434H108.808V33.1302H116.514V35.1381H110.976V42.3565H115.45Z" fill="#263238"/>
<path d="M118.081 37.9175C118.081 34.8891 119.543 32.9393 122.506 32.9393C125.47 32.9393 126.964 34.8974 126.964 37.9175V48.156C126.964 51.1595 125.503 53.1342 122.506 53.1342C119.51 53.1342 118.081 51.1513 118.081 48.156V37.9175ZM120.176 48.2722C120.176 50.0809 120.923 51.1347 122.474 51.1347C124.025 51.1347 124.772 50.0809 124.772 48.2722V37.8014C124.772 36.0175 124.057 34.9389 122.474 34.9389C120.891 34.9389 120.176 36.0175 120.176 37.8014V48.2722Z" fill="#263238"/>
<path d="M133.338 33.1302C136.383 33.1302 137.658 34.7149 137.658 37.6604V39.27C137.658 41.4521 136.911 42.8128 135.222 43.3521C136.992 43.8831 137.658 45.36 137.658 47.5006V50.5871C137.595 51.4015 137.729 52.2193 138.048 52.9683H135.864C135.555 52.2077 135.43 51.3826 135.498 50.5622V47.4259C135.498 45.1857 134.475 44.4805 132.673 44.4805H131.154V52.9434H128.994V33.1302H133.338ZM132.786 42.4726C134.5 42.4726 135.523 41.9084 135.523 39.7512V37.8761C135.523 36.0922 134.889 35.1547 133.282 35.1547H131.179V42.4892L132.786 42.4726Z" fill="#263238"/>
<path d="M147.069 52.9102H144.999L141.751 37.1459V52.9102H139.867V33.1302H142.912L146.095 48.9526L149.172 33.1302H152.185V52.9434H150.139V37.0464L147.069 52.9102Z" fill="#263238"/>
<path d="M99.7379 62.6426H117.326" stroke="#263238" stroke-miterlimit="10"/>
<path d="M51.7568 62.6426H96.7741" stroke="#263238" stroke-miterlimit="10"/>
<path d="M131.211 62.6426H169.976" stroke="#263238" stroke-miterlimit="10"/>
<path d="M180.508 62.6426H211.136" stroke="#263238" stroke-miterlimit="10"/>
<path d="M187.523 342.832L247.79 340.302L280.7 381.173L199.427 388.408L187.523 342.832Z" fill="white" stroke="#263238" stroke-linecap="round" stroke-linejoin="round"/>
<path d="M199.695 370.976L264.842 366.338L269.137 371.864L201.506 377.116L199.695 370.976Z" stroke="#263238" stroke-width="0.5" stroke-linecap="round" stroke-linejoin="round"/>
<path d="M197.738 364.338L260.173 360.323L262.162 362.886L198.575 367.168L197.738 364.338Z" stroke="#263238" stroke-width="0.5" stroke-linecap="round" stroke-linejoin="round"/>
<path d="M196.155 358.97L256.373 355.427L258.216 357.8L196.918 361.567L196.155 358.97Z" stroke="#263238" stroke-width="0.5" stroke-linecap="round" stroke-linejoin="round"/>
<path d="M192.087 345.172L246.523 342.75L254.676 353.245L195.448 356.572L192.087 345.172Z" stroke="#263238" stroke-width="0.5" stroke-linecap="round" stroke-linejoin="round"/>
<path d="M194.815 354.423L253.141 351.271L254.676 353.245L195.448 356.572L194.815 354.423Z" fill="#D1D1D1" stroke="#263238" stroke-width="0.5" stroke-linecap="round" stroke-linejoin="round"/>
<path d="M234.936 368.354L232.995 364.844L262.162 362.886L264.842 366.338" stroke="#263238" stroke-width="0.5" stroke-linecap="round" stroke-linejoin="round"/>
<path d="M200.32 373.092L266.328 368.246L267.578 369.847L200.848 374.875L200.32 373.092Z" fill="#D1D1D1" stroke="#263238" stroke-width="0.5" stroke-linecap="round" stroke-linejoin="round"/>
<path d="M224.973 375.116L224.055 373.116" stroke="#263238" stroke-width="0.5" stroke-linecap="round" stroke-linejoin="round"/>
<path d="M215.391 374.286L220.125 373.93L220.628 375.099L215.862 375.473L215.391 374.286Z" fill="#D1D1D1" stroke="#263238" stroke-width="0.5" stroke-linecap="round" stroke-linejoin="round"/>
<path d="M233.872 370.578L232.808 368.603" stroke="#263238" stroke-width="0.5" stroke-linecap="round" stroke-linejoin="round"/>
<path d="M219.865 371.606L218.988 369.582" stroke="#263238" stroke-width="0.5" stroke-linecap="round" stroke-linejoin="round"/>
<path d="M251.095 363.625L253.506 367.118" stroke="#263238" stroke-width="0.5" stroke-linecap="round" stroke-linejoin="round"/>
<path d="M243.949 364.106L246.19 367.64" stroke="#263238" stroke-width="0.5" stroke-linecap="round" stroke-linejoin="round"/>
<path d="M236.024 364.62L234.522 362.023" stroke="#263238" stroke-width="0.5" stroke-linecap="round" stroke-linejoin="round"/>
<path d="M220.799 365.682L217.161 357.775" stroke="#263238" stroke-width="0.5" stroke-linecap="round" stroke-linejoin="round"/>
<path d="M260.173 360.322L258.216 357.8L218.274 360.256" stroke="#263238" stroke-width="0.5" stroke-linecap="round" stroke-linejoin="round"/>
<path d="M245.256 361.268L243.616 358.779" stroke="#263238" stroke-width="0.5" stroke-linecap="round" stroke-linejoin="round"/>
<path d="M251.687 349.495L194.214 352.49" stroke="#263238" stroke-width="0.5" stroke-linecap="round" stroke-linejoin="round"/>
<path d="M250.38 347.819L193.67 350.665" stroke="#263238" stroke-width="0.5" stroke-linecap="round" stroke-linejoin="round"/>
<path d="M249.122 346.193L193.15 348.898" stroke="#263238" stroke-width="0.5" stroke-linecap="round" stroke-linejoin="round"/>
<path d="M240.393 348.765L242.236 348.673L242.796 349.47L240.937 349.561L240.393 348.765Z" fill="#D1D1D1" stroke="#263238" stroke-width="0.5" stroke-linecap="round" stroke-linejoin="round"/>
<path d="M229.625 349.312L231.517 349.213L232.013 350.026L230.113 350.125L229.625 349.312Z" fill="#D1D1D1" stroke="#263238" stroke-width="0.5" stroke-linecap="round" stroke-linejoin="round"/>
<path d="M236.024 347.321L237.867 347.23L238.395 348.01L236.544 348.101L236.024 347.321Z" fill="#D1D1D1" stroke="#263238" stroke-width="0.5" stroke-linecap="round" stroke-linejoin="round"/>
<path d="M225.801 347.819L227.685 347.728L228.148 348.524L226.256 348.615L225.801 347.819Z" fill="#D1D1D1" stroke="#263238" stroke-width="0.5" stroke-linecap="round" stroke-linejoin="round"/>
<path d="M215.813 348.308L217.738 348.217L218.136 349.022L216.203 349.113L215.813 348.308Z" fill="#D1D1D1" stroke="#263238" stroke-width="0.5" stroke-linecap="round" stroke-linejoin="round"/>
<path d="M205.46 348.815L207.417 348.723L207.758 349.536L205.785 349.636L205.46 348.815Z" fill="#D1D1D1" stroke="#263238" stroke-width="0.5" stroke-linecap="round" stroke-linejoin="round"/>
<path d="M239.507 348.35L238.379 346.699" stroke="#263238" stroke-width="0.5" stroke-linecap="round" stroke-linejoin="round"/>
<path d="M229.479 348.848L228.472 347.172" stroke="#263238" stroke-width="0.5" stroke-linecap="round" stroke-linejoin="round"/>
<path d="M219.232 349.362L218.363 347.661" stroke="#263238" stroke-width="0.5" stroke-linecap="round" stroke-linejoin="round"/>
<path d="M208.757 349.893L208.026 348.159" stroke="#263238" stroke-width="0.5" stroke-linecap="round" stroke-linejoin="round"/>
<path d="M247.871 344.583L192.639 347.147" stroke="#263238" stroke-width="0.5" stroke-linecap="round" stroke-linejoin="round"/>
<path d="M241.57 345.355L243.364 345.272L243.909 346.018L242.114 346.11L241.57 345.355Z" fill="#D1D1D1" stroke="#263238" stroke-width="0.5" stroke-linecap="round" stroke-linejoin="round"/>
<path d="M224.843 346.143L226.694 346.052L227.149 346.823L225.281 346.915L224.843 346.143Z" fill="#D1D1D1" stroke="#263238" stroke-width="0.5" stroke-linecap="round" stroke-linejoin="round"/>
<path d="M214.985 346.599L216.877 346.516L217.275 347.296L215.367 347.387L214.985 346.599Z" fill="#D1D1D1" stroke="#263238" stroke-width="0.5" stroke-linecap="round" stroke-linejoin="round"/>
<path d="M201.985 347.213L203.934 347.122L204.242 347.918L202.285 348.01L201.985 347.213Z" fill="#D1D1D1" stroke="#263238" stroke-width="0.5" stroke-linecap="round" stroke-linejoin="round"/>
<path d="M245.013 346.342L243.852 344.766" stroke="#263238" stroke-width="0.5" stroke-linecap="round" stroke-linejoin="round"/>
<path d="M228.456 347.147L227.498 345.529" stroke="#263238" stroke-width="0.5" stroke-linecap="round" stroke-linejoin="round"/>
<path d="M218.347 347.628L217.51 345.994" stroke="#263238" stroke-width="0.5" stroke-linecap="round" stroke-linejoin="round"/>
<path d="M205.225 348.267L204.559 346.599" stroke="#263238" stroke-width="0.5" stroke-linecap="round" stroke-linejoin="round"/>
<path d="M246.304 379.381L246.036 378.924L247.952 378.767L246.799 376.85L247.717 376.775L250.437 381.272L247.083 381.563L246.815 381.09L249.251 380.882L248.253 379.223L246.304 379.381Z" fill="#263238"/>
<path d="M245.76 380.542C246.174 381.247 245.76 381.762 244.493 381.878C243.226 381.994 242.268 381.588 241.878 380.874L240.579 378.518C240.206 377.846 240.579 377.348 241.87 377.248C243.161 377.149 244.022 377.53 244.404 378.202L245.76 380.542ZM243.478 378.252C243.331 378.033 243.124 377.863 242.883 377.764C242.641 377.665 242.377 377.642 242.122 377.696C241.448 377.746 241.269 378.012 241.497 378.418L242.837 380.816C242.983 381.046 243.194 381.225 243.442 381.33C243.69 381.435 243.963 381.461 244.225 381.405C244.899 381.347 245.086 381.065 244.85 380.65L243.478 378.252Z" fill="#263238"/>
<path d="M239.678 382.202C238.322 382.318 237.559 381.986 237.201 381.289L236.998 380.916C236.739 380.41 236.901 380.086 237.567 379.879C237.256 379.899 236.947 379.832 236.671 379.686C236.394 379.54 236.163 379.319 236 379.049L235.634 378.352C235.542 378.134 235.386 377.952 235.188 377.829L236.138 377.746C236.331 377.876 236.483 378.061 236.576 378.277L236.95 378.982C237.226 379.497 237.762 379.621 238.574 379.555L239.239 379.505L238.208 377.589L239.134 377.506L241.627 382.069L239.678 382.202ZM238.728 379.986C237.981 380.053 237.599 380.219 237.859 380.725L238.095 381.165C238.314 381.588 238.712 381.779 239.426 381.721L240.36 381.646L239.434 379.928L238.728 379.986Z" fill="#263238"/>
<path d="M231.274 378.119L232.183 378.045L235.431 381.571L233.58 377.92L234.392 377.854L236.747 382.451L235.399 382.567L232.151 378.982L232.597 382.816L231.233 382.932L229.033 378.294L229.926 378.219L231.712 381.92L231.274 378.119Z" fill="#263238"/>
<path d="M269.649 372.843L242.877 374.95" stroke="#263238" stroke-width="0.5" stroke-miterlimit="10"/>
<path d="M237.007 375.415L220.214 376.734" stroke="#263238" stroke-width="0.5" stroke-miterlimit="10"/>
<path d="M215.545 377.107L201.709 378.194" stroke="#263238" stroke-width="0.5" stroke-miterlimit="10"/>
<path d="M243.6 212.387C237.838 214.13 232.225 216.35 226.816 219.025C217.884 223.455 200.296 230.093 191.9 233.412C183.504 236.73 178.372 245.301 176.748 249.45C175.124 253.598 168.084 271.296 168.084 271.296C168.084 271.296 153.2 295.083 149.408 300.891C145.616 306.699 140.476 314.722 140.208 322.19C139.94 329.657 143.992 333.805 153.468 333.805C162.944 333.805 167.004 330.487 171.6 325.508C176.196 320.53 191.088 296.187 193.256 293.424C195.424 290.661 201.376 280.149 201.376 280.149C201.376 280.149 204.356 307.529 204.356 316.099V336.294H289.616C289.616 336.294 293.676 305.869 294.488 303.38C295.3 300.891 301.52 282.911 301.52 282.911C301.52 282.911 323.988 319.974 327.739 324.952C331.491 329.931 342.201 340.418 352.692 336.22C363.183 332.021 361.031 320.522 355.347 306.699C349.663 292.876 339.684 269.362 339.684 268.242C339.684 267.122 335.624 250.819 319.116 238.091C302.608 225.363 286.368 222.327 282.576 220.394C278.784 218.46 266.604 212.387 243.6 212.387Z" fill="#0052B4" stroke="#263238" stroke-linecap="round" stroke-linejoin="round"/>
<path d="M190.552 262.169L201.108 279.045C201.108 279.045 192.444 269.918 187.028 268.533" stroke="#263238" stroke-linecap="round" stroke-linejoin="round"/>
<path d="M201.108 279.045L194.88 276.83C194.88 276.83 189.196 273.511 184.592 274.897" stroke="#263238" stroke-linecap="round" stroke-linejoin="round"/>
<path d="M233.482 238.664C234.091 243.219 235.496 248.877 238.728 252.768" stroke="#263238" stroke-linecap="round" stroke-linejoin="round"/>
<path d="M233.044 231.196C233.044 231.196 232.987 232.781 233.133 235.171" stroke="#263238" stroke-linecap="round" stroke-linejoin="round"/>
<path d="M236.008 256.087C236.77 256.883 237.584 257.626 238.444 258.311" stroke="#263238" stroke-linecap="round" stroke-linejoin="round"/>
<path d="M228.44 243.642C229.918 247.737 232.099 251.53 234.879 254.843" stroke="#263238" stroke-linecap="round" stroke-linejoin="round"/>
<path d="M281.902 305.438C280.059 308.499 278.313 310.972 276.892 312.233" stroke="#263238" stroke-linecap="round" stroke-linejoin="round"/>
<path d="M295.568 277.933C295.568 277.933 289.275 292.47 283.388 302.824" stroke="#263238" stroke-linecap="round" stroke-linejoin="round"/>
<path d="M267.895 314.54C267.083 315.544 266.458 316.382 266.068 316.929" stroke="#263238" stroke-linecap="round" stroke-linejoin="round"/>
<path d="M278.248 301.995C278.248 301.995 273.262 307.919 269.584 312.507" stroke="#263238" stroke-linecap="round" stroke-linejoin="round"/>
<path d="M301.52 282.911C301.52 282.911 313.432 263.555 313.976 261.895" stroke="#263238" stroke-linecap="round" stroke-linejoin="round"/>
<path d="M310.631 275.452C314.171 272.524 319.49 268.815 324.8 267.703" stroke="#263238" stroke-linecap="round" stroke-linejoin="round"/>
<path d="M306.392 279.319C306.392 279.319 307.358 278.298 308.982 276.83" stroke="#263238" stroke-linecap="round" stroke-linejoin="round"/>
<path d="M321.284 264.658C317.859 266.483 314.599 268.612 311.54 271.022" stroke="#263238" stroke-linecap="round" stroke-linejoin="round"/>
<path d="M326.156 305.595C328.466 304.475 331.014 303.963 333.567 304.108C336.121 304.253 338.598 305.05 340.772 306.425" stroke="#263238" stroke-linecap="round" stroke-linejoin="round"/>
<path d="M328.592 301.994C328.592 301.994 338.06 300.061 345.1 304.484" stroke="#263238" stroke-linecap="round" stroke-linejoin="round"/>
<path d="M151.032 305.313C152.664 303.802 154.6 302.672 156.704 302.004C158.808 301.337 161.029 301.146 163.212 301.447" stroke="#263238" stroke-linecap="round" stroke-linejoin="round"/>
<path d="M167.792 302.094C168.457 302.579 169.097 303.1 169.708 303.654" stroke="#263238" stroke-linecap="round" stroke-linejoin="round"/>
<path d="M160.508 298.958C162.059 299.155 163.563 299.633 164.95 300.368" stroke="#263238" stroke-linecap="round" stroke-linejoin="round"/>
<path d="M241.708 219.58C241.708 219.58 239.272 230.093 240.084 237.834C240.896 245.575 249.284 257.473 256.324 260.236C263.364 262.999 276.348 254.984 280.952 250.279C285.556 245.575 285.824 230.64 285.824 230.64C285.824 230.64 278.808 215.158 263.9 210.728C248.992 206.297 241.708 219.58 241.708 219.58Z" fill="#ABABAB" stroke="#263238" stroke-linecap="round" stroke-linejoin="round"/>
<path d="M297.679 217.415C297.679 217.415 299.092 221.738 296.372 227.205C293.652 232.673 288.398 237.295 286.985 236.822C285.572 236.349 291.378 216.56 291.378 216.56C291.378 216.56 295.235 214.345 297.679 217.415Z" fill="#ABABAB" stroke="#263238" stroke-linecap="round" stroke-linejoin="round"/>
<path d="M237.965 201.617C237.965 201.617 235.293 205.26 236.178 211.333C237.063 217.407 240.636 223.472 242.122 223.472C243.608 223.472 244.201 202.837 244.201 202.837C244.201 202.837 241.229 199.493 237.965 201.617Z" fill="#ABABAB" stroke="#263238" stroke-linecap="round" stroke-linejoin="round"/>
<path d="M242.423 209.508C242.423 209.508 240.344 228.027 242.715 235.619C245.086 243.21 249.844 255.042 257.274 258.079C264.704 261.115 281.634 248.064 284.306 242.903C286.977 237.743 294.407 215.888 294.407 215.888C296.361 213.231 297.63 210.114 298.098 206.825C298.566 203.535 298.218 200.179 297.086 197.062C293.221 186.135 272.426 179.456 263.794 179.763C255.163 180.07 246.564 187.355 245.971 193.121C245.378 198.888 242.423 209.508 242.423 209.508Z" fill="#ABABAB" stroke="#263238" stroke-linecap="round" stroke-linejoin="round"/>
<path d="M261.732 220.742C261.732 220.742 255.195 212.545 249.251 215.283" stroke="#263238" stroke-width="2" stroke-linecap="round" stroke-linejoin="round"/>
<path d="M272.125 224.384C272.125 224.384 281.057 222.26 285.199 226.21" stroke="#263238" stroke-width="2" stroke-linecap="round" stroke-linejoin="round"/>
<path d="M250.145 222.567C250.145 222.567 252.053 228.375 259.799 227.703" stroke="#263238" stroke-linecap="round" stroke-linejoin="round"/>
<path d="M271.533 230.756C271.533 230.756 273.319 234.706 281.634 233.187" stroke="#263238" stroke-linecap="round" stroke-linejoin="round"/>
<path d="M256.892 236.282C256.629 237.512 256.802 238.797 257.38 239.908C258.346 241.393 260.766 243.534 262.544 243.534C264.322 243.534 268.033 242.878 268.999 241.875C269.619 241.224 270.164 240.503 270.623 239.726" stroke="#263238" stroke-linecap="round" stroke-linejoin="round"/>
<path d="M252.857 241.725C252.857 241.725 256.917 246.504 260.286 247.657C263.656 248.811 269.966 246.828 271.744 246.172" stroke="#263238" stroke-linecap="round" stroke-linejoin="round"/>
<path d="M311.694 188.616C311.418 186.625 312.807 183.779 313.083 182.078C313.359 180.377 311.134 177.241 309.193 174.685C307.693 172.64 306.907 170.139 306.96 167.583C306.96 165.874 305.02 164.455 303.347 163.318C301.313 161.935 299.446 160.312 297.785 158.481C296.672 157.063 291.946 157.345 291.11 157.345C290.274 157.345 286.66 154.225 284.435 153.088C282.211 151.952 277.761 153.918 277.761 153.918C277.761 153.918 272.475 151.362 271.362 151.362C270.25 151.362 265.516 153.354 265.516 153.354C263.948 154.041 262.316 154.561 260.644 154.905C260.341 154.824 260.031 154.772 259.718 154.748C259.093 153.918 253.531 157.328 253.531 157.328L248.529 158.158L246.669 161.236C244.891 161.435 240.725 162.115 240.433 164.198C240.06 166.853 240.433 167.99 239.321 169.5C238.208 171.01 234.132 170.636 235.261 174.046C236.389 177.457 238.963 180.112 235.626 182.012C232.289 183.912 230.437 187.313 232.289 189.205C234.14 191.097 235.626 193.752 235.261 195.27C234.895 196.789 234.514 200.199 236 200.954C237.309 201.728 238.55 202.617 239.71 203.609L241.562 207.757L242.674 210.412C242.674 210.412 244.526 204.347 246.012 203.592C247.498 202.837 246.012 206.247 248.984 206.247C251.955 206.247 254.911 191.844 257.104 191.462C259.296 191.08 266.036 203.974 272.686 203.974C279.336 203.974 287.554 198.008 290.899 198.008C294.244 198.008 291.638 212.404 291.638 215.432C291.638 218.46 292.377 221.489 292.377 222.634C292.377 223.779 296.088 217.324 298.686 215.805C299.401 215.39 300.261 214.884 301.163 214.304C301.163 214.436 301.122 214.511 301.122 214.511C301.122 214.511 310.306 208.537 311.418 206.554C312.531 204.571 311.694 202.854 311.694 201.153C311.694 199.452 312.807 198.025 313.083 195.469C313.359 192.914 311.97 190.599 311.694 188.616Z" fill="#263238" stroke="#263238" stroke-linecap="round" stroke-linejoin="round"/>
<path d="M379.683 336.228H21.924" stroke="#263238" stroke-linecap="round" stroke-linejoin="round"/>
<path d="M340.788 312.042C340.788 312.042 330.646 308.234 323.355 311.213C316.063 314.191 298.946 321.269 287.294 323.5C276.361 325.479 265.249 326.228 254.156 325.732C244.315 325.359 238.85 326.852 236.666 328.711C234.481 330.569 226.467 340.991 227.189 342.111C227.912 343.231 228.724 343.654 232.297 342.857C233.718 342.534 237.762 338.02 237.762 338.02L245.07 334.701C245.07 334.701 237.421 343.264 238.509 344.376C239.597 345.487 241.424 344.002 242.885 342.891C244.347 341.779 247.254 339.165 247.254 339.165L253.815 336.187C253.815 336.187 246.848 340.991 246.848 343.206C246.848 345.421 248.545 344.118 251.436 342.94C252.806 342.057 254.111 341.072 255.342 339.995L260.823 338.418C264.362 340.305 268.305 341.263 272.296 341.206C276.469 341.188 280.499 339.653 283.664 336.875C283.664 336.875 309.169 340.601 321.917 339.48C334.666 338.36 350.695 339.854 357.256 335.017C363.817 330.18 355.437 317.518 354.706 316.398" fill="#ABABAB"/>
<path d="M340.788 312.042C340.788 312.042 330.646 308.234 323.355 311.213C316.063 314.191 298.946 321.269 287.294 323.5C276.361 325.479 265.249 326.228 254.156 325.732C244.315 325.359 238.85 326.852 236.666 328.711C234.481 330.569 226.467 340.991 227.189 342.111C227.912 343.231 228.724 343.654 232.297 342.857C233.718 342.534 237.762 338.02 237.762 338.02L245.07 334.701C245.07 334.701 237.421 343.264 238.509 344.376C239.597 345.487 241.424 344.002 242.885 342.891C244.347 341.779 247.254 339.165 247.254 339.165L253.815 336.187C253.815 336.187 246.848 340.991 246.848 343.206C246.848 345.421 248.545 344.118 251.436 342.94C252.806 342.057 254.111 341.072 255.342 339.995L260.823 338.418C264.362 340.305 268.305 341.263 272.296 341.206C276.469 341.188 280.499 339.653 283.664 336.875C283.664 336.875 309.169 340.601 321.917 339.48C334.666 338.36 350.695 339.854 357.256 335.017C363.817 330.18 355.437 317.518 354.706 316.398" stroke="#263238" stroke-linecap="round" stroke-linejoin="round"/>
<path d="M228.878 343.139C228.878 343.139 230.234 339.149 231.59 337.414C232.947 335.68 239.223 331.524 241.432 330.312C242.308 329.794 243.213 329.332 244.144 328.927" stroke="#263238" stroke-linecap="round" stroke-linejoin="round"/>
<path d="M245.029 334.668L251.436 330.312" stroke="#263238" stroke-linecap="round" stroke-linejoin="round"/>
<path d="M253.774 336.153L259.751 333.083" stroke="#263238" stroke-linecap="round" stroke-linejoin="round"/>
<path d="M340.788 312.042C335.372 310.723 327.723 309.429 323.355 311.213C316.859 313.859 302.665 319.725 291.402 322.571C292.998 324.365 293.921 326.678 294.009 329.101C294.136 332.137 293.729 335.172 292.807 338.062C301.39 339.049 314.057 340.194 321.901 339.505C334.649 338.385 350.678 339.879 357.239 335.042C363.8 330.204 355.42 317.543 354.69 316.423" fill="#0052B4"/>
<path d="M340.788 312.042C335.372 310.723 327.723 309.429 323.355 311.213C316.859 313.859 302.665 319.725 291.402 322.571C292.998 324.365 293.921 326.678 294.009 329.101C294.136 332.137 293.729 335.172 292.807 338.062C301.39 339.049 314.057 340.194 321.901 339.505C334.649 338.385 350.678 339.879 357.239 335.042C363.8 330.204 355.42 317.543 354.69 316.423" stroke="#263238" stroke-linecap="round" stroke-linejoin="round"/>
<path d="M148.433 310.922C149.116 309.039 154.117 304.533 160.849 305.737C167.58 306.94 175.221 314.581 179.59 320.455C183.958 326.33 187.442 327.923 187.442 327.923L182.294 343.994C182.294 343.994 179.127 343.214 173.183 341.671C167.239 340.128 153.939 338.12 147.824 336.178C141.71 334.237 139.104 327.516 140.435 321.244C141.114 317.758 142.277 314.388 143.886 311.237" fill="#0052B4"/>
<path d="M148.433 310.922C149.116 309.039 154.117 304.533 160.849 305.737C167.58 306.94 175.221 314.581 179.59 320.455C183.958 326.33 187.442 327.923 187.442 327.923L182.294 343.994C182.294 343.994 179.127 343.214 173.183 341.671C167.239 340.128 153.939 338.12 147.824 336.178C141.71 334.237 139.104 327.516 140.435 321.244C141.114 317.758 142.277 314.388 143.886 311.237" stroke="#263238" stroke-linecap="round" stroke-linejoin="round"/>
<path d="M179.59 320.455C179.127 319.841 178.632 319.211 178.112 318.564C174.304 320.115 169.472 322.978 166.915 328.022C164.357 333.067 164.341 337.232 164.836 339.887C168.084 340.518 171.08 341.115 173.167 341.654C179.111 343.198 182.278 343.977 182.278 343.977L187.426 327.906C187.426 327.906 183.95 326.338 179.59 320.455Z" fill="#ABABAB" stroke="#263238" stroke-linecap="round" stroke-linejoin="round"/>
<path d="M177.487 336.153C177.146 338.642 176.399 341.488 179.923 343.065C183.447 344.641 186.955 348.532 189.172 349.445C191.853 350.495 194.656 351.187 197.511 351.503C199.768 351.652 202.553 352.407 206.979 351.146C211.404 349.885 211.282 348.723 211.282 348.723C211.282 348.723 214.043 348.831 215.407 348.143C216.771 347.454 215.813 345.728 214.157 345.048C212.5 344.367 210.47 343.455 210.47 343.455C210.47 343.455 212.987 341.082 212.354 340.493L211.729 339.904C211.729 339.904 214.636 340.252 214.888 339.306C215.139 338.36 213.312 334.179 212.581 330.661C211.851 327.143 210.316 327.616 207.515 327.052C204.713 326.487 200.897 327.209 195.862 326.114C190.828 325.019 183.536 326.861 180.654 327.641" fill="#ABABAB"/>
<path d="M177.487 336.153C177.146 338.642 176.399 341.488 179.923 343.065C183.447 344.641 186.955 348.532 189.172 349.445C191.853 350.495 194.656 351.187 197.511 351.503C199.768 351.652 202.553 352.407 206.979 351.146C211.404 349.885 211.282 348.723 211.282 348.723C211.282 348.723 214.043 348.831 215.407 348.143C216.771 347.454 215.813 345.728 214.157 345.048C212.5 344.367 210.47 343.455 210.47 343.455C210.47 343.455 212.987 341.082 212.354 340.493L211.729 339.904C211.729 339.904 214.636 340.252 214.888 339.306C215.139 338.36 213.312 334.179 212.581 330.661C211.851 327.143 210.316 327.616 207.515 327.052C204.713 326.487 200.897 327.209 195.862 326.114C190.828 325.019 183.536 326.861 180.654 327.641" stroke="#263238" stroke-linecap="round" stroke-linejoin="round"/>
<path d="M197.145 312.216L201.741 328.81L205.412 330.594L199.971 311.378C199.914 311.175 199.815 310.985 199.681 310.824C199.547 310.662 199.381 310.531 199.193 310.44C199.006 310.349 198.802 310.3 198.594 310.295C198.387 310.291 198.181 310.332 197.99 310.416C197.658 310.558 197.388 310.82 197.232 311.152C197.077 311.484 197.046 311.863 197.145 312.216Z" fill="#263238"/>
<path d="M199.752 327.541C199.752 327.541 207.791 331.922 208.343 332.146C208.725 332.304 212.306 338.418 213.442 341.356C213.97 342.7 213.377 343.471 212.143 344.168L210.479 343.48L200.483 337.049L196.821 335.266" fill="#ABABAB"/>
<path d="M199.752 327.541C199.752 327.541 207.791 331.922 208.343 332.146C208.725 332.304 212.306 338.418 213.442 341.356C213.97 342.7 213.377 343.471 212.143 344.168L210.479 343.48L200.483 337.049L196.821 335.266" stroke="#263238" stroke-linecap="round" stroke-linejoin="round"/>
<path d="M194.141 341.853C194.141 341.853 201.969 346.608 203.617 347.479C205.265 348.35 211.282 348.748 211.282 348.748" stroke="#263238" stroke-linecap="round" stroke-linejoin="round"/>
<path d="M191.21 346.525C191.21 346.525 197.779 350.225 199.07 350.673C200.361 351.121 203.13 351.901 203.13 351.901" stroke="#263238" stroke-linecap="round" stroke-linejoin="round"/>
<path d="M140.346 377.364L170.325 349.188L104.277 344.832L140.346 377.364Z" fill="#CCCCCC" stroke="#263238" stroke-linecap="round" stroke-linejoin="round"/>
<path d="M139.079 371.689L152.575 358.621L136.944 357.659L139.079 371.689Z" fill="#263238" stroke="#263238" stroke-linecap="round" stroke-linejoin="round"/>
<path d="M47.1609 298.236L146.038 302.708L140.346 377.364L40.6 372.444L47.1609 298.236Z" fill="#A6A6A6" stroke="#263238" stroke-linecap="round" stroke-linejoin="round"/>
<path d="M41.0385 367.474C46.8849 366.595 56.7507 364.247 73.4129 358.738C113.079 345.62 118.073 308.956 146.038 302.708L47.1609 298.236L41.0385 367.474Z" fill="#263238" stroke="#263238" stroke-linecap="round" stroke-linejoin="round"/>
<path d="M92.6654 342.044C96.854 342.044 100.249 339.377 100.249 336.087C100.249 332.797 96.854 330.13 92.6654 330.13C88.4768 330.13 85.0813 332.797 85.0813 336.087C85.0813 339.377 88.4768 342.044 92.6654 342.044Z" fill="white" stroke="#263238" stroke-linecap="round" stroke-linejoin="round"/>
</svg>
